<?xml version="1.0" standalone="no"?>
<!DOCTYPE svg PUBLIC "-//W3C//DTD SVG 1.1//EN" "http://www.w3.org/Graphics/SVG/1.1/DTD/svg11.dtd" >
<svg xmlns="http://www.w3.org/2000/svg">
<metadata></metadata>
<defs>
<font id="db_surawong_xlight" horiz-adv-x="692" >
<font-face units-per-em="2048" ascent="1638" descent="-410" />
<missing-glyph horiz-adv-x="512" />
<glyph unicode="&#x2b;&#x2d;" horiz-adv-x="841" d="M74 2v64h698v-64h-698zM74 494v63h317l5 315h63l-5 -315h318v-63h-318l-2 -320h-63l2 320h-317z" />
<glyph unicode="&#x2e;&#x2e;&#x2e;" horiz-adv-x="1394" d="M162 62q0 14 5.5 27t15 22t21.5 14.5t26 5.5t27 -5.5t22 -14.5t14.5 -22t5.5 -27t-5.5 -27t-14.5 -23t-22 -15t-27 -5t-27 6t-22 16t-14 22t-5 26zM628 62q0 14 6 27t15 22t22 14.5t27 5.5q13 0 25.5 -5.5t22.5 -14.5t16 -22t6 -27t-6 -27t-15.5 -23t-22.5 -15 q-14 -5 -28 -5t-26.5 6t-21.5 16t-14.5 22t-5.5 26zM1098 62q0 14 5 27t14 22t21 14.5t26 5.5t27 -5.5t23 -14.5t15.5 -22t5.5 -27t-5.5 -27t-15.5 -23t-23 -15t-27 -5t-27 6t-21.5 16t-13 22t-4.5 26z" />
<glyph horiz-adv-x="2048" />
<glyph horiz-adv-x="2048" />
<glyph unicode="&#xd;" horiz-adv-x="579" />
<glyph unicode=" "  horiz-adv-x="512" />
<glyph unicode="&#x09;" horiz-adv-x="512" />
<glyph unicode="&#xa0;" horiz-adv-x="512" />
<glyph unicode="!" horiz-adv-x="381" d="M123 66q0 16 5 29.5t14.5 23t21.5 15.5t28 6q14 0 27 -6t22 -15t14 -22t5 -27t-6 -27t-15.5 -23t-21.5 -15q-13 -5 -25 -5t-24 6t-22 15t-16.5 21t-6.5 24zM148 858q-2 26 0 56q10 5 17 10t16 11t21 13.5t32 15.5h20l4 -30l-41 -590v-32l-35 -30l-8 2q2 17 0 30.5 t-2 25.5l-20 463q-2 29 -4 55z" />
<glyph unicode="&#x22;" horiz-adv-x="512" d="M90 918q-1 6 2 14t9.5 15t15.5 11t20 4q10 0 19.5 -4t16 -10t10 -14t1.5 -16l-47 -277h-8zM344 918q-1 6 2 14t9.5 15t15.5 11t20 4q10 0 19.5 -4t15.5 -11t10 -15t2 -14l-45 -277h-8z" />
<glyph unicode="#" horiz-adv-x="841" d="M84 322v53h168l37 221h-166l2 53h170l49 301h54l-48 -301h213l47 301h56l-48 -301h148l-2 -53h-152l-36 -221h151v-53h-157l-48 -322h-57l49 322h-213l-53 -322h-54l52 322h-162zM307 375h215l35 221h-213z" />
<glyph unicode="$" d="M43 30q11 48 16 101t5 101h12q4 0 10 1t10 1v-86v-19.5t4 -20.5q18 -24 43 -41t52 -28t56 -17t58 -6h5l4 412q-40 4 -74.5 9.5t-63.5 15t-51.5 23.5t-38.5 36t-24 53t-8 74q0 62 17.5 111t51 85.5t81.5 58.5q48 24 110 32h4v4q0 26 -3 46.5t-1 39.5h20q11 0 18.5 1 t13.5 1q-2 -20 -5 -40t-3 -44v-4h6q58 0 116 -13t108 -45q-2 -21 -3.5 -41t-4 -40.5t-4.5 -42.5q0 -22 -2 -46h-36v54q0 14 1 26t-5 25q-8 20 -27.5 35.5t-44 26t-50.5 15.5t-48 5h-6l-4 -383q40 -4 77 -10t69 -15.5t57.5 -24t44 -37t28 -54.5t9.5 -76q0 -64 -21.5 -118.5 t-60.5 -96.5t-92 -68q-53 -24 -115 -30v-4q0 -36 3 -70t3 -64q-4 -2 -10 -2h-10h-33q0 25 3.5 60.5t3.5 73.5v4h-5q-24 0 -54.5 3t-65.5 10t-72 18t-74 25zM133 688q0 -45 13.5 -76.5t38 -52.5t58.5 -32q35 -11 75 -15l4 372h-4q-44 0 -78.5 -15.5t-58 -42t-36 -62.5 t-12.5 -76zM354 18h6q37 0 73.5 18t65.5 47.5t46.5 69t17.5 83.5q0 49 -15.5 82.5t-43.5 54.5t-65 33t-81 16z" />
<glyph unicode="%" horiz-adv-x="1169" d="M129 649q0 33 8.5 67.5t23.5 67t37 62t49 51t59 34.5t66 13q24 0 44.5 -7t39.5 -18t37.5 -24t39.5 -24t45 -18t55 -7q32 0 64.5 7t61.5 21t53 35t40 49h37l-545 -986h-55l485 878q-22 -11 -42 -17.5t-39 -10t-38 -4.5t-40 -1q-24 0 -49.5 7.5t-47.5 17.5q1 -12 1.5 -22 t1.5 -20t1 -20v-22q0 -36 -9 -72t-25 -70t-38 -63t-48 -51t-57 -35t-63 -13q-38 0 -66 16t-47.5 42t-29.5 61.5t-10 75.5zM188 604q0 -20 6.5 -40.5t20 -36.5t33.5 -25.5t49 -9.5q28 0 53.5 13t47.5 35t39 50t29 58t19 59t7 53q0 27 -4 54.5t-14.5 49.5t-31 36t-55.5 14 q-32 0 -59.5 -17t-49.5 -44t-39 -60.5t-28 -68t-17 -66.5t-6 -54zM666 162q0 38 9.5 75t26.5 70t40.5 60t50.5 47t57 31q32 11 62 11q38 0 65.5 -13t46 -35.5t28 -54t9.5 -67.5q0 -40 -8.5 -79t-24.5 -74t-37.5 -64.5t-47 -51t-54.5 -33.5t-59 -12q-42 0 -73 14.5t-51.5 40 t-30 60.5t-9.5 75zM727 116q0 -22 7 -42t20.5 -35.5t33.5 -25t48 -9.5t53.5 13t47 35t38.5 50t29 57.5t18 59t6 53.5q0 26 -3 53t-14 49t-32 36t-55 14q-30 0 -57 -15t-49 -39.5t-39 -56t-28.5 -66t-17.5 -68.5q-6 -35 -6 -63z" />
<glyph unicode="&#x26;" horiz-adv-x="1081" d="M76 240q0 52 16.5 96.5t45.5 81.5t68.5 66.5t84.5 51.5l4 2l-2 4q-22 43 -34.5 86.5t-14 82.5t9.5 73q10 34 35 58l67 66q16 12 27.5 21t23 16t25.5 10t33 3q60 0 95 -32q34 -30 34 -92q0 -29 -9.5 -57.5t-25 -54.5t-37 -50t-45 -45t-47.5 -40t-47 -34l-4 -2l2 -4 q27 -52 60 -99.5t69.5 -92t76.5 -86.5q41 -43 81 -83q3 -4 6 0q32 39 50.5 79t26 75.5t4.5 65.5t-15 48q-6 6 -11 9t-11 4t-13 1t-15 1l-92 6l-2 2l37 51q36 0 67.5 -1t67.5 -1l264 4q-3 -10 -5.5 -18.5t-3.5 -17t-2 -18.5t-1 -22q-48 11 -96 14t-96 -3h-7l3 -6 q4 -12 5 -27.5t1 -31.5q0 -33 -10 -66t-27 -63.5t-39 -58.5t-46 -52q-4 -2 0 -6q32 -16 61 -32.5t58 -29t58 -20.5t61 -8q13 0 23.5 1t20.5 3.5t19 6t21 9.5v-4t2 -6l3 -9t1 -5q-12 -7 -23 -14.5t-23 -16.5t-27 -21t-33 -30q-14 0 -29 -2t-33 -2q-14 0 -32.5 4t-39.5 12 t-43.5 19t-43 23t-39 25t-31.5 27q-3 3 -6 0q-27 -27 -60.5 -47.5t-70 -35.5t-75.5 -22t-77 -7q-63 0 -113.5 22t-86.5 60t-55 86t-19 100zM162 282q0 -54 19.5 -99t53.5 -78t79.5 -51.5t99.5 -18.5q24 0 48 7t48 17.5t46 24t40 26.5q3 2 0 6q-40 46 -78.5 91.5t-74.5 91.5 t-68.5 94.5t-60.5 100.5l-5 4l-2 -2q-28 -20 -54 -43t-46.5 -48.5t-32.5 -56t-12 -66.5zM322 764q0 -18 3 -40t8.5 -45t12 -45t12.5 -40l2 -4l6 4q21 14 45.5 37t46.5 49t36 54.5t14 55.5q0 18 -5 36t-14.5 33t-24.5 24.5t-36 9.5q-33 0 -53.5 -11.5t-32.5 -30t-16 -41.5 t-4 -46z" />
<glyph unicode="'" horiz-adv-x="282" d="M102 920q-2 6 1 14t9.5 14.5t16 11t21.5 4.5q10 0 19 -4t16 -11t11 -15q2 -8 0 -14l-44 -283h-8z" />
<glyph unicode="(" horiz-adv-x="459" d="M100 430q0 90 19 171t55.5 154t93 138t134.5 123q2 -2 3 -5t3 -5l7 -10.5t5 -6.5q-62 -58 -106 -121.5t-72 -132t-42 -141.5q-14 -74 -14 -154q0 -84 10 -155t33 -135t59 -126q37 -60 91 -124q8 -10 15.5 -20t15.5 -22l-12 -8q-5 -4 -8.5 -7t-8.5 -5q-74 59 -127.5 128 t-87.5 144.5t-50 156t-16 163.5z" />
<glyph unicode=")" horiz-adv-x="459" d="M47 -142q56 62 98.5 128t71.5 138t45 151t16 165q0 68 -11.5 139t-38 142t-69.5 139.5t-103 130.5q3 2 5.5 4.5l6.5 6.5t8 6.5t8 7.5q68 -53 121 -118.5t89 -140.5t54 -157.5t18 -169.5q-2 -174 -78 -322t-222 -270l-8 8q-5 4 -8 8q-2 2 -3 4z" />
<glyph unicode="*" horiz-adv-x="536" d="M62 628v3l202 86l-202 100v2l44 70h8l152 -160l43 217l5 4l73 -24l2 -8l-113 -195l218 37l12 -80l-230 35l103 -191v-6l-70 -36l-12 4l-27 220l-160 -151l-8 2z" />
<glyph unicode="+" horiz-adv-x="841" d="M74 330v63h317l5 315h63l-5 -315h318v-63h-318l-2 -320h-63l2 320h-317z" />
<glyph unicode="," horiz-adv-x="342" d="M33 -205q22 37 42.5 75.5t37 78.5t29.5 82q12 41 18 85q10 2 21 5t24.5 7t30.5 10l42 14l8 -6q-36 -91 -88 -173q-52 -81 -114 -157q-2 -2 -8 -5t-13 -6l-14 -6t-12 -6z" />
<glyph unicode="-" horiz-adv-x="579" d="M30 312l32 73h468q-3 -7 -7.5 -17t-8.5 -20.5t-9 -20t-7 -15.5h-468z" />
<glyph unicode="." horiz-adv-x="342" d="M102 62q0 14 5.5 27t15 22t22.5 14.5t27 5.5q13 0 25.5 -5.5t22.5 -14.5t16 -22t6 -27t-6 -27t-16 -23t-23 -15t-27 -5t-27 6t-22 16t-14 22t-5 26z" />
<glyph unicode="/" horiz-adv-x="841" d="M125 -164l529 1182h71l-529 -1182h-71z" />
<glyph unicode="0" d="M56 444q0 56 5 117t18 118t36 108t58 89t85 60t117 22q70 0 120 -31t81.5 -88t46 -137t14.5 -178q0 -41 -2.5 -86.5t-8 -92.5t-16 -93t-26.5 -88t-39 -78t-54 -62t-71 -40t-90 -12q-68 0 -119.5 27t-86 84t-52.5 147q-18 88 -16 214zM142 484q0 -68 3 -129t11 -113.5 t23 -95t37.5 -72.5t55 -46t76.5 -16q43 0 75 17.5t54.5 47.5t37.5 70.5t23 87.5t11.5 98.5t3.5 102.5q0 66 -2.5 128t-9.5 115.5t-20.5 97t-36 75t-54.5 49t-78 17.5t-80 -17t-57 -47t-38 -71t-22.5 -89.5t-10 -102t-2.5 -107.5z" />
<glyph unicode="1" d="M127 825v13l291 106h18q-2 -16 -4 -40t-4 -62t-3.5 -94.5t-3 -138.5t-3.5 -193q0 -110 -2 -258q0 -35 2 -62.5t15 -44.5t39 -25t75 -4v-30q-24 2 -44.5 4t-41.5 2.5t-41.5 1t-44.5 0.5t-44.5 -0.5t-40.5 -1t-40.5 -2.5t-44.5 -4v30q48 -4 75 4t39.5 25t15.5 44t3 63 l6 661v18.5t-2 18.5t-7 12t-15 -2l-178 -80l-9 2l-4 21q-2 8 -2 16z" />
<glyph unicode="2" d="M22 -1.5v7.5v20q44 50 97.5 103t107 106.5t103 108t88 107.5t61.5 105t23 102q2 46 -11.5 86t-41 69t-67 46t-89.5 17q-31 0 -59.5 -7t-52.5 -23t-42.5 -42t-28.5 -64l-16 -62h-32l24 184q48 51 108 73.5t128 22.5t118 -22t82 -59t48 -84t16 -97q0 -43 -10 -82.5 t-28 -75.5t-43 -69t-55 -63l-306 -324h321q27 0 53.5 1t50 2.5t43.5 4t33 6.5l4 -8q-4 -24 -5.5 -45t3.5 -45l-2 -4q-79 0 -155.5 3t-155.5 3q-80 0 -156 -2t-154 -6q-2 3 -2 6.5z" />
<glyph unicode="3" d="M26 211q2 2 5 2.5t6 1.5q4 2 7.5 4t8.5 2q14 -49 36.5 -85.5t53.5 -61t71.5 -36.5t92.5 -12q50 0 91.5 20t71.5 53t46 76t16 89q0 50 -11.5 89.5t-36 67.5t-62.5 43t-90 15q-72 -1 -115 -31l-4 4q4 15 9.5 29.5t5.5 30.5q14 0 27 -2t29 -2q44 0 83 19t67.5 48.5 t45.5 64.5q16 34 16 66q0 40 -15 74.5t-41 59t-60.5 38t-74.5 13.5q-45 0 -80 -16.5t-60 -42.5t-41 -59q-18 -33 -26 -67h-10q-4 0 -9 1t-9 1l38 158q45 50 101 71t123 21q55 0 98.5 -16t74 -43.5t47 -65t16.5 -81.5q0 -66 -39 -123t-109 -109q56 -9 95 -26.5t63 -44 t35 -61.5t11 -79q0 -43 -14 -84t-40 -78t-61 -68t-77 -54t-89.5 -35t-96.5 -12q-18 0 -40 2t-45.5 7t-46.5 12q-22 7 -42 15q-4 43 -16 92t-30 105z" />
<glyph unicode="4" d="M26 282q46 85 96 167.5t101 163.5t104 160.5t105 158.5l60 26l14 -8q0 -12 -1 -27t-3 -32.5t-4 -37t-2 -38.5l-10 -499h77.5t77.5 6q-2 -8 -2 -15.5v-13.5v-43q-38 4 -77.5 4h-77.5v-121q0 -32 5 -53t19 -33.5t41 -18.5t69 -6v-10q0 -5 1 -10.5t1 -9.5q-24 2 -45 4 t-42 2.5t-43 1t-46 0.5t-45 -0.5t-41.5 -1t-42 -2.5t-45.5 -4v30q43 0 70.5 6t42.5 19t21 33.5t6 50.5q2 24 1 57.5t-1 65.5h-373zM104 314h308l12 530q-62 -101 -108 -176t-79 -130l-55.5 -92.5l-37.5 -62.5t-24 -41q-10 -16 -16 -28z" />
<glyph unicode="5" d="M22 186l25 14q17 -26 31 -53t32 -57q12 -18 33 -30t44.5 -19.5t47 -11t41.5 -3.5q62 0 112 20.5t84.5 55t53.5 79.5t19 95q0 58 -15 106t-43.5 82t-69.5 53t-93 19q-28 0 -52 -4t-47.5 -14.5t-46 -28t-47.5 -45.5l-21 8q2 17 4 50t3.5 75.5t3 92.5t2 100t0 97t-1.5 85 l4 6q60 -4 119.5 -6t121.5 -2q60 0 120 2t120 6l4 -4q-2 -14 -3 -23t-1 -16t1 -15t3 -20l-12 -6l-266 4h-152l-2 -4q-6 -34 -9 -76t-5 -86t-2 -86v-75v-9q48 32 99 53t101 21q62 0 110 -19.5t82 -55t51 -84.5t17 -107q0 -56 -15 -105.5t-42 -92t-64 -75.5t-80 -57t-91 -36 t-98 -12q-14 0 -32.5 2t-38 6.5t-38.5 12.5q-19 7 -37 19q-8 20 -15 40t-13 38q-6 16 -11 31t-10 27.5l-9 22.5q-4 9 -6 15z" />
<glyph unicode="6" d="M66 340q0 117 34 217.5t97.5 180t152 136t197.5 84.5l6 -4t8 -4q13 -10 25 -12q-94 -30 -172 -76.5t-134 -108.5t-87 -138.5t-31 -166.5v-10q25 28 52 52t55.5 40t59.5 25.5t64 9.5q58 0 103.5 -19.5t76 -54.5t46.5 -83.5t16 -106.5q0 -72 -22.5 -132.5t-62.5 -104 t-95.5 -68t-120.5 -24.5q-52 0 -92 14t-70 39.5t-50.5 60t-33 75.5t-17.5 87t-5 92zM150 276q0 -30 4 -61.5t14 -61t25.5 -55.5t38 -46t52.5 -31t68 -11q34 0 63 10t51 28t39 42t28 51t16.5 56t5.5 57q0 44 -9.5 87t-31.5 77.5t-58 55.5q-36 22 -88 22q-30 0 -62 -10 t-61 -27t-51 -38.5t-32 -45.5q-6 -12 -8 -24.5t-3 -25t-1 -25v-24.5z" />
<glyph unicode="7" d="M68 702q4 57 5 118.5t-3 131.5l12 6q78 -4 153 -6t154 -2t155 2t152 6v-38q-41 -70 -85.5 -146t-90.5 -154t-92 -158t-87.5 -159.5t-78.5 -158.5q-38 -78 -66 -152q-14 3 -25 4.5t-21.5 1.5t-20.5 -2q-11 -1 -23 -4q-6 9 -8 12.5t-2 5.5q29 42 55.5 85t53.5 85 q36 60 63.5 106.5t50.5 85t42.5 72.5t38.5 67.5t39 69.5t44 79.5t53.5 96.5t67.5 121h-408q-31 0 -47.5 -6t-25.5 -25t-14 -54l-13 -91h-28z" />
<glyph unicode="8" d="M56 223q0 44 15.5 84t42 74t62.5 60.5t76 42.5l10 4l-10 6q-36 24 -66 50t-51 53t-33 53t-12 52q0 62 21.5 110t59 80t87.5 49t108 17q48 0 91 -12t74 -36.5t49 -62t18 -89.5q0 -38 -16 -72t-41 -63t-56 -54t-61 -45l-8 -4l8 -4q42 -20 79 -44.5t66 -54.5t45.5 -67 t16.5 -82q0 -66 -25.5 -120t-68.5 -93.5t-101 -60.5q-56 -22 -120 -22q-58 0 -106.5 17t-82.5 49t-52.5 79t-18.5 106zM123 226q-1 -50 15 -90t45 -68t69.5 -43t89.5 -15q43 0 81.5 19t67.5 49t45.5 69t16.5 79q0 36 -11 65t-30 53t-44.5 42.5t-53.5 34t-58 28.5t-57 24 q-39 -22 -71.5 -48.5t-56 -57.5t-36 -66t-12.5 -75zM166 754q0 -36 13 -64.5t34 -51t46 -39.5t50 -29l68 -34q28 17 55.5 39t49.5 48t36 56t14 63q0 39 -12 71.5t-36 56.5t-57 38t-73 14t-74 -11.5t-59 -33t-40 -52.5t-15 -71z" />
<glyph unicode="9" d="M58 628q0 72 22 132.5t62.5 104.5t95.5 69q54 24 120 24q52 0 92.5 -14t70 -39.5t50 -60.5t33 -75.5t17.5 -86.5t5 -92q0 -117 -34 -218t-97.5 -181.5t-152 -136.5t-196.5 -82q-3 2 -6.5 4t-8.5 4q-6 4 -13 6q-8 1 -12 6q94 30 172.5 79t134.5 113t87 140q30 76 30 158 v10q-28 -30 -56 -53.5t-56 -40t-58 -25.5t-61 -9q-58 0 -103.5 20t-76 54.5t-46 83t-15.5 106.5zM137 676q0 -44 9.5 -87t31.5 -78t58 -56t88 -21q30 0 62 10t61 27t51 38.5t32 45.5q6 12 8.5 24.5t3.5 25t0.5 25t-0.5 24.5q0 30 -4 61t-14 61t-25.5 56t-38 45.5t-52.5 31 t-68 11.5q-52 0 -90 -22.5t-63 -57.5t-37.5 -78.5t-12.5 -85.5z" />
<glyph unicode=":" horiz-adv-x="342" d="M102 60q0 14 5.5 27t14.5 23t21 15.5t25 5.5q14 0 27 -5.5t23 -15.5t16 -23t6 -27q0 -13 -5.5 -25.5t-14.5 -22t-21 -15t-25 -5.5t-25.5 6t-23 15.5t-17.5 21.5q-6 13 -6 25zM106 553q0 13 5.5 26t14.5 23t21 16t25 6q14 0 27 -5.5t23 -15t16 -23t6 -27.5q0 -13 -5.5 -25 t-14.5 -21t-21 -14t-25 -5t-25.5 5t-23 14.5t-17 21t-6.5 24.5z" />
<glyph unicode=";" horiz-adv-x="342" d="M33 -200q22 36 42.5 74t37 78t29 81.5t18.5 85.5q25 4 47.5 11.5l46.5 15.5l24 10l8 -8q-16 -46 -38 -88.5t-48 -83t-56 -80.5t-60 -78q-2 -1 -8 -3.5t-13 -5.5l-14 -6t-12 -6zM140 553q0 13 4.5 26t13 23t20.5 16t27 6q14 0 27.5 -5.5t23.5 -15t16 -23t6 -27.5 q0 -13 -5.5 -25t-15 -21t-21.5 -14t-25 -5t-26 5t-23 14.5t-16 21t-6 24.5z" />
<glyph unicode="&#x3c;" horiz-adv-x="841" d="M82 334v55l690 319v-56l-622 -290l618 -290l-2 -56z" />
<glyph unicode="=" horiz-adv-x="841" d="M74 194v62h698v-62h-698zM76 467v63h698v-63h-698z" />
<glyph unicode="&#x3e;" horiz-adv-x="841" d="M76 16l2 56l620 290l-616 290v56l686 -319v-55z" />
<glyph unicode="?" horiz-adv-x="614" d="M70 766l53 154q19 8 40 16t43 14.5t44 10t43 3.5q48 0 92 -15t77.5 -43t52.5 -67t19 -87q0 -34 -11.5 -65.5t-30.5 -59.5t-43.5 -53.5t-50.5 -50t-50 -47.5t-43 -45.5t-31 -45.5t-12 -47t9 -40t20 -28q-6 -6 -12.5 -10t-12.5 -4q-24 14 -40 40q-15 26 -15 56t17.5 59 t43.5 58.5t57 59t57 60.5t43 64t17 70q0 36 -13 67t-37 52.5t-58.5 34t-77.5 12.5q-24 0 -41 -3.5t-30 -10t-22 -17t-19 -25t-21 -33t-27 -42.5zM205 62q0 16 5.5 29t14.5 22t22 13.5t27 4.5t27 -4.5t22.5 -13.5t15 -22t5.5 -29q0 -13 -5.5 -25.5t-15 -22.5t-21.5 -16 q-14 -6 -28 -6t-27 6t-22 16t-14.5 22t-5.5 26z" />
<glyph unicode="@" horiz-adv-x="1040" d="M53 456q0 70 17.5 134t50.5 120t79 101t102 77.5t122 50t137 17.5q58 0 114.5 -12t106.5 -35.5t92 -57t72.5 -76.5t48 -94.5t17.5 -110.5q0 -52 -14 -100t-38 -91t-56 -78t-67 -60.5t-72 -40t-71 -14.5q-24 0 -41 10.5t-28.5 27t-17 36.5t-5.5 41v35l-20 -31 q-18 -26 -35.5 -46.5t-37.5 -34.5t-43 -22q-22 -8 -50 -8q-38 0 -70 16t-55 43t-36 63q-13 38 -13 80q0 36 11 72t30.5 70t47 63t60 50t69 33t74.5 12q50 0 79 -22.5t35 -73.5l8 -53l38 137h98l-106 -368q-4 -14 -5 -31t3 -31.5t15 -24.5t32 -10q22 0 48.5 12t51.5 34.5 t49 53.5t42 70t29 84t11 95q0 46 -12 89.5t-36 82t-58 70t-77.5 54t-95.5 35.5q-51 13 -111 13q-65 0 -125 -15t-112 -43t-94.5 -67.5t-72.5 -89t-47 -107.5t-17 -123q0 -66 16.5 -124.5t46 -107.5t72 -88t94.5 -66t112.5 -42t126.5 -15q58 0 109 14.5t97 40.5t85.5 62.5 t72.5 79.5q4 0 10.5 0.5t14 0.5t15.5 0.5t15 0.5q-33 -55 -79.5 -100t-102 -77t-118.5 -49t-128 -17q-70 0 -135 16t-121.5 45.5t-103.5 72t-80 95.5t-51 115q-19 62 -19 132zM336 356q0 -21 5 -44t17.5 -43t32 -33t47.5 -13q32 0 60 19t50 49.5t39 68.5t28 77t16.5 74 t5.5 59q0 16 -4 34t-13.5 35t-24.5 28t-36 11q-33 0 -62 -17t-54 -44t-45 -62t-33.5 -71t-21 -69t-7.5 -59z" />
<glyph unicode="A" horiz-adv-x="1081" d="M37 -8v32q26 6 43.5 9t31.5 9t25 20t23 42l391 864l14 -2l326 -788q7 -18 13.5 -35t14.5 -34t18.5 -32t24.5 -28q26 -25 74 -25q-2 -3 -2 -5.5v-6.5v-20q-24 2 -45 4t-42.5 2.5l-43 1t-45.5 0.5t-42.5 -0.5t-36 -1t-35.5 -2.5t-40 -4q-2 3 -2 6v6v20q26 0 52.5 5t50.5 16 q9 4 14 11.5t6 16t-0.5 18t-5.5 19.5l-84 208h-407h2q-4 -10 -13 -29t-20 -43t-23 -50t-22 -50t-16 -42t-6 -26q0 -20 12 -30t30 -14.5t39 -6t39 -3.5q-2 -3 -2 -5.5v-6.5v-20q-38 4 -76 6t-80 2t-79 -2t-76 -6zM346 368h366l-178 437z" />
<glyph unicode="B" horiz-adv-x="848" d="M72 934v30q29 -2 50.5 -3t42 -2t42 -1h51.5q62 0 121 2t119 4q49 0 93.5 -9t78.5 -31.5t54 -59t20 -90.5q0 -47 -18 -84.5t-47.5 -66.5t-69 -47t-83.5 -27l-44 -9l46 -2q53 -2 100 -15t82.5 -40.5t55.5 -70.5t20 -103q0 -46 -14 -89t-39 -79.5t-61 -66t-80 -48.5 q-44 -20 -94 -29q-35 -6 -72 -6q-16 0 -33 1q-19 2 -41 4t-45 2.5t-45 1t-41 0.5q-18 0 -30.5 -0.5t-24.5 -1t-24 -2.5q-14 -2 -32 -4q-2 3 -2 6.5v7.5v22q22 6 36 15t21.5 22t10 29t2.5 35l6 674q0 34 -5 59t-18 41t-35 23.5t-54 7.5zM268 56h4q12 -2 32 -5t42 -4.5 t46 -2.5t44 -1q56 0 102 16.5t78 48.5t50 78.5t18 104.5q0 59 -17 101t-52.5 68t-87.5 38q-51 12 -119 12h-136zM272 559l4 -2q12 -2 29 -3t35 -1.5t34 -0.5q18 1 30 1q46 0 89 10.5t77 33t54.5 59.5t20.5 90q0 52 -17.5 85t-48 53t-70 28t-83.5 8q-14 0 -33.5 -1t-39 -3.5 t-38.5 -5.5t-31 -7q-6 -26 -8 -53.5t-2 -55.5z" />
<glyph unicode="C" horiz-adv-x="985" d="M51 484q0 80 19.5 148t55 124t84 99t107 72t124 43.5t135.5 14.5q46 0 91 -5t90 -13.5t88.5 -20.5t86.5 -24q-11 -50 -16.5 -100t-12.5 -101h-33q0 33 1.5 56t-3 41t-18 33t-43.5 31q-22 12 -46 22t-51.5 17t-60.5 11t-71 4q-88 0 -164 -30t-133 -85t-89 -133t-32 -174 v-16q0 -62 14 -118q16 -64 46 -117t73 -95t97.5 -72t118 -45.5t134.5 -15.5q76 0 148.5 22t136.5 64l8 -9l-28 -59q-33 -18 -73.5 -33.5t-82.5 -26t-82.5 -16t-73.5 -5.5q-77 0 -147.5 14.5t-131.5 44t-111 72.5t-85 100t-53 127q-17 66 -17 145v9z" />
<glyph unicode="D" horiz-adv-x="1077" d="M58 938v6v20q34 -2 61 -3l54 -2t54.5 -1h61.5q70 0 137 2t135 4q98 0 183.5 -28t149.5 -82t100 -134t36 -182q0 -84 -20 -159t-56 -138t-88 -112t-117 -82t-140 -47q-52 -10 -109 -10q-24 0 -50 2q-24 2 -50 3.5t-53 2.5t-53 1.5t-50 0.5q-23 0 -40 -0.5t-32.5 -1 t-32.5 -2.5t-39 -4q-2 3 -2 6v6v20q18 4 32.5 10t24 16t14.5 25t5 37l6 672q0 48 -4 77.5t-16.5 45t-36 20.5t-63.5 5q-2 3 -2 6zM264 135q0 -18 1 -39.5t5 -39.5q20 -1 43 -2.5t46 -3.5t45 -3.5t38 -1.5h21q77 1 139 13q70 14 124 43t92 71t62 93t35 109.5t11 121.5 q0 113 -31.5 191.5t-87.5 128.5t-133.5 73t-169.5 23q-60 0 -116 -2.5t-112 -6.5q-4 -32 -5 -63t-1 -62z" />
<glyph unicode="E" horiz-adv-x="848" d="M62 932v32q32 -2 60.5 -3l57 -2t57.5 -1h60q33 0 63 1l60 2t63 2t70 1h66.5t62.5 -0.5t55 -2t43 -3.5q-6 -18 -9 -33.5t-5.5 -31t-4 -32.5t-3.5 -35q-2 -20 -3 -38t-1 -38h-33l-1 9q-1 9 -2 23t-2.5 31t-4 32t-6 27t-7.5 15q-3 2 -14.5 4t-29.5 4.5t-39 5t-43.5 4.5 t-44 3.5t-39.5 1.5q-52 0 -99.5 -3.5t-95.5 -3.5q-4 -32 -6.5 -62.5t-2.5 -60.5l-4 -266q76 0 132 -1q19 0 36 -1q34 0 60 2q40 2 65 7t39 18t19.5 35t5.5 57h15q6 0 10 1q6 1 10 1l-2 -315h-35q0 39 -4.5 64t-17.5 40.5t-37 22.5t-64 10q-30 2 -68 2h-28q-56 -1 -136 -1 l-2 -276q0 -18 1 -39t2 -39.5t3 -31.5q2 -12 5 -14q1 -2 12 -3.5t29 -2t40 -1t44.5 -0.5h44h37.5q20 0 44 0.5t49 2.5t49 4t43.5 5t32 7t15.5 8q6 12 9.5 28t6.5 35t6 40t7 42h36q-4 -23 -9 -49q-5 -28 -5 -60l-2 -112q-18 -3 -43.5 -5t-55 -2.5t-62.5 -0.5q-11 0 -22 -1 l-44 1q-62 2 -123.5 5t-128.5 3q-32 0 -60.5 -0.5t-56.5 -1t-56 -2.5t-58 -4q-2 2 -2 12v22q26 0 48 7t38.5 23t26 41t9.5 61l6 643q0 40 -2.5 65t-15 38.5t-39.5 19.5t-75 8z" />
<glyph unicode="F" horiz-adv-x="798" d="M53 -8v34q48 2 75.5 8t40.5 20t16 38q3 26 3 66l6 643q0 40 -2.5 65t-15 38.5t-39.5 19.5t-75 8v32q32 -2 60.5 -3l57 -2t57.5 -1h60q66 0 129 2q64 2 127 4h66h32h31q30 0 55 -2t43 -4q-11 -36 -16 -66q-6 -30 -6 -66q0 -20 -2 -38t-2 -38h-33q0 20 -1.5 36.5t-4.5 33 t-7 33t-7 34.5q-26 8 -52.5 12.5t-53.5 7t-54 3t-53 0.5h-50t-52 -1t-50 -2t-43 -4q-5 -20 -7 -43.5t-2 -52.5l-4 -293q62 0 114 -1h33q31 0 55 1q50 0 80 4t47 17t22.5 36t5.5 60h15q6 0 10 1q6 1 10 1l-2 -315h-35q0 44 -4.5 71t-20 42t-46.5 20t-85 5h-199l-2 -298 q0 -40 3 -65t16 -39t39 -20t74 -8v-12q0 -6 1 -12t1 -10q-26 2 -49 4t-45 2.5t-44 1.5h-48q-25 0 -46.5 -0.5t-41.5 -1t-40.5 -2.5t-44.5 -4z" />
<glyph unicode="G" horiz-adv-x="1063" d="M51 477q0 119 40.5 213t114 160t176.5 100q102 35 228 35q46 0 91.5 -5t90 -13.5t88.5 -20.5l88 -24q-10 -50 -17 -100t-13 -101h-30q3 19 3 36q0 21 -5 39q-8 32 -27 56t-48.5 40t-64.5 26t-74.5 14t-79.5 4q-68 0 -127.5 -14t-110 -41t-90.5 -64.5t-67.5 -85 t-42 -103.5t-14.5 -118q0 -108 31.5 -197.5t92 -154t147.5 -100.5t197 -36q40 0 80 4t72.5 12t54 19t25.5 27q4 10 6 29t2.5 41.5t0 46t-1.5 44.5t-2 36t-1 20v2q-3 13 -14.5 19t-31.5 9t-48 4t-64 3q-2 3 -2 6v6v20h294v-26q-26 -4 -39 -20t-17 -39t-2 -53l4 -60l6 -129 q-8 -2 -14 -4l-12 -4l-12 -4q-6 -3 -15 -5q-33 -10 -72 -19.5t-79 -17.5t-80 -12.5t-74 -4.5q-78 0 -148 13t-131 41t-110 69.5t-83 97.5t-52 127q-17 67 -17 148v9z" />
<glyph unicode="H" horiz-adv-x="1159" d="M53 -8v34q48 2 75.5 8t40.5 20t16 38q3 26 3 66l6 643q0 40 -2.5 65t-15 38.5t-39.5 19.5t-75 8v32q24 -2 45 -3l42 -2t43 -1h46h47.5t43 1t43.5 2t46 3v-12q0 -5 1 -10.5t1 -9.5q-48 -2 -75.5 -8t-41 -19.5t-16.5 -38t-3 -65.5l-2 -265h605l2 265q0 40 -3 65t-15.5 38.5 t-39.5 19.5t-73 8q-2 3 -2 6v6v20q24 -2 45 -3l42 -2t43 -1h46h48t44 1l44 2t46 3v-32q-48 -2 -75 -8t-40.5 -19.5t-16.5 -38t-3 -65.5l-6 -643q0 -40 2.5 -65t15.5 -39t40 -20t75 -8v-34q-24 2 -46.5 4t-44 2.5t-43.5 1.5h-48q-24 0 -46 -0.5t-42.5 -1t-41 -2.5t-44.5 -4 q-2 3 -2 6.5v7.5v20q48 2 75 8t40 20t16 38q3 26 3 66l2 330h-604l-2 -330q0 -40 3 -65t16 -39t39 -20t74 -8v-12q0 -6 1 -12t1 -10q-26 2 -48 4t-43.5 2.5t-43.5 1.5h-47q-24 0 -46 -0.5t-43 -1t-42.5 -2.5t-45.5 -4z" />
<glyph unicode="I" horiz-adv-x="463" d="M53 -8v34q48 2 75.5 8t40.5 20t16 38q3 26 3 66l6 643q0 40 -2.5 65t-15 38.5t-39.5 19.5t-75 8v32q24 -2 45 -3l42 -2t43 -1h46h47.5t43 1t43.5 2t46 3v-12q0 -5 1 -10.5t1 -9.5q-48 -2 -75.5 -8t-41 -19.5t-16.5 -38t-3 -65.5l-6 -643q0 -40 3 -65t16 -39t39 -20t74 -8 v-12q0 -6 1 -12t1 -10q-26 2 -48 4t-43.5 2.5t-43.5 1.5h-47q-24 0 -46 -0.5t-43 -1t-42.5 -2.5t-45.5 -4z" />
<glyph unicode="J" horiz-adv-x="459" d="M-20 -172h2l2 2l3 3t3 1q12 -7 21 -12t18 -8.5t19 -4.5t24 -1q28 0 48 12t33.5 31t20 43t6.5 48l8 859q0 40 -3 65t-15.5 38.5t-39 19.5t-72.5 8q-2 3 -2 6v6v20q24 -2 45 -3l42 -2t43 -1h48h46t43 1t43 2t46 3v-12q0 -5 1 -10.5t1 -9.5q-48 -2 -75.5 -8t-41 -19.5 t-16.5 -38t-3 -65.5l-6 -641q0 -34 2 -73q1 -11 1 -22q0 -29 -4 -58q-5 -41 -21 -83q-16 -43 -50 -86q-26 -32 -53.5 -53t-56.5 -34t-57 -18q-27 -5 -53 -5v100z" />
<glyph unicode="K" horiz-adv-x="1009" d="M53 -8v34q48 2 75.5 8t40.5 20t16 38q3 26 3 66l6 643q0 40 -2.5 65t-15 38.5t-39.5 19.5t-75 8v32q24 -2 45 -3l42 -2t43 -1h46h47.5t43 1t43.5 2t46 3v-12q0 -5 1 -10.5t1 -9.5q-48 -2 -75.5 -8t-41 -19.5t-16.5 -38t-3 -65.5l-4 -328l25 17q30 20 54.5 40t48.5 46 l332 308q8 8 13 18.5t7 20.5t3 20.5t1 18.5q14 0 26 -0.5t23 -1t23 -1.5t26 -1q58 0 113 6v-32q-32 -2 -53 -5t-38.5 -9t-33.5 -17t-39 -31l-391 -350l452 -428q13 -12 24.5 -24t24.5 -21t28 -15t36 -6v-12q0 -6 1 -12t1 -10q-23 4 -46 6t-46 2q-12 0 -18.5 -0.5l-13 -1 t-13.5 -2.5q-6 -2 -18 -4q-11 17 -26.5 29.5t-29.5 25.5l-448 426l-48 -29l-2 -286q0 -40 3 -65t16 -39t39 -20t74 -8v-12q0 -6 1 -12t1 -10q-26 2 -48 4t-43.5 2.5t-43.5 1.5h-47q-24 0 -46 -0.5t-43 -1t-42.5 -2.5t-45.5 -4z" />
<glyph unicode="L" horiz-adv-x="848" d="M60 932v32q24 -2 45 -3l42 -2t43 -1h46h47.5t43 1t43.5 2t46 3v-12q0 -5 1 -10.5t1 -9.5q-48 -2 -75.5 -8t-41 -19.5t-16.5 -38t-3 -65.5l-6 -689l2 -56l50 -3q24 -1 44 -1.5l40 -1t40 -0.5q22 -1 46 -1q38 0 67 2t54 5.5t47 8t46 11.5l4 8t3 8q3 6 6 13.5t4 15.5l33 115 l34 -2q-2 -13 -3.5 -24.5t-3 -22.5t-3.5 -22t-4 -23q-5 -20 -5.5 -44t-4.5 -47q-2 -12 -3 -24.5t-3 -26.5q-36 -6 -86 -8q-25 -1 -52.5 -1t-57.5 1q-60 2 -119 5t-121 3q-30 0 -57 -0.5l-54 -1t-54 -2.5t-57 -4v34q24 6 39.5 18t24 31.5t11.5 49t3 69.5l6 607q0 27 -0.5 47 t-4 34t-12 23t-23 14.5t-37.5 8t-55 4.5z" />
<glyph unicode="M" horiz-adv-x="1319" d="M39 -1.5v7.5v20h19q32 0 54 4t35.5 15t20 31t6.5 51l6 705q0 32 -6 51t-20 30t-36 15q-20 4 -52 4h-19v32q64 -6 129 -6h27.5t22 1t21.5 2t27 3l373 -804l307 620q23 48 42 92t36 92q16 -2 29 -3t26.5 -2t27.5 -1h30h34.5t37.5 1l38 2t35 3v-32h-16q-31 0 -55.5 -4 t-41 -15t-25.5 -31q-9 -18 -9 -50l-7 -674q0 -40 2 -65t14.5 -39t39.5 -20q26 -6 76 -8v-34q-24 2 -46 4t-43.5 2.5t-43.5 1.5h-47q-24 0 -46 -0.5t-43 -1t-42 -2.5t-45 -4v34q48 2 75 8t39.5 20t15.5 38q2 26 2 66l6 696l-417 -872h-7l-390 842l-6 -697q0 -32 6 -51.5 t20 -30.5t36.5 -15t55.5 -4h16v-34q-42 4 -81 6t-80 2q-42 0 -81 -2t-81 -6q-2 3 -2 6.5z" />
<glyph unicode="N" horiz-adv-x="1157" d="M33 -8v34h16q33 0 56 4t37 15t20 31t6 51l6 705q0 32 -5.5 51t-18 30t-32.5 15t-50 4h-15v32q62 -6 117 -6h22.5t11 1t11.5 2t23 3l682 -843l6 711q0 32 -6 51t-20 30t-36 15t-53 4h-19v32q42 -3 82 -4.5t82 -1.5q83 0 160 6v-12q0 -5 1 -10.5t1 -9.5h-18q-33 0 -56.5 -4 t-37.5 -15t-20 -31q-7 -18 -7 -50l-6 -814l4 -40l-74 12l-675 836l-7 -699q0 -32 6.5 -51.5t20.5 -30.5t36.5 -15t55.5 -4h18v-34q-42 4 -81 6t-81 2t-82 -2t-81 -6z" />
<glyph unicode="O" horiz-adv-x="1093" d="M51 484q0 108 34.5 199t100.5 158.5t161 105.5t216 38q112 0 202.5 -31t153.5 -91.5t97 -149t34 -203.5q0 -74 -18 -143t-51 -129t-80 -109t-105.5 -84t-127 -54t-144.5 -19q-71 0 -133.5 16t-115.5 46t-95.5 74.5t-71.5 101.5q-30 56 -44 125q-14 65 -13 139v10z M162 530q0 -61 10.5 -122.5t32 -119t55 -107t79 -85.5t103.5 -56q53 -18 115 -18h13q60 2 110 18t91 43.5t72 66t53 84.5t33 100t13 112v15q0 95 -24 179q-26 90 -77 156t-127 103t-174 37q-92 0 -162.5 -31t-118.5 -85t-72.5 -128t-24.5 -162z" />
<glyph unicode="P" horiz-adv-x="839" d="M53 -8v34q48 2 75.5 8t40.5 20t16 38q3 26 3 66l6 643q0 40 -2.5 65t-15 38.5t-39.5 19.5t-75 8v32q30 -2 57 -3l54 -2t55 -1h58q32 0 60 1l56 2t55.5 2t58.5 1q35 0 69.5 -5t66.5 -15t59 -27t47 -41t31.5 -54.5t11.5 -69.5q0 -64 -24.5 -117.5t-66 -91.5t-98 -60 t-120.5 -24q-26 -2 -49 1.5t-37 8.5q-2 3 -2 6t-2 9t-4.5 13t-4.5 11q17 -4 38 -7t44 -3h11q40 0 76 13q41 15 72.5 43t49.5 66t18 84q0 56 -18.5 97t-52 67.5t-78.5 40t-99 13.5q-18 0 -38 -2t-40 -4.5t-40 -6t-37 -6.5l-4 -2q-8 -20 -9.5 -43.5t-1.5 -56.5l-6 -643 q0 -40 3 -65t16 -39t39 -20t74 -8v-12q0 -6 1 -12t1 -10q-26 2 -48 4t-43.5 2.5t-43.5 1.5h-47q-24 0 -46 -0.5t-43 -1t-42.5 -2.5t-45.5 -4z" />
<glyph unicode="Q" horiz-adv-x="1093" d="M51 479q0 72 16 137.5t46.5 121.5t75.5 102t101.5 78t125 49.5t147.5 17.5q112 0 202.5 -31.5t153.5 -92.5t97 -150t34 -205q0 -72 -17 -138t-49 -124.5t-77 -107t-99 -83.5t-116 -56t-130 -23q14 -3 29 -7t38 -12t57 -21q35 -12 90 -34q40 -16 76 -27.5t70 -17.5 q31 -6 63 -6q3 0 5 1q35 0 71 8v-26q-26 -14 -49.5 -29t-49.5 -33h-12q-4 0 -22 5.5t-46 14t-63 19.5t-73 22t-76.5 22t-73 19.5t-63.5 14t-47 5.5q-2 0 -8 -2.5t-12 -6t-12 -6.5l-8 -4l-78 -45q1 9 2.5 17.5t1.5 17.5q38 29 77 54t79 48q5 3 9 5t7 4h-20q-110 2 -198 37 t-150 100t-95 158q-30 85 -30 191v19zM154 526q0 -62 11 -122.5t33.5 -116.5t57 -103.5t80.5 -83.5t104 -56q60 -20 130 -20q62 0 114 17t93.5 46t73 70t52.5 89.5t32 103.5t11 113q0 102 -27 187t-79 147t-128 97q-76 36 -172 38h-11q-86 0 -153 -29q-72 -31 -121.5 -86 t-75 -130t-25.5 -161z" />
<glyph unicode="R" horiz-adv-x="927" d="M53 -8v34q48 2 75.5 8t40.5 20t16 38q3 26 3 66l6 643q0 40 -2.5 65t-15 38.5t-39.5 19.5t-75 8v32q30 -2 57 -3t53 -2t53 -1h57h60t56 1t55.5 2t58.5 3h16q62 0 108 -14q52 -16 86 -44t50 -67t16 -83q0 -55 -23 -99.5t-61 -78t-86 -56t-96 -34.5l-8 -2l316 -418 q8 -12 18 -19t20 -11t21 -7t21 -5q-2 -3 -2 -5.5v-6.5v-22q-12 2 -21 4t-17 2.5t-16 1.5h-20t-21 -0.5t-17.5 -1t-18 -2.5t-21.5 -4q-17 23 -29 42q-13 18 -25 36l-330 428l5 16h28.5h25.5t26 1t29 3q39 6 75.5 23.5t65.5 44t46 60.5t17 73t-10 69t-27 52.5t-40 38t-49 25 t-54 14.5q-28 4 -54 4q-19 0 -40.5 -2t-42.5 -4t-40 -5.5t-34 -7.5l-4 -2q-8 -20 -9.5 -43.5t-1.5 -56.5l-6 -643q0 -40 3 -65t16 -39t39 -20t74 -8v-12q0 -6 1 -12t1 -10q-26 2 -48 4t-43.5 2.5t-43.5 1.5h-47q-24 0 -46 -0.5t-43 -1t-42.5 -2.5t-45.5 -4z" />
<glyph unicode="S" horiz-adv-x="727" d="M43 26q4 39 7 84q3 44 3 86v36h39v-62q0 -23 3 -44.5t17 -33.5q22 -19 49 -31.5t56 -20.5t59 -11t58 -3q32 0 64 7t61.5 19t55 31t44.5 43t30 54t11 66q-1 54 -17.5 90t-43.5 58.5t-63 34t-76 17.5t-82 10t-82 11t-74.5 19.5t-60 36t-39.5 61.5q-13 35 -13 86v8 q2 70 28.5 127t70.5 97t104 61.5t127 21.5q34 0 67.5 -5.5t66.5 -14t66 -20t66 -23.5q-8 -46 -12.5 -91t-10.5 -91h-38q1 18 1 34t-1 30q-2 28 -12 46q-14 22 -39 38t-54 25.5t-59 14t-56 4.5q-44 0 -85 -15t-74 -42t-52.5 -64.5t-19.5 -83.5q0 -50 16 -84t42.5 -55.5 t62.5 -33.5t75.5 -19.5t82 -12.5t82 -12t75 -18.5t62 -33t42 -54t15.5 -82.5q0 -60 -16 -109t-45 -88t-68 -68t-85 -48t-96 -28t-102 -9q-62 0 -119 14t-114 40z" />
<glyph unicode="T" horiz-adv-x="852" d="M51 962q50 0 96.5 -1t93 -1t94 -1t99.5 -1h97t93 1t93.5 2t99.5 3q-6 -76 -6 -145q0 -18 -1.5 -35.5t-2.5 -35.5q-3 -2 -6 -2h-7h-20l-14 104q-2 14 -6 23t-10 14.5t-15 7.5t-21 2l-224 6q-5 -36 -6.5 -69.5t-2.5 -75.5l-4 -600q0 -40 3 -65t15.5 -39t38.5 -20 q27 -6 74 -8v-34q-24 2 -46 4t-43 2.5t-43 1t-48 0.5t-47 -0.5t-41.5 -1t-41 -2.5t-44.5 -4q-2 3 -2 6.5v7.5v20q48 2 75 8t40.5 20t16.5 38q3 26 3 66l4 600q1 42 1 76v6q0 31 -5 63l-221 -6q-12 0 -21 -2t-15 -7.5t-11 -14.5t-7 -23l-16 -102q-3 -2 -6 -2h-6h-20 q0 20 -1 37t-1 36v71.5t-5 71.5z" />
<glyph unicode="U" horiz-adv-x="1081" d="M47 938v6v20q24 -2 45.5 -3t42 -2t42 -1h46.5h48t43.5 1t43.5 2t46 3v-12q0 -5 1 -10.5t1 -9.5q-48 -2 -75.5 -8t-41 -19.5t-16.5 -38t-3 -65.5l-4 -489q0 -73 16.5 -124.5t53 -84.5t95.5 -47.5t143 -14.5q33 0 67.5 5.5t66.5 18.5t60 34t49 51q18 24 29 51t17.5 57 t8.5 62t2 65l4 447q0 32 -6 51t-19.5 30t-35 15t-53.5 4h-16v32q84 -6 162 -6q82 0 161 6v-12q0 -5 1 -10.5t1 -9.5h-19q-33 0 -55.5 -4t-37 -15t-21.5 -31q-6 -18 -6 -50l-4 -518q0 -28 -4 -54t-12 -51t-20 -49t-28 -48q-24 -39 -63 -65.5t-84 -43.5t-93 -24t-92 -7 q-78 0 -144 16t-113.5 54t-74 100.5t-26.5 156.5l4 502q0 40 -3 65t-16 38.5t-39 19.5t-73 8q-2 3 -2 6z" />
<glyph unicode="V" horiz-adv-x="1003" d="M37 932v32q22 -2 41.5 -3t38.5 -2t39 -1h44h44t39 1t39 2t44 3v-32q-47 0 -72.5 -5t-36.5 -13.5t-11 -19t4 -20.5l278 -743l264 659q7 20 14.5 38.5t11 35t1 29.5t-15.5 22t-38 14q-18 4 -44 4q-11 0 -23 -1q-2 3 -2 6v6v20q74 -6 148 -6q72 0 145 6v-32q-32 2 -51.5 -7 t-31.5 -24.5t-19 -36.5t-17 -43l-340 -833h-44l-328 848q-10 28 -16 46t-15 29t-24 16t-43 5h-23z" />
<glyph unicode="W" horiz-adv-x="1392" d="M53 932v32q22 -2 40.5 -3t36.5 -2t37 -1h42h40.5t36.5 1l36 2t40 3v-32q-32 2 -53 -1t-33 -11t-17.5 -18.5t-6.5 -23t1.5 -25.5t4.5 -25l140 -644l310 789h4l273 -797l187 662q4 12 6 24.5t2 24t-6 20.5t-19 16t-35.5 9t-56.5 0v32q70 -6 141 -6q74 0 142 6v-12 q0 -5 1 -10.5t1 -9.5q-20 0 -35 -1t-25 -7t-17 -17t-13 -31l-212 -676l-57 -212h-29l-98 286l-176 488l-254 -633l-51 -141h-29q-8 34 -15 69t-15 72l-160 723q-6 24 -13 40t-18 25t-27 12t-42 3h-9z" />
<glyph unicode="X" horiz-adv-x="925" d="M37 -8v34q29 0 47 6t30.5 17t23 27t26.5 36l270 363l-174 289q-19 29 -37.5 56.5t-40.5 47.5t-50 30q-21 8 -46 8q-10 0 -20 -1q-2 4 -2 6.5v6.5v18q40 6 73 12q14 2 28.5 5t26.5 5t21 4t13 2q12 -6 22 -14t18 -19t16 -23q8 -14 17 -26l180 -306l267 382h132v-32 q-27 0 -44 -6t-29 -14t-20.5 -19t-16.5 -21l-264 -338l268 -430q12 -19 20 -32.5t18.5 -22t25.5 -13.5q14 -4 40 -4h8v-32q-24 0 -48 3q-26 3 -50 3q-12 0 -19 -0.5t-13.5 -1t-14 -2.5t-20.5 -4l-256 438q-5 -7 -10 -14.5t-12 -17.5l-17.5 -25t-26 -36.5t-36.5 -52 t-50 -72.5t-67 -96t-86 -124q-8 2 -14 4t-12 2.5l-12 1t-16 0.5q-17 0 -33.5 -2t-33.5 -6z" />
<glyph unicode="Y" horiz-adv-x="925" d="M37 914v30l123 29q8 2 14 2q5 0 10 -1q10 -3 17 -9.5t13 -16.5q8 -8 16 -20q6 -8 12 -17t17 -27t28 -47.5t45 -78t67 -120.5t95 -173l149 235q42 66 79 132l72 132h107v-14q-30 -34 -63.5 -75t-67 -86t-66.5 -91.5t-62 -90.5t-52.5 -83.5t-38.5 -71.5 q-12 -30 -16.5 -55.5t-4.5 -50.5l-2 -188q0 -27 1 -47t5 -34.5t12 -23t23 -14t37 -8.5t54 -5v-12q0 -6 1 -12t1 -10q-26 2 -48 4t-43.5 2.5t-44 1t-47.5 0.5q-24 0 -45.5 -0.5t-42.5 -1t-41.5 -2.5t-44.5 -4q-2 3 -2 6.5v7.5v20q48 2 75.5 8t40.5 20t16 38q3 26 3 66l2 204 q0 11 -1 23q-1 13 -7 25l-166 292q-11 20 -25 43.5t-31 47.5t-36.5 46.5t-41.5 39.5t-46 27t-49 8z" />
<glyph unicode="Z" horiz-adv-x="925" d="M39 -8v36l692 882h-100q-80 0 -158.5 -2t-156.5 -5q-34 -1 -58 -3t-39 -6t-23 -10t-12 -15t-5 -21t-3 -27l-10 -77h-33q5 30 7 55t2 55q0 28 -2 55t-5 55h741v-36l-20 -20l-674 -855l375 -4q24 0 52.5 -0.5t57.5 0.5t57 5t52 12q12 4 19 11.5t12 19t8 26.5t6 35l13 78h34 l-2 -29l4 -215q-110 4 -216 6t-216 2q-56 0 -105 -1t-97 -2t-96 -3t-101 -2z" />
<glyph unicode="[" horiz-adv-x="459" d="M131 -160q0 22 1.5 48.5t3.5 58t4 67t2 74.5l6 678q0 79 -4 141.5t-2 106.5l2 4q18 -2 32 -3.5t27 -2t27 -0.5h32h32t27.5 0.5t28 2t31.5 3.5l4 -4v-31l-6 -4h-47q-20 0 -38 -1.5t-32 -7t-23 -15t-9 -23.5q-1 -18 -2.5 -39.5t-2.5 -44t-1.5 -43.5t-0.5 -39l-6 -678v-39 t0.5 -43.5t0.5 -44t1 -39.5q0 -14 8.5 -23t23 -14.5t33.5 -7.5q20 -2 40 -2h46l5 -6v-29l-5 -4q-18 2 -32 3.5t-27 2t-27 0.5h-32h-31.5t-27 -0.5t-27 -2l-31.5 -3.5z" />
<glyph unicode="\" horiz-adv-x="841" d="M137 1018h70l508 -1018h-72z" />
<glyph unicode="]" horiz-adv-x="459" d="M82 -131l4 6h47q21 0 39.5 2t32.5 7.5t22.5 14.5t8.5 23q2 18 3.5 39.5t2 44t1.5 43.5t1 39l6 678v39t-1 43.5t-2 44t-1 39.5q-1 14 -9.5 23.5t-23 15t-33 7t-38.5 1.5h-46l-4 4v31l4 4q18 -2 32 -3.5t27.5 -2t28 -0.5h31.5h31.5t26.5 0.5t27 2t32 3.5l4 -4 q-2 -44 -6 -106.5t-4 -141.5l-6 -678q0 -79 3 -141.5t3 -106.5l-4 -4q-18 2 -32 3.5t-27 2t-27 0.5h-31h-32t-27.5 -0.5t-27.5 -2t-32 -3.5l-4 4v29z" />
<glyph unicode="^" horiz-adv-x="841" d="M94 467l297 541h78l285 -541h-66l-260 471l-266 -471h-68z" />
<glyph unicode="_" d="M0 -164h692v-57h-692v57z" />
<glyph unicode="`" horiz-adv-x="459" d="M37 922q0 16 7.5 24t18.5 11t23 -1t20 -12q7 -7 14 -15q6 -7 13 -15l170 -168h-21l-200 122q-8 4 -16 10t-14 12t-10.5 14t-4.5 18z" />
<glyph unicode="a" horiz-adv-x="671" d="M60 150q0 40 9.5 69.5t27 51t41.5 37t52 26t60 18.5t64 14l153 30v4q0 42 -8.5 77.5t-29.5 61.5t-57 40.5t-90 14.5q-30 0 -55.5 -10t-50.5 -27q-10 -16 -21 -38.5t-22 -53.5l-31 10v39.5t1 26t3 15.5q0 6 6 9q22 13 48 28t53 27t55 20.5t54 8.5q70 0 113.5 -21.5 t67 -59.5t31.5 -87.5t8 -105.5l-2 -263q0 -28 6 -45.5t17.5 -27t28 -13.5t39.5 -4v-10q0 -5 1 -10.5t1 -9.5q-13 2 -23 4t-20 2.5t-19.5 1t-21.5 0.5q-13 0 -23 -0.5l-20 -1t-21 -2.5t-26 -4q4 20 4 36v30l2 73l-179 -129q-9 -7 -14.5 -11.5t-10.5 -7.5t-11 -4t-18 -1 q-37 0 -68.5 10.5t-54.5 32t-36 53.5t-13 76zM137 150q0 -106 125 -107q22 0 42.5 8.5t39 20.5t35.5 26t33 25q13 10 28 21t25 24l2 192q-27 -4 -54.5 -9t-53 -11t-49.5 -12t-42 -12q-39 -14 -64.5 -34t-40.5 -42t-21 -46q-5 -22 -5 -44z" />
<glyph unicode="b" horiz-adv-x="766" d="M24 926v34q27 4 49.5 7.5t44.5 7.5t45 10.5t52 16.5q0 -4 2 -9t2 -16l-8 -209l-4 -280q30 35 59 64t59 49.5t63 32t73 11.5q62 0 108.5 -21.5t77.5 -59t46 -88t15 -108.5q0 -33 -4 -67t-14.5 -66.5t-27 -62t-40.5 -53.5q-22 -16 -46 -35.5t-50 -38t-55 -34t-59 -23.5 q-18 -2 -32.5 -3t-31.5 -1q-24 0 -44 2.5t-39 8.5t-37 15q-18 10 -36 23l-2 2l-55 -51l-16 6q0 14 3 27t3 30l8 164l4 635q0 24 -10.5 39t-27.5 24t-37 13t-38 4zM205 125q12 -20 35.5 -35t51.5 -25t56 -15t48 -5q59 0 102.5 24.5t72.5 64t43 90t14 100.5q0 52 -10 98 t-34 80.5t-61 55t-91 20.5q-32 0 -67 -13.5t-66 -35t-54.5 -47.5t-33.5 -52l-3 -9t-1 -9z" />
<glyph unicode="c" horiz-adv-x="614" d="M58 293q0 42 7.5 81.5t24.5 77.5q8 19 23.5 39.5t35.5 40.5t43.5 38.5t47.5 33t48 24.5t46 13q20 4 42 6t40 2q24 0 43.5 -2.5t38 -6.5t37.5 -11.5t43 -16.5q-3 -16 -6 -31t-5.5 -35.5t-5 -47t-4.5 -62.5h-29q-2 26 -3 43t-3 28t-4 17l-4 12q-6 16 -20.5 26t-35 16 t-44.5 8t-48 2q-58 0 -100.5 -17t-70 -49t-41.5 -77t-14 -99q0 -84 22.5 -143t61 -97t89.5 -55.5t107 -17.5q36 0 70 12.5t73 30.5l5 -4q4 -4 4 -6q-2 -6 -6 -11.5t-7 -11t-6.5 -10.5t-5.5 -11q-28 -13 -53 -22.5t-48.5 -15.5t-46.5 -9t-47 -3q-58 0 -111 21t-94 62t-65 101 t-24 137z" />
<glyph unicode="d" horiz-adv-x="848" d="M66 303q0 24 3 49t10 49.5t18 48.5t26 44q14 18 33.5 37t43 36t50 32t53.5 26t53 17.5t50 6.5t46.5 -4.5t46 -11.5t47.5 -17t50 -22l2 252q0 24 -11 39t-27 24t-36 13t-38 4v32q28 4 51 8t45 9.5t45 13t51 17.5q0 -4 2 -11t2 -14l-8 -213l-6 -654q0 -24 4 -41t15 -28.5 t29 -17t44 -5.5h20v-30q-14 2 -26 4t-23 2.5t-23 1t-26 0.5t-26 -0.5t-22.5 -1t-22 -2.5t-25.5 -4q5 23 5.5 39.5t0.5 34.5v80l-176 -150q-12 -4 -25 -7t-37 -3q-73 0 -127.5 24t-90.5 66t-54 100q-16 52 -16 113v14zM144 332q0 -33 6 -66t18 -63.5t30 -57t43 -46t56 -30.5 t69 -11q28 0 53 6.5t46 18.5t39 28q18 17 32 35q30 38 44 81t14 91l2 174q-22 22 -48 41t-55 32t-58 21t-58 8q-56 0 -98.5 -19t-72.5 -53.5t-46 -83t-16 -106.5z" />
<glyph unicode="e" horiz-adv-x="663" d="M60 297q0 24 2 57.5t13.5 70.5t36.5 75q24 40 68 74q21 16 42.5 29t45 23.5t47.5 16.5q23 6 49 6q52 0 97 -17.5t78 -50t51 -79t18 -104.5q0 -14 -1 -30.5t-3 -32.5q-31 -3 -59.5 -5t-56 -3.5t-56 -2t-60.5 -0.5h-224v-6q0 -62 14 -114t45.5 -90t80 -59.5t116.5 -21.5 q26 0 50.5 6.5t49 16t46.5 21.5q23 11 44 23l10 -10l-22 -43q-24 -16 -51 -30t-54 -24t-53 -15q-28 -6 -52 -6q-79 0 -137.5 23t-98.5 66q-38 43 -58 103q-18 54 -18 120v13zM148 370q10 -2 21.5 -2.5t29.5 -1t44 -1t64.5 -1t92.5 -0.5h124v6q0 43 -7 86.5t-27 77.5t-56 55 t-94 21q-48 0 -84 -21t-60 -55t-36 -76t-12 -83v-5z" />
<glyph unicode="f" horiz-adv-x="459" d="M43 -8v30q42 2 66 12t35.5 31t14.5 56t3 86l4 333l-98 -8v23l98 47v62q0 48 4 81t15.5 60t32 53t52.5 60q18 18 33.5 34t32.5 28t37 19t47 7q17 0 31 -1t26 -7v-88q-4 -5 -6.5 -6t-3.5 -1q-20 17 -44 22q-25 5 -51 5q-30 0 -50 -10.5t-33 -28t-20 -40.5t-10.5 -48t-4 -49 t-0.5 -46l-2 -108h182l-6 -60h-176l-2 -333q0 -52 2.5 -87.5t14 -57t33.5 -31t62 -9.5v-10q0 -5 1 -10.5t1 -9.5q-43 4 -80.5 6t-80.5 2q-42 0 -79.5 -2t-80.5 -6z" />
<glyph unicode="g" horiz-adv-x="772" d="M54 -166q3 16 8.5 33t12.5 31t15 20q30 20 57 35t58 33l8 4l-8 4q-16 10 -34.5 22t-31.5 28t-15.5 35t13.5 40q10 14 22.5 25.5t26.5 21.5t28 21q16 11 30 22l10 6l-12 2q-8 2 -23.5 6.5t-33.5 13.5t-36.5 23t-33.5 34t-25 47t-10 63q0 37 12 69.5t33 59.5t49.5 49t63 37 t73 22.5t78.5 7.5q48 0 90.5 -13.5t77.5 -43.5v-2h199l2 -6l-33 -54h-133l2 -6q6 -19 11 -38q5 -20 5 -38q-1 -28 -9.5 -55t-24.5 -52t-41 -47t-58 -40q-42 -24 -89 -36q-31 -7 -62 -7q-17 0 -33 2h-4q-7 -8 -19 -17.5t-24 -19.5t-20.5 -21t-8.5 -24q0 -22 10 -36.5 t25 -22.5t32.5 -11t33.5 -3l204 4q32 0 56 -1t44 -7.5t36 -23t30 -48.5q11 -20 16 -40q4 -18 4 -42q0 -38 -12 -75t-34.5 -70t-55 -61t-73.5 -48.5t-90 -32t-103 -11.5q-64 0 -117 13t-92 38.5t-60 64.5q-20 36 -20 85q0 15 3 31zM131 -178q0 -46 17.5 -81t48 -58.5t70 -35 t83.5 -11.5q58 0 109 17t88 46t58 67.5t21 81.5q0 33 -6 57.5t-24 41.5t-49.5 25t-81.5 8h-191q-27 0 -52.5 -12t-45.5 -33t-32.5 -50t-12.5 -63zM172 440q0 -47 14 -82.5t38 -59.5t56 -36t68 -12q34 0 65 11.5t54 32t37 49t14 61.5q0 38 -10.5 74.5t-32 65t-55.5 45.5 t-80 17q-44 0 -76 -12t-52 -34.5t-30 -53t-10 -66.5z" />
<glyph unicode="h" horiz-adv-x="807" d="M49 -8v30q42 2 66 12t35.5 31t14.5 56t3 86l6 643q0 22 -11 37.5t-28 25t-37 13.5q-18 4 -36 4q-2 2 -2 4.5v5.5v18q28 4 51 7.5t45 8t46 11.5t52 17q0 -4 1 -9t1 -16l-8 -209l-2 -270l131 114q12 12 24.5 19t26.5 11t29 5.5t33 1.5q34 0 66 -16t57 -45.5t40 -70.5 t15 -93l-2 -217q0 -52 1 -86.5t10.5 -55.5t30.5 -31t60 -12v-30q-14 2 -27 4t-26 2.5l-26 1t-27 0.5t-23 -0.5t-16 -1t-14.5 -2.5t-20.5 -4l4 374q0 54 -10 93t-29 63.5t-48 36t-65 11.5q-44 0 -75 -11t-53 -29t-35.5 -41t-21 -46.5t-9.5 -45.5q-2 -23 -2 -39v-151 q0 -52 2 -87.5t14 -57t34 -31t62 -9.5v-10q0 -5 1 -10.5t1 -9.5q-22 2 -40.5 4t-37 2.5t-37.5 1t-40 0.5t-39.5 -0.5l-37 -1t-37.5 -2.5t-40 -4z" />
<glyph unicode="i" horiz-adv-x="399" d="M49 -8v30q43 2 67 12t35.5 31t14 56t2.5 86l2 287q0 22 -11 37t-28 24.5t-37 14.5q-18 4 -36 4v30q27 4 49.5 7t44.5 7t46 10.5t52 16.5q2 -4 3 -9.5t1 -13.5l-10 -210v-205q0 -52 2.5 -87.5t14 -57t33.5 -31t62 -9.5v-10q0 -5 1 -10.5t1 -9.5q-22 2 -40.5 4t-37 2.5 t-37.5 1t-40 0.5t-39.5 -0.5l-37 -1t-37.5 -2.5t-40 -4zM140 889q0 13 5 25t14 21t21 14t25 5q12 0 23.5 -5t21 -14t15 -21t5.5 -25q0 -12 -5.5 -23.5t-15 -20.5t-21.5 -14t-25 -5q-12 0 -23.5 5t-20.5 14t-14 20t-5 24z" />
<glyph unicode="j" horiz-adv-x="370" d="M-20 -360q40 0 68 13t48 35t32 50.5t19 59t10 60.5t3 54l4 582q0 22 -10.5 37t-26.5 24.5t-35.5 14t-38.5 4.5q-2 2 -2 4v6v18q28 4 50.5 7.5t45 8t45.5 10.5q24 7 52 17q1 -4 2.5 -9.5t1.5 -13.5l-8 -210l-4 -442q0 -60 -8 -116q-10 -56 -36 -108q-20 -38 -43 -65 t-50 -45t-55 -26t-56 -8q-2 4 -2 7t-2 8q-2 8 -3 13.5t-1 9.5zM133 893q0 13 5.5 25t14.5 21t21 14t24 5q13 0 24.5 -5t20.5 -14t14 -21t5 -25q0 -12 -5 -24t-14 -21.5t-21 -14.5t-24 -5q-13 0 -24.5 5t-20.5 14.5t-14.5 21t-5.5 24.5z" />
<glyph unicode="k" horiz-adv-x="772" d="M49 -8v30q42 2 66 12t35.5 31t14.5 56t3 86l6 643q0 23 -11 38.5t-28 25.5t-37 14q-18 4 -36 4q-2 2 -2 4.5v5.5v18q28 4 51 7.5t45 7.5t46 10.5t52 16.5q0 -4 1 -9t1 -16l-8 -209l-4 -402l108 84l218 185h130v-29q-22 0 -42.5 -5.5t-41 -15t-39.5 -21.5t-37 -24 q-38 -29 -74.5 -58.5t-78.5 -59.5q-14 -12 -21.5 -17.5t-11.5 -8.5t-6 -5l-6 -6q10 -10 24 -25t39 -41t66 -66.5t105 -100.5q8 -8 18.5 -20t23.5 -25t27.5 -27t28.5 -24t28 -16t27 -5v-9q0 -4 1 -6t1 -6l-41 -12q-17 -4 -31 -10t-20 -8l-395 374v-151q0 -52 2.5 -87.5 t14 -57t33.5 -31t62 -9.5v-10q0 -5 1 -10.5t1 -9.5q-22 2 -40.5 4t-37 2.5t-37.5 1t-40 0.5t-39.5 -0.5l-37 -1t-37.5 -2.5t-40 -4z" />
<glyph unicode="l" horiz-adv-x="399" d="M49 -8v30q42 2 66 12t35.5 31t14.5 56t3 86l6 643q0 22 -11 37.5t-28 25t-37 13.5q-18 4 -36 4q-2 3 -2 6v6v18q28 4 51 7.5t45 7.5t46 10.5t52 16.5q0 -4 1 -9t1 -16l-8 -209l-4 -561q0 -52 2 -87.5t14 -57t34 -31t62 -9.5v-10q0 -5 1 -10.5t1 -9.5q-22 2 -40.5 4 t-37 2.5t-37.5 1t-40 0.5t-39.5 -0.5l-37 -1t-37.5 -2.5t-40 -4z" />
<glyph unicode="m" horiz-adv-x="1231" d="M49 -8v30q43 2 67 12t35.5 31t14 56t2.5 86l2 287q0 22 -11 37.5t-28 25t-37 14.5t-38 5q-2 2 -2.5 4t-0.5 6v18l45 7.5t42 8t44.5 10.5t53.5 15q0 -4 2 -9.5t2 -13.5l-2 -120l104 96q24 23 56 37t67 14q133 0 191 -143l4 -6l120 106q14 13 27 21.5t28 13.5t33 7 q18 1 42 1q35 0 67 -16t56.5 -45.5t39.5 -70.5t15 -93l-2 -217q0 -52 1 -86.5t10.5 -55.5t30.5 -31t60 -12v-30q-13 2 -23.5 4t-20.5 2.5t-21 1t-25 0.5t-25 -0.5t-21 -1t-20 -2.5t-22 -4l2 374q0 49 -12 88t-33 66t-49 41.5t-58 14.5q-42 0 -72 -12t-52 -31t-36 -43 t-22 -48.5t-11 -47t-3 -38.5v-149q0 -52 3 -87.5t14 -57t34 -31t63 -9.5v-30q-22 2 -40.5 4t-37 2.5t-36.5 1t-40 0.5t-40 -0.5t-36.5 -1t-37 -2.5t-39.5 -4q-2 3 -2 6v6v18q42 2 66 12t35.5 31t14.5 56t3 86q2 54 2 91.5t-1 64.5t-3 47l-4 36q-4 27 -18 50.5t-34.5 41.5 t-47 28t-54.5 10q-41 0 -70.5 -13t-50.5 -33.5t-34 -46t-20 -51.5t-9 -49t-2 -39v-137q0 -52 2.5 -87.5t14 -57t33.5 -31t62 -9.5v-10q0 -5 1 -10.5t1 -9.5q-44 4 -86 6t-86 2q-21 0 -36.5 -0.5t-30.5 -1t-32 -2.5t-38 -4z" />
<glyph unicode="n" horiz-adv-x="807" d="M49 -8v30q43 2 67 12t35.5 31t14 56t2.5 86l2 287q0 22 -11 37.5t-28 25t-37 14.5t-38 5q-2 2 -2.5 4t-0.5 6v18l45 7.5t42 8t44.5 10.5t53.5 15q0 -4 2 -9.5t2 -13.5l-2 -116l160 120q8 6 19 10t24 7t25 4.5t22 1.5q38 0 70.5 -15t56.5 -44.5t37.5 -71.5t13.5 -98 l-2 -213q0 -52 1 -86.5t10.5 -55.5t30.5 -31t60 -12v-30q-14 2 -25 4t-20 2.5t-20 1t-25 0.5t-25 -0.5t-21 -1t-20.5 -2.5t-23.5 -4l4 374q0 49 -9 88t-28 66t-48 41.5t-67 14.5q-42 0 -72 -12t-52 -30t-36 -42t-22 -48t-11 -46t-3 -38v-153q0 -52 2.5 -87.5t14 -57 t33.5 -31t62 -9.5v-10q0 -5 1 -10.5t1 -9.5q-22 2 -40.5 4t-37 2.5t-37.5 1t-40 0.5t-39.5 -0.5l-37 -1t-37.5 -2.5t-40 -4z" />
<glyph unicode="o" horiz-adv-x="758" d="M66 295q0 79 21.5 144t64 112t105.5 72.5t147 25.5q64 0 118 -24.5t93 -67.5t61 -100.5t22 -122.5q0 -79 -25 -145.5t-70.5 -114.5t-110 -75t-142.5 -27q-64 0 -116 23.5t-90 66t-58 102.5t-20 131zM154 356q0 -37 5 -76.5t17 -78.5t31 -73t46.5 -60.5t65 -42t85.5 -15.5 q49 0 86.5 22.5t63.5 59.5t39 84t13 96q0 73 -17 136.5t-48 109.5t-75 71q-41 23 -88 23h-8q-58 -2 -99 -24t-67 -57t-38 -80t-12 -95z" />
<glyph unicode="p" horiz-adv-x="833" d="M45 -368q42 2 66 12t35.5 31t14.5 55t3 86l6 678q0 22 -11 37t-28 24.5t-37 14t-38 4.5q-2 3 -2.5 5.5t-0.5 6.5v20q24 4 45 7t42 7t44.5 10t53.5 15q0 -4 2 -9.5t2 -13.5l-2 -114q22 16 44 33.5t43.5 34t42.5 30.5q22 14 42 22q26 12 56 16q30 5 60 5q58 0 104 -21.5 t78 -60t49 -91t17 -114.5q-1 -34 -5.5 -65t-15.5 -60t-27 -57t-40 -55q-2 -2 -5 -4.5l-9 -7.5t-17 -12t-29.5 -19t-45.5 -30t-66 -42q-24 -17 -50 -22q-24 -4 -54 -4q-36 0 -76 16t-88 39l-6 2l-2 -225q0 -52 2 -87.5t13 -57t35 -30.5q22 -9 64 -9v-30q-22 2 -40 4t-36 2.5 t-37 0.5h-41h-40t-36.5 -0.5t-37.5 -2.5q-18 -2 -39 -4q-2 2 -2 5v6v19zM242 137q21 -20 46.5 -37.5t52.5 -29.5t56 -18.5t55 -6.5q28 0 58 10.5t57 29.5t51 45.5t41 58t27 67.5t10 74q0 52 -14 96t-43 76.5t-74 51t-106 18.5q-30 0 -60.5 -10.5t-58.5 -28t-50 -40.5 t-36 -49q-6 -11 -7 -19.5t-1 -18.5z" />
<glyph unicode="q" horiz-adv-x="776" d="M66 295q0 36 3 73.5t14 71.5t33.5 63t61.5 52q52 30 87 49t61.5 28.5t46.5 13.5q21 3 41 3q26 0 45 -1.5t37 -5.5t37 -11t43 -17l26 -12l58 41l16 -8q-8 -16 -14 -32.5t-9.5 -38.5t-5 -51t-2.5 -71l-6 -626q0 -52 2.5 -87.5t13.5 -57t33 -30.5q24 -9 64 -9v-11q0 -4 1 -9 t1 -10q-22 2 -41 4t-37 2.5t-37 0.5h-41h-39.5t-36.5 -0.5t-36 -2.5t-40 -4q-2 2 -2 5v6v19q43 2 67 12t35.5 31t14 55t2.5 86l2 296l-193 -120q-10 -6 -27 -7t-33 -1q-36 0 -69 13t-60 36.5t-49 54t-37 65.5t-23 71t-8 71zM144 350q0 -36 5 -71t16 -67.5t29 -61t44 -48.5 t62 -32t81 -12q22 0 49 9t53 23.5t48 33t34 38.5l5 370q-21 18 -45.5 31t-49.5 22t-50.5 13t-49.5 4q-52 0 -94.5 -22t-73.5 -57t-47 -80.5t-16 -92.5z" />
<glyph unicode="r" horiz-adv-x="545" d="M49 -8v30q43 2 67 12t35.5 31t14 56t2.5 86l2 287q0 22 -11 37.5t-28 25t-37 14.5t-38 5q-2 2 -2.5 4t-0.5 6v18l45 7.5t42 8t44.5 10.5t53.5 15q1 -4 2.5 -9.5t1.5 -13.5l-2 -124l86 82q11 11 27.5 23t35.5 22.5t38 17t34 6.5q37 0 65 -12v-3q0 -4 -1 -17t-3 -41t-6 -78 h-20q-6 14 -18 23t-26 14.5t-30.5 7.5t-32.5 2q-20 0 -39 -9.5t-35.5 -25.5t-29.5 -38t-22 -46t-14 -50t-5 -50v-119q0 -52 2.5 -87.5t14 -57t33.5 -31t62 -9.5v-10q0 -5 1 -10.5t1 -9.5q-22 2 -40.5 4t-37 2.5t-37.5 1t-40 0.5t-39.5 -0.5l-37 -1t-37.5 -2.5t-40 -4z" />
<glyph unicode="s" horiz-adv-x="614" d="M62 12q6 36 9 78t5 90h10q4 0 9 1t9 1l-2 -32q-2 -24 -0.5 -40t8 -28t19.5 -21.5t35 -21.5q24 -14 56 -19.5t71 -5.5q34 0 66.5 10t57 27t39.5 42t15 55q0 14 -5.5 29t-16 29t-24.5 25t-30 17q-30 11 -65.5 21t-71.5 21.5t-69 25t-59 32t-41 43.5t-15 57q0 56 22 94.5 t59 62t84.5 34t96.5 10.5q19 0 40.5 -2.5t44.5 -6.5t46 -11t45 -17q-4 -25 -7 -57.5t-3 -77.5q-3 -2 -6 -2h-4h-15q0 16 -1.5 31t-6.5 29t-14 26.5t-23 24.5q-12 10 -28 15t-32.5 7.5t-33 3t-31.5 0.5q-37 0 -65 -12t-47 -31t-28 -42t-9 -45q0 -28 17 -47t45 -32.5t64 -23.5 t73 -20.5t73 -22.5t64 -30.5t45.5 -44.5t17.5 -63q0 -53 -25.5 -94.5t-68.5 -71t-98 -45t-113 -15.5q-48 0 -94 10t-94 30z" />
<glyph unicode="t" horiz-adv-x="448" d="M56 532v23l100 47l2 100q0 30 -2 58.5t-6 54.5q18 6 28.5 11t19 9.5t16.5 8.5l20 10l4 -4q2 -2 4 -3t4 -1q-2 -11 -6 -23q-4 -13 -4 -25l-10 -198h194l-8 -60h-186l-5 -340v-36t2.5 -35t8.5 -32t19 -25.5t33 -16.5t50 -6q10 0 19 3t18 8t17 10q10 6 18 12l12 -12 q-8 -10 -17 -18.5t-18 -18.5q-13 -16 -23 -28t-14 -13q-6 -1 -11 -2.5t-10 -2.5t-11 -1h-15q-36 0 -64.5 8.5t-48.5 27t-31 46.5q-9 24 -9 57v12l4 403z" />
<glyph unicode="u" horiz-adv-x="837" d="M43 580v6v16q28 6 50.5 10t44.5 8t46 10t52 15q0 -4 2 -9.5t2 -13.5l-10 -210v-182q0 -42 6 -75t23 -56t48 -34.5t80 -11.5q34 0 68.5 14.5t63.5 36t50 48t27 51.5q4 12 5 24.5t1 24.5l2 242q0 23 -10.5 38.5t-26.5 25t-35.5 14t-37.5 4.5q-2 2 -2 4v6v16q28 4 50.5 7.5 t44 8t45 11t54.5 16.5q1 -4 1.5 -9.5t0.5 -13.5l-8 -210l-2 -298q0 -24 4 -41.5t14 -28.5t28 -16.5t46 -5.5h20v-30q-14 2 -26 4t-23 2.5t-23 1t-26 0.5t-26 -0.5t-22.5 -1t-21.5 -2.5t-24 -4q0 20 1 36t1 30l2 75l-8 -6q-12 -8 -25 -19.5t-27 -23.5l-28 -24 q-12 -12 -24 -21q-18 -15 -35 -25.5t-34.5 -17t-38 -9.5t-44.5 -3q-42 0 -72.5 9.5t-51 26.5t-32.5 40.5t-18.5 49.5t-8 55t-1.5 58l2 271q0 23 -11 38.5t-27 25t-35 14t-38 4.5q-2 2 -2 4z" />
<glyph unicode="v" horiz-adv-x="753" d="M24 606v29h285v-29q-34 0 -54.5 -6t-30.5 -15.5t-11 -23t3 -30t11 -34t15 -36.5l143 -361l4 12q10 26 23.5 55.5t31 69t40.5 93.5q24 52 54 126q8 19 16 38.5t12.5 37t3.5 32t-11 25t-30 15t-54 2.5v29h254v-29q-18 0 -34.5 -8t-35 -28.5t-39 -56t-44.5 -89.5 q-30 -66 -51.5 -112.5t-36 -79.5t-24 -54.5t-16 -37t-11 -26.5t-10 -22.5t-12.5 -25.5q-7 -16 -17 -38l-19 -38h-29l-225 534q-8 20 -17 36t-20.5 26t-26.5 15t-37 5z" />
<glyph unicode="w" horiz-adv-x="1097" d="M24 606v29h292v-29q-38 0 -60.5 -5t-34 -14t-14 -21t0 -26t8.5 -30t10 -31l104 -350q10 19 17.5 35.5t14 31.5t13 29.5t12.5 28.5l162 387h4q11 -23 21 -49q9 -28 20 -54l162 -419l4 12q17 45 34.5 87t35.5 87l48 131q9 24 16.5 46t10.5 41t0 34t-13.5 26t-31 17t-51.5 6 v29h266v-29q-30 0 -49.5 -12t-33.5 -31t-24.5 -42t-21.5 -44l-194 -487h-25l-191 487l-4 -10q-6 -14 -12 -28.5t-15 -34.5t-22 -47t-31.5 -67t-43.5 -94q-24 -54 -58 -128l-32 -78h-25l-139 469q-10 34 -20 61t-23 46.5t-33 29.5t-54 10z" />
<glyph unicode="x" horiz-adv-x="715" d="M45 -8v30q18 0 32.5 5.5t29 16t29.5 24.5q14 14 30 34l162 195l-2 4l-68 101q-28 40 -50 77t-45 64t-48 42t-57 13q-2 2 -2 4l-3 6q-2 3 -2 7.5v8.5q16 2 29.5 5t25.5 4q23 4 42.5 7.5t27.5 4.5q20 -23 40.5 -45.5t37.5 -48.5l112 -172l4 6q17 23 35.5 45t34.5 45 l113 160h96v-29q-15 0 -27 -4t-22 -11t-18 -16t-17 -18l-178 -213l191 -262q10 -14 18.5 -25.5t18.5 -19t23 -11.5q14 -4 32 -4v-30q-10 2 -17.5 4t-14.5 2.5t-14.5 1t-17.5 0.5q-12 0 -20 -0.5t-15 -1t-15 -2.5t-20 -4l-16 24t-16 25l-152 221l-4 -4q-13 -18 -26.5 -34 t-27 -32.5t-26.5 -33.5q-12 -16 -24 -35l-84 -131q-17 4 -29.5 6t-30.5 2q-14 0 -27.5 -2t-27.5 -6z" />
<glyph unicode="y" horiz-adv-x="772" d="M37 -381q3 10 7.5 24t9 28.5t8.5 27.5t8 21h10q7 -6 16.5 -12.5t19 -11.5t19.5 -8q11 -4 19 -4q22 0 40.5 10t34 25t28.5 35t23 41t18 41t16 37l46 109l-229 575q-6 13 -13 22t-17.5 15t-25.5 9t-36 3v29h283v-29q-32 2 -52 -2t-30.5 -12t-13.5 -19t-1.5 -23t6.5 -24 t9 -22l166 -422l162 389q6 16 13 32.5t10.5 31.5t2.5 28t-10.5 22.5t-28.5 15t-51 5.5q-2 2 -2 5v5v19h258v-29q-27 0 -45.5 -8.5t-31.5 -23t-23 -33.5t-19 -39l-329 -730q-18 -39 -37 -70.5t-43 -53.5t-56 -34t-76 -12q-17 0 -34.5 5.5t-28.5 11.5z" />
<glyph unicode="z" d="M39 18q36 37 68 72t63 74l348 434h-234q-20 0 -43 -3t-43 -15.5t-36.5 -39.5t-24.5 -75h-25q0 8 1 15.5t2.5 16t2.5 19t1 24.5v101q194 -6 389 -6h30t24 0.5t24 1.5t30 4v-19q0 -8 1 -14t1 -10q-11 -14 -24 -29q-12 -15 -26 -29l-400 -501h274h40t42.5 4t36 13.5 t19.5 29.5l18 90h30q-2 -20 -6 -39t-6 -43l-10 -102q-109 4 -215 6t-215 2q-20 0 -36 -1t-30 -2t-29 -3t-34 -2q-4 4 -6 13t-2 13z" />
<glyph unicode="{" horiz-adv-x="459" d="M98 424q110 40 111 160l2 246q0 56 9.5 91t29.5 56t51.5 30t75.5 11q-53 -24 -79 -65t-26 -103l-2 -246q0 -26 -2 -53t-11 -51t-29 -43t-54 -27l-18 -4l18 -6q36 -12 55.5 -31t28 -43t9.5 -52t1 -60l-2 -230q0 -126 98 -166q-50 2 -81 12t-49 32t-24.5 60.5t-6.5 98.5 l2 223q0 33 -5.5 58.5t-18 45.5t-33 33.5t-50.5 22.5z" />
<glyph unicode="|" horiz-adv-x="841" d="M389 0l11 1018h61l-9 -1018h-63z" />
<glyph unicode="}" horiz-adv-x="459" d="M90 -164q51 24 76.5 65t25.5 103l2 230q0 32 2 60t11.5 52t29.5 43t56 31l19 6l-19 4q-36 8 -55.5 26t-28 42t-10 51.5t-1.5 54.5l2 246q0 126 -100 166q44 -2 75.5 -11t51 -29t28.5 -55t9 -91l-2 -246q0 -118 106 -158q-31 -10 -51.5 -24t-33.5 -34t-19 -45.5t-6 -58.5 l-2 -223q0 -59 -8 -97.5t-27 -61.5t-51 -33.5t-80 -12.5z" />
<glyph unicode="~" horiz-adv-x="841" d="M86 299q16 28 34.5 55.5t41 48t49.5 33t59 12.5q18 0 37 -4t39 -11t40.5 -16t41.5 -17q24 -11 44 -19.5t38 -16.5q22 -8 40 -12t32 -4q24 0 46.5 10t42 26t35.5 36t27 41l29 -35q-14 -27 -33.5 -52t-42.5 -44.5t-49.5 -31.5t-56.5 -12q-17 0 -40.5 6t-49.5 17t-51 21 t-41 18q-16 6 -32 13t-32 12t-32 8.5t-34 3.5q-28 0 -51 -10.5t-41 -28t-33 -39t-29 -43.5q-6 8 -15 18.5t-13 16.5z" />
<glyph unicode="&#xa2;" horiz-adv-x="737" d="M114.5 483q1.5 47 19.5 92t51 81t81 61t111 31l2 136h43l-2 -136q44 -4 85 -12.5t83 -20.5q-5 -26 -7.5 -51.5t-6.5 -51.5h-15q0 13 -0.5 24t-3 20.5t-9 18.5t-20.5 17q-20 12 -45 19t-63 8l-6 -473h24q42 0 80 9t74 31l-14 -34q-36 -18 -79 -30t-85 -13l-2 -137h-44 l2 139q-66 8 -114 33.5t-80 63t-46.5 83t-13 92.5zM182 498q0 -47 13 -86.5t37 -71t58 -54.5q34 -22 78 -34l7 465q-43 -6 -78 -22.5t-60.5 -44.5t-39.5 -66q-15 -38 -15 -86z" />
<glyph unicode="&#xa3;" horiz-adv-x="862" d="M58 80q0 26 8 46t23 34.5t36 22t47 7.5q18 0 33 -2t31 -7t34 -13q18 -6 42 -18q4 42 6 69t2 39q0 24 -5 51t-12 56t-15 57q-10 28 -18 53h-180v39h170q-17 54 -29 105t-12 106q0 58 19 104.5t53 79.5t81 50.5t103 17.5h18t15.5 -0.5t15.5 -2t16 -3.5q34 -7 63.5 -22.5 t51 -38.5t33.5 -53.5t12 -66.5q0 -19 -5 -36.5t-16 -31.5t-25 -22q-16 -8 -34 -8q-31 0 -50 18.5t-19 49.5q0 10 2 17t6 13t10 11q7 5 15 10q8 6 17 9.5t16 8.5t12 11t6 16q1 16 -5.5 29t-18 23t-27 17t-31.5 11t-31.5 6t-27.5 2q-46 0 -79 -15t-54 -41t-31 -62t-10 -78 q0 -24 5 -54t13 -61q8 -30 15 -58.5t11 -60.5h236v-39h-225q5 -24 8.5 -44.5t6 -39t3 -36t0.5 -35.5t-2 -41t-6.5 -47t-12.5 -49.5t-20 -49.5q56 -24 110 -41.5t106 -17.5q36 0 63 9t48 26t37 40q18 23 32 51l24 -10q-10 -44 -29 -82t-47.5 -66t-65 -44t-81.5 -16 q-27 0 -55 7t-56 19.5t-56 29.5q-26 16 -52 36q-17 -22 -34.5 -39t-36.5 -29t-41 -18t-50 -6q-22 0 -42 7t-35 20t-24 31t-9 40zM88 84q0 -18 7 -32t19 -24t27 -15t31 -5q21 0 38.5 7t33 19t28.5 28t25 36l-22.5 18t-27.5 18t-31 15t-31.5 11t-30.5 2q-14 0 -27 -8 q-39 -24 -39 -70z" />
<glyph unicode="&#xa5;" horiz-adv-x="925" d="M35 936v6l133 26q12 2 20 1t15.5 -7t14.5 -14q8 -8 16 -20t17 -23.5t19 -27t23 -37.5t29 -52l188 -352l158 260q42 66 79 132t72 132h84q-27 -30 -56.5 -68t-61.5 -82t-65.5 -93t-67.5 -101h237v-30h-258q-24 -42 -43.5 -72t-30.5 -55q-2 -4 -4 -7.5t-4.5 -8.5t-4.5 -13 l-6 -18h351v-31h-355q-2 -17 -2 -25v-12l-2 -176q0 -42 3.5 -69.5t17 -44t39.5 -24.5t74 -10v-22q-48 4 -92.5 5t-92.5 1q-92 0 -178 -6v22q46 2 73 10t40.5 24.5t17.5 44t4 69.5l2 213h-374v31h366l-96 174h-270v30h252q-15 27 -32.5 60.5t-38.5 68.5t-44 68t-49 59.5 t-55.5 44t-61.5 19.5z" />
<glyph unicode="&#xa9;" horiz-adv-x="1040" d="M47 484q0 66 17.5 128t49.5 116t76.5 98t98 76t115.5 49q60 17 126 17t127.5 -17t114 -49t95.5 -76t73 -98t47 -116t17 -128q0 -68 -18 -131t-49 -117.5t-75.5 -99t-98 -77t-114.5 -50t-127 -17.5t-127 17.5t-114 50t-96 77t-74 99t-47.5 117.5t-16.5 131zM98 484 q0 -60 15.5 -117t43 -105.5t66.5 -89t86 -69.5t101 -44.5t112 -15.5t113 15.5t102.5 44.5t87 69.5t68 89t44 105.5t15.5 117t-15 115t-42 103t-65 88t-85 68t-101 44t-114 16q-58 0 -113 -16t-103 -44t-87.5 -68t-68 -88t-44.5 -104q-16 -54 -16 -114zM274 482 q0 64 24.5 113t64.5 82.5t91 51t105 17.5q48 0 93 -11t90 -25q-5 -23 -8 -46q-2 -24 -7 -48h-6q2 26 -4.5 45t-28.5 31q-13 6 -26.5 12t-29.5 9.5t-34 5.5t-39 2q-49 0 -90 -15t-70 -43.5t-45 -70.5t-16 -94q-1 -59 16.5 -106.5t51 -80.5t81.5 -50t109 -17q38 0 74 9 q38 9 70 27l-9 -28q-18 -9 -38.5 -16.5t-42 -13t-42.5 -8.5q-20 -3 -38 -3q-62 0 -116 17.5t-94 52t-63 85t-23 116.5z" />
<glyph unicode="&#xab;" d="M82 340v6q18 18 35 34t34 31.5t34 32t34 33.5l103 103l10 -6q-4 -4 -8 -11t-11.5 -17t-19 -26t-28.5 -40t-42 -57t-59 -79l164 -225l-16 -9q-6 7 -10.5 12.5t-13.5 14.5t-24.5 25.5t-44.5 46.5zM362 340v6q18 18 35 34t34 31.5t34 32t35 33.5l102 103l10 -6 q-4 -4 -8 -10.5t-11 -17t-18 -25.5t-28.5 -39t-42 -58t-58.5 -80l162 -225l-14 -9l-94 99z" />
<glyph unicode="&#xad;" horiz-adv-x="579" d="M30 312l32 73h468q-3 -7 -7.5 -17t-8.5 -20.5t-9 -20t-7 -15.5h-468z" />
<glyph unicode="&#xae;" horiz-adv-x="1071" d="M45 484q2 70 20.5 135t52.5 121.5t80 103t102 80t121 52t134 18.5t133 -18.5t119 -52t100 -80t76.5 -103t48 -121.5t14.5 -135q-2 -71 -21 -136.5t-52 -122.5t-80 -104t-103 -81t-120 -52t-134 -18q-69 0 -132.5 18t-118.5 52t-100 81t-77 104t-48 123t-15 136zM94 484 q-2 -64 13.5 -123t44 -110.5t69.5 -94t91 -72.5t107 -47t119 -17t120 17t108 47t91.5 72.5t72 94t47.5 110.5t19 123t-13.5 122t-44 109t-68.5 93t-90 72t-107 46t-118 16q-62 0 -119.5 -16t-108.5 -46t-93 -72t-73 -93t-48 -109t-19 -122zM320 230v16q10 2 17 5t15 7 q12 6 22.5 16t10.5 27l6 381q0 14 -1.5 24.5t-5.5 17t-11 9t-21 2.5l-22 3v26h208q53 0 92 -6t64 -20t37.5 -37.5t12.5 -59.5q0 -28 -11 -51.5t-29 -40.5t-42 -29q-26 -12 -54 -18l-28 -6q2 -1 3.5 -1.5t6 -2.5t10.5 -6l18 -9q20 -10 34 -23.5t24 -29.5t18 -34t16 -38 q9 -21 17.5 -38t19.5 -30.5t25 -23t35 -14.5l-4 -16q-14 -2 -31.5 -3t-34.5 2t-32 9t-25 18q-14 20 -22 34t-14 26t-12 25t-14 31q-6 12 -10 23t-8 21.5t-10 20t-14 17.5t-18.5 14t-21 9.5t-20.5 5t-18 1.5h-37l-5 -183q0 -12 5.5 -22.5t14.5 -18.5t20.5 -12t23.5 -4v-14 h-200zM461 514l25 -4q20 -4 42 -3.5t42.5 6t39 15.5t32.5 24.5t22 33t8 42.5q0 32 -13 53t-34.5 33t-49 17t-55.5 4q-23 -2 -39 -11q-16 -10 -16 -28z" />
<glyph unicode="&#xbb;" d="M86 574l10 6l102 -103q18 -18 35 -34t34 -31.5t34 -31.5t35 -34v-6l-138 -131l-94 -99l-14 9l162 225q-34 46 -58.5 80t-42 58t-28.5 39t-18 25.5l-11 16.5q-4 7 -8 11zM366 574l10 6l103 -103q18 -18 34.5 -34t33.5 -31.5t34 -31.5t35 -34v-6l-137 -131 q-28 -30 -44 -46.5t-25 -25.5t-13.5 -14t-10.5 -13l-16 9l164 225q-34 46 -59 79t-42 57t-28.5 40t-19 26t-11.5 16q-4 8 -8 12z" />
<glyph unicode="&#xbc;" horiz-adv-x="1091" d="M56 876v10.5v6.5l196 71h14q-2 -11 -3 -25.5t-2 -38t-2 -58t-2 -83.5t-2 -116t-3 -155v-29.5t6 -28.5q4 -8 13 -11.5t21 -5t23 -1.5h17v-25q-30 2 -58 3t-57 1q-30 0 -57.5 -1.5t-57.5 -2.5v25h19t22 2t20.5 5.5t12.5 10.5q6 13 6 28.5v29.5l4 392q0 4 0.5 9.5t0 10 t-2.5 7.5t-6 1l-112 -50l-6 2q-2 2 -3 6t-1 10zM266 0l528 960h80l-528 -960h-80zM649 174q17 32 37 67t43 71l162 249l59 21l10 -6q0 -17 -3 -38q-3 -20 -3 -44l-6 -289h47.5t46.5 4q-2 -6 -2 -12v-11v-34q-24 2 -46 2h-48q0 -40 2 -66t10.5 -40.5t25 -20t44.5 -5.5v-10 q0 -5 1 -8.5t1 -7.5q-31 3 -60 4q-28 2 -58 2q-58 0 -118 -6v26q30 0 47 5.5t25 20t10 40.5t2 66h-222zM710 203h170l7 299l-125 -205q-14 -24 -27 -47.5t-25 -46.5z" />
<glyph unicode="&#xbd;" horiz-adv-x="1091" d="M36 876v10.5v6.5l196 71h14q-2 -11 -3 -25.5t-3 -38t-3 -58t-2.5 -83.5t-2 -116t-0.5 -155v-29.5t6 -28.5q4 -8 13 -11.5t21 -5t23 -1.5h17v-25q-30 2 -58 3t-57 1q-30 0 -57.5 -1.5t-57.5 -2.5v25h19t22 2t20 5.5t13 10.5q6 13 6 28.5v29.5l4 392q0 4 0.5 9.5t0 10 t-2.5 7.5t-6 1l-112 -50l-6 2q-2 2 -3 6t-1 10zM226 0l528 960h80l-529 -960h-79zM684 -1.5v5.5v14l25 25t26 27q44 47 83 88q40 42 73 80q16 21 29.5 40.5t22.5 38.5t14 38t5 41q0 26 -7 47t-22 37t-35.5 25t-47.5 9q-16 0 -33 -3.5t-32 -11.5t-27 -21q-10 -14 -16 -34 l-11 -38h-23q1 12 2.5 19t1.5 15l11 78q30 32 65.5 46t77.5 14q46 0 79 -13t53.5 -34.5t29.5 -50.5q8 -28 8 -58q0 -35 -12 -65.5t-31 -57.5t-41 -51t-44 -45q-20 -20 -35 -34.5t-26 -26t-20 -21t-18 -18.5t-18 -19t-19 -22h180h32t30 1t26 3t21 6l4 -8q-4 -17 -3.5 -33.5 t1.5 -30.5l-2 -4q-48 0 -93.5 1t-93.5 1q-50 0 -95 -1t-93 -3q-2 2 -2 4.5z" />
<glyph unicode="&#xbe;" horiz-adv-x="1091" d="M30 518q2 2 4 2t3 2q4 2 7.5 3t4.5 1q18 -60 54.5 -88t96.5 -28q30 0 53.5 11t39.5 30t24.5 44t8.5 54q0 28 -6 50.5t-20 38.5t-35 25t-50 9q-41 0 -69 -18l-4 4l1 6q1 5 3 11.5t4 13.5t2 11q11 0 17.5 -1t16.5 -1q27 0 48.5 11t36.5 27.5t22.5 37t7.5 41.5 q0 22 -7.5 39.5t-21.5 31t-33 21t-41 7.5q-27 0 -46.5 -8t-34.5 -22t-24.5 -32t-14.5 -39h-22l24 99q30 31 61.5 43.5t73.5 12.5q36 0 64.5 -9t48.5 -25.5t30 -40t10 -51.5q0 -20 -7 -39t-20 -36t-29 -33q-18 -16 -36 -30h-2q28 -6 52 -14t41 -22.5t27 -36.5t10 -55 q0 -26 -10 -51t-27 -47t-40 -41t-49 -33t-55.5 -21.5t-58.5 -7.5q-10 0 -23.5 1.5t-28 4.5t-28.5 7t-26 10q-2 14 -5 28t-6 28.5t-7 30t-10 33.5zM276 0l529 960h79l-528 -960h-80zM649 174q17 32 37 67t43 71l162 249l59 21l10 -6q0 -17 -3 -38q-3 -20 -3 -44l-6 -289h47.5 t46.5 4q-2 -6 -2 -12v-11v-34q-24 2 -46 2h-48q0 -40 2 -66t10.5 -40.5t25 -20t44.5 -5.5v-10q0 -5 1 -8.5t1 -7.5q-31 3 -60 4q-28 2 -58 2q-58 0 -118 -6v26q30 0 47 5.5t25 20t10 40.5t2 66h-222zM710 203h170l7 299l-125 -205q-14 -24 -27 -47.5t-25 -46.5z" />
<glyph unicode="&#xd7;" horiz-adv-x="661" d="M123 142l178 228l-168 228l33 43l170 -227l180 229l33 -43l-179 -230l172 -233l-32 -43l-174 232l-180 -230z" />
<glyph unicode="&#xf7;" horiz-adv-x="721" d="M30 348l3 52h669v-52h-672zM295 172q2 30 19.5 49t43.5 19q12 0 23 -5t19 -14t13 -22t5 -27q-1 -14 -6.5 -27t-13.5 -22t-19 -14t-23 -5q-13 0 -24 5t-19.5 14t-13 22t-4.5 27zM303 576q0 14 5 26.5t13.5 21.5t19.5 14t23 5t23 -5t19 -14t13 -21.5t5 -26.5t-5 -27 t-13.5 -22t-19.5 -14q-12 -5 -24 -5t-23 5t-19 14t-13 21q-5 14 -4 28z" />
<glyph unicode="&#x2000;" horiz-adv-x="682" />
<glyph unicode="&#x2001;" horiz-adv-x="1365" />
<glyph unicode="&#x2002;" horiz-adv-x="682" />
<glyph unicode="&#x2003;" horiz-adv-x="1365" />
<glyph unicode="&#x2004;" horiz-adv-x="455" />
<glyph unicode="&#x2005;" horiz-adv-x="341" />
<glyph unicode="&#x2006;" horiz-adv-x="227" />
<glyph unicode="&#x2007;" horiz-adv-x="227" />
<glyph unicode="&#x2008;" horiz-adv-x="170" />
<glyph unicode="&#x2009;" horiz-adv-x="273" />
<glyph unicode="&#x200a;" horiz-adv-x="75" />
<glyph unicode="&#x2010;" horiz-adv-x="579" d="M30 312l32 73h468q-3 -7 -7.5 -17t-8.5 -20.5t-9 -20t-7 -15.5h-468z" />
<glyph unicode="&#x2011;" horiz-adv-x="579" d="M30 312l32 73h468q-3 -7 -7.5 -17t-8.5 -20.5t-9 -20t-7 -15.5h-468z" />
<glyph unicode="&#x2012;" horiz-adv-x="579" d="M30 312l32 73h468q-3 -7 -7.5 -17t-8.5 -20.5t-9 -20t-7 -15.5h-468z" />
<glyph unicode="&#x2013;" horiz-adv-x="1024" d="M60 432v56h921v-56h-921z" />
<glyph unicode="&#x2014;" horiz-adv-x="2048" d="M58 358l2 46l1945 2l-2 -46z" />
<glyph unicode="&#x2018;" horiz-adv-x="291" d="M88 633q30 86 64 165.5t80 151.5q3 2 6 5t8 5q6 4 13 9t11 10l6 -2q-37 -73 -60.5 -151t-29.5 -160l-5 -12.5t-9 -8.5l-72 -25q-5 2 -6 4q0 2 -2 4z" />
<glyph unicode="&#x2019;" horiz-adv-x="291" d="M37 626q36 73 59 152.5t31 161.5q1 6 3 12q4 6 10 8l73 25l8 -8l5 -4q-14 -43 -30 -84.5t-34 -81t-38 -77.5t-44 -74l-6.5 -6.5t-7.5 -6.5q-6 -4 -12 -8.5t-11 -10.5z" />
<glyph unicode="&#x201c;" horiz-adv-x="540" d="M100 643q28 88 64 167q36 78 80 150q4 3 7 6.5t7 6.5q6 4 13 8.5t11 9.5l7 -2q-36 -72 -59 -151q-24 -80 -30 -162q-1 -5 -2.5 -9.5t-7.5 -6.5l-78 -29q-6 2 -8 5.5t-4 6.5zM336 643q30 87 64 166t79 151q4 3 7 6q4 4 8 7q6 4 13 8.5t11 9.5l6 -2q-75 -145 -90 -313 q-1 -5 -4.5 -11.5t-7.5 -8.5l-74 -25q-4 2 -7 6.5t-5 5.5z" />
<glyph unicode="&#x201d;" horiz-adv-x="540" d="M44 638q75 145 90 313q1 5 4 11q4 8 8 10l74 24q4 -2 7 -6t5 -6q-30 -87 -64 -166q-34 -80 -79 -152q-4 -3 -7 -6q-4 -2 -8 -6q-6 -4 -13 -9t-11 -9zM279 638q36 72 59 152q24 79 30 161q1 5 2 9q2 6 8 8l78 28q6 -2 8 -5.5t4 -6.5q-28 -88 -64 -166q-36 -80 -80 -152 q-4 -3 -7 -5.5t-7 -6.5q-6 -4 -13 -9t-11 -9z" />
<glyph unicode="&#x2022;" horiz-adv-x="661" d="M123.5 372q0.5 40 14.5 78.5t41 68.5t67 48.5t94 18.5t94 -18.5t66 -48.5t38 -68.5t11.5 -78.5t-15 -78t-41.5 -68t-67 -48t-92 -18q-54 0 -93.5 18t-66 48t-39 68t-12 78z" />
<glyph unicode="&#x202f;" horiz-adv-x="273" />
<glyph unicode="&#x205f;" horiz-adv-x="341" />
<glyph unicode="&#x20ac;" horiz-adv-x="1153" d="M43 379v37h151q-2 27 -3 48t0 39.5t3 36.5t6 40h-157v36h168q24 88 74.5 154t117.5 111t148 67.5t166 22.5q43 0 87 -4.5t88 -12.5t87.5 -19t83.5 -23q-8 -44 -13.5 -88t-11.5 -89h-20q0 12 1 21.5t1 19.5q0 24 -2.5 41t-9.5 29t-20.5 21.5t-35.5 19.5q-24 10 -48.5 20.5 t-53 17.5t-61.5 12t-71 5q-77 0 -143.5 -20t-118.5 -61t-89 -101q-37 -62 -55 -142h392v-36h-399q-7 -40 -5 -82.5t7 -81.5h397v-37h-390q22 -87 64.5 -153.5t103 -111.5t136.5 -68.5t166 -23.5q70 0 137 19t127 55l-12 -40q-32 -17 -71 -31.5t-79 -25t-79 -16t-69 -5.5 q-100 0 -190 25.5t-161 76t-119 125.5q-50 75 -68 172h-157z" />
<glyph unicode="&#x2122;" horiz-adv-x="1386" d="M45 960q60 0 116.5 -1t116.5 -1h117t117 2q-2 -23 -3 -42q-1 -20 -1 -38v-18t-2 -18l-8 -2q0 18 -3 30t-5 27q-2 12 -5 18.5t-8 10t-11 4.5t-14 2l-138 4q-5 -26 -6 -48t-1 -46l-2 -352q-1 -24 1 -40.5t10 -26t23.5 -13.5t43.5 -4v-17q-30 2 -56.5 3.5t-56.5 1.5 t-54.5 -2t-53.5 -3v17q28 0 44 4t24 13.5t10 25.5q2 17 4 41l2 352v44q0 22 -2 40q-2 2 -9.5 3t-18 2t-22.5 1h-24h-66q-7 0 -13.5 -1t-11.5 -5t-9 -11t-4 -18q-1 -14 -3.5 -27.5t-4.5 -27.5l-9 -2q-1 11 -1.5 19.5t-0.5 18.5q0 18 -0.5 38t-1.5 42zM580 391v17h4q20 0 34 2 t23 9t14 20t5 34l4 414q0 20 -4 33.5t-13 21t-24 10t-35 2.5h-4v6q19 -2 36 -2h36h36q18 0 37 2l223 -481l184 375l13.5 27t11.5 26l10 26t11 27q19 -2 37 -2h37h34q18 0 37 2v-6h-4q-19 0 -33 -2.5t-23 -10t-14 -20.5t-6 -34l-2 -395q0 -24 1.5 -41t8.5 -26t23 -13t45 -4 v-17q-30 2 -56.5 3.5t-56.5 1.5q-26 0 -52.5 -2t-55.5 -3v17q28 0 44 4t24 13t10 25q2 18 2 42l4 420l-252 -529h-4l-246 527l-4 -437q0 -20 4.5 -33.5t14 -20.5t24 -9t35.5 -2h4v-17q-24 2 -46 3q-22 2 -46 2q-23 0 -45 -2q-21 -2 -45 -3z" />
<glyph unicode="&#x25fc;" horiz-adv-x="645" d="M0 0v645h645v-645h-645z" />
</font>
</defs>
</svg>
