<?xml version="1.0" standalone="no"?>
<!DOCTYPE svg PUBLIC "-//W3C//DTD SVG 1.1//EN" "http://www.w3.org/Graphics/SVG/1.1/DTD/svg11.dtd" >
<svg xmlns="http://www.w3.org/2000/svg">
<metadata></metadata>
<defs>
<font id="db_surawong_xregular" horiz-adv-x="692" >
<font-face units-per-em="2048" ascent="1638" descent="-410" />
<missing-glyph horiz-adv-x="512" />
<glyph unicode="&#x2b;&#x2d;" horiz-adv-x="841" d="M74 -2v80h698v-80h-698zM74 486v79h309l4 307h80l-4 -307h309v-79h-309l-2 -312h-80l2 312h-309z" />
<glyph unicode="&#x2e;&#x2e;&#x2e;" horiz-adv-x="1394" d="M154 70q0 16 6 29.5t17 24t25 17.5t28 7q16 0 29.5 -7t24 -17.5t17 -24t6.5 -29.5t-6.5 -30t-17 -25t-24.5 -17q-13 -6 -29 -6t-30 6.5t-24 17.5t-16 25q-6 15 -6 29zM620 70q0 16 7 29.5t17.5 24t24.5 17.5q13 7 29 7q14 0 28.5 -7t25 -17.5t17.5 -24t7 -29.5 q-1 -16 -7.5 -30t-17 -25t-25 -17t-30.5 -6t-29 6.5t-24 17.5t-17 25q-6 15 -6 29zM1090 70q0 16 6 29.5t16 24t24 17.5t28 7q15 0 29.5 -7t25.5 -17.5t17.5 -24t6.5 -29.5q-1 -16 -8 -30t-17.5 -25t-25 -17t-28.5 -6q-16 0 -29.5 6.5t-23.5 17.5t-15 25q-6 15 -6 29z" />
<glyph horiz-adv-x="2048" />
<glyph horiz-adv-x="2048" />
<glyph unicode="&#xd;" horiz-adv-x="579" />
<glyph unicode=" "  horiz-adv-x="512" />
<glyph unicode="&#x09;" horiz-adv-x="512" />
<glyph unicode="&#xa0;" horiz-adv-x="512" />
<glyph unicode="!" horiz-adv-x="381" d="M114 66q0 18 6 32.5t16 25.5t24 18q14 6 32 6q16 0 30 -7t24 -17.5t16 -24t6 -29.5t-6 -30t-17 -25t-25 -17t-28 -6t-28 6t-25 16t-18 24t-7 28zM131 914l20 10l22 11t26.5 13.5t34.5 15.5h36l4 -30l-57 -622l-35 -30l-8 2q2 17 1 30.5t-3 25.5l-37 463q-2 29 -3 55 t-1 56z" />
<glyph unicode="&#x22;" horiz-adv-x="512" d="M82 910q-2 10 2 19t12 17t19 13t22 5q12 0 22.5 -5t18.5 -13t12 -18q4 -8 2 -18l-48 -273h-21zM336 910q-2 10 2 19t12 17t19 13t22 5q12 0 22.5 -5t18.5 -13t12 -18q4 -8 2 -18l-46 -273h-21z" />
<glyph unicode="#" horiz-adv-x="841" d="M84 314v69h162l32 205h-155l2 70h164l47 292h70l-46 -292h197l45 292h72l-46 -292h138l-2 -70h-146l-32 -205h141v-69h-151l-46 -314h-74l48 314h-197l-51 -314h-70l50 314h-152zM318 383h198l31 205h-197z" />
<glyph unicode="$" d="M43 30q11 48 16 101t5 101h12q4 0 10 1t10 1v-86q0 -24 11 -43t28 -33.5t39.5 -25t46 -17t46.5 -10t42 -3.5h5l4 400q-40 4 -76 10t-66 16t-54 25t-40.5 38.5t-25.5 56t-9 77.5q0 62 19.5 114.5t54.5 90.5t85 60t112 22h4v4q0 26 -3 46.5t-1 39.5h20q11 0 18.5 1t13.5 1 q-2 -20 -5 -40t-3 -44v-4h6q58 0 116 -13t108 -45q-3 -42 -7 -82q-3 -40 -7 -88h-36v54q0 34 -14 59t-38.5 41.5t-56 24.5t-65.5 8h-6l-4 -373q41 -4 79 -10t70.5 -16t59.5 -25.5t46 -39t30 -57t11 -79.5q0 -56 -19 -103.5t-51 -86.5t-76 -67t-96 -44q-12 -4 -26 -6t-32 -6 v-4q0 -36 3 -70t3 -64q-4 -2 -10 -2h-10h-33q0 25 3.5 60.5t3.5 73.5v4h-5q-24 0 -54.5 3t-65.5 10t-72 18t-74 25zM144 688q-1 -42 10.5 -72t34.5 -50t55 -31q34 -11 74 -15l4 364h-4q-44 0 -77 -15.5t-54.5 -42t-32 -62.5t-10.5 -76zM354 18h6q37 0 72 18t61.5 47.5t43 69 t16.5 83.5q0 46 -14 77.5t-39.5 52t-61.5 30.5q-36 12 -80 16z" />
<glyph unicode="%" horiz-adv-x="1169" d="M119 649q0 33 9.5 67.5t25.5 67t39.5 62t51.5 51t60.5 34.5t66.5 13q24 0 44.5 -7t39.5 -18t37.5 -24t39.5 -24t45 -18t55 -7q32 0 64.5 7t61.5 21t53 35t40 49h37l-545 -986h-55l485 878l-12 -6q-18 -8 -35 -13.5t-34.5 -8.5t-36 -4t-38.5 -1q-24 0 -51 7.5t-49 17.5 q2 -23 3 -42t1 -42q0 -36 -9 -72t-25 -70t-38 -63t-48 -51t-57 -35t-63 -13q-38 0 -68 16t-51 42t-32.5 61.5t-11.5 75.5zM198 604q0 -20 7 -40t19 -36t30.5 -25t42.5 -9q28 0 53.5 13t47.5 34t39 49t29 57t19 59t7 54q0 27 -4 54.5t-14.5 49.5t-31 36t-55.5 14 q-30 0 -55.5 -17t-46.5 -44t-37 -60.5t-27 -68t-17 -66.5t-6 -54zM656 162q0 38 10 75t28 70t43 60t53.5 47t59.5 31q32 11 62 11q38 0 65.5 -13t46 -35.5t28 -54t9.5 -67.5q0 -40 -8.5 -79t-24.5 -74t-37.5 -64.5t-47 -51t-54.5 -33.5t-59 -12q-42 0 -75 14.5t-55 40 t-33 60.5t-11 75zM738 116q0 -22 6 -42t18.5 -35.5t31 -25t42.5 -9.5q28 0 53.5 13t47 35t38.5 50t29 57.5t18 59t6 53.5q0 26 -3 53t-14 49t-32 36t-55 14q-28 0 -53.5 -16t-46 -43t-36.5 -60t-27.5 -67.5t-17 -66t-5.5 -55.5z" />
<glyph unicode="&#x26;" horiz-adv-x="1081" d="M64 238q0 52 17 96.5t46 81.5t69 66q38 30 84 52l4 2l-2 4q-22 43 -33 86.5t-10.5 83t13.5 73.5q12 35 37 59l67 66q14 14 26 23t24 15.5t26 9t33 2.5q60 0 95 -32q34 -30 34 -92q0 -28 -9 -56t-24 -54t-36 -50t-44 -45t-47 -40t-47 -34l2 -4q27 -52 59.5 -99.5t69 -92 t76.5 -86.5q39 -43 80 -83l4 -4q32 40 49 81t23 77t0 64q-5 28 -19 46q-4 6 -9.5 9t-11.5 4t-13 1t-15 1l-84 6l-2 2l41 59q36 0 66.5 -1t66.5 -1l264 4q-6 -20 -10 -40t-4 -44q-48 11 -96 14t-96 -3h-7l3 -6q4 -12 5 -27.5t1 -31.5q0 -33 -9 -65.5t-25 -62.5t-37 -57 t-44 -51l-5 -4l5 -2q32 -16 61.5 -32.5t59 -29t59.5 -20.5q29 -8 61 -8q13 0 24 1.5t21 5t20 7.5q9 4 21 10v-4q0 -3 2 -6l3 -9t1 -5q-23 -14 -52 -34t-66 -56q-14 0 -29 -2t-33 -2q-21 0 -52.5 9t-65.5 24t-65.5 34t-51.5 39l-3 4l-4 -4q-25 -29 -56.5 -49.5t-68 -33.5 t-75 -19t-76.5 -6q-68 0 -121 20t-90 56t-56 85t-19 105zM174 286q0 -50 19 -94t51 -78t76 -53.5t94 -19.5q24 0 47 5.5t46 14.5t44 21t39 24l4 3l-4 3q-40 46 -79 92t-76 93t-71 96t-64 103l-3 -2q-28 -20 -50.5 -41.5t-38.5 -46t-25 -54.5t-9 -66zM332 764q0 -18 3 -39 t8 -44t11 -44t12 -39l2 -4q23 16 48 38.5t45.5 48t33.5 53.5t13 56q0 18 -5 36t-14.5 33t-24.5 24.5t-36 9.5q-32 0 -51 -11.5t-29 -30t-13 -41.5t-3 -46z" />
<glyph unicode="'" horiz-adv-x="282" d="M94 910q-2 10 2.5 19t12 17t18.5 13t23 5t22 -5t18 -13t12 -18q4 -8 3 -18l-47 -273h-21z" />
<glyph unicode="(" horiz-adv-x="459" d="M88 430q4 358 314 586q2 -2 3 -5t3 -5l7 -10.5t5 -6.5q-62 -58 -104 -121.5t-68 -132t-38 -141.5q-12 -74 -12 -154q0 -78 11 -149t33 -137t56 -130q34 -62 81 -124q8 -10 15.5 -20t15.5 -22l-12 -8q-5 -4 -8.5 -7t-8.5 -5q-74 59 -129 128t-91.5 144.5t-55 156 t-17.5 163.5z" />
<glyph unicode=")" horiz-adv-x="459" d="M47 -142q56 62 96.5 128t67.5 138t40.5 151t14.5 165q0 66 -10.5 138t-35 143t-64.5 139.5t-100 130.5q3 2 5.5 4.5l6.5 6.5t8 6.5t8 7.5q68 -53 123 -118.5t93.5 -140.5t58.5 -157.5t20 -169.5q-1 -87 -22.5 -167.5t-62 -154.5t-98.5 -142t-130 -128l-8 8q-5 4 -8 8 q-2 2 -3 4z" />
<glyph unicode="*" horiz-adv-x="536" d="M51 628l5 9l194 80l-192 94l-7 6l51 80h17l143 -151l39 206l11 6l81 -26l5 -16l-105 -183l205 35l4 -4l12 -88l-6 -4l-217 32l96 -178v-12l-78 -41l-20 6l-25 211l-152 -143l-16 4z" />
<glyph unicode="+" horiz-adv-x="841" d="M74 322v80h309l4 306h80l-4 -306h309v-80h-309l-2 -312h-80l2 312h-309z" />
<glyph unicode="," horiz-adv-x="342" d="M22 -207q24 38 45 77t38 80.5t29 84.5t18 88q12 3 25 6t28 7t33 10t42 16l17 -14q-18 -46 -40.5 -90t-49.5 -86t-57 -83t-60 -79q-16 -7 -28.5 -15.5t-26.5 -11.5z" />
<glyph unicode="-" horiz-adv-x="459" d="M28 305l36 88h483l4 -2q-4 -10 -8 -19q-5 -10 -9 -20q-6 -18 -13 -31t-9 -18h-479z" />
<glyph unicode="." horiz-adv-x="342" d="M94 70q0 16 6.5 29.5t17 24t24.5 17.5t30 7q14 0 28 -7t25 -17.5t18 -24t7 -29.5q-1 -16 -7.5 -30t-17.5 -25t-25 -17t-30 -6t-29.5 6.5t-24 17.5t-16.5 25q-6 15 -6 29z" />
<glyph unicode="/" horiz-adv-x="841" d="M116 -164l529 1182h88l-528 -1182h-89z" />
<glyph unicode="0" d="M45 444q0 56 4.5 117t18 118t37 108t60 89t89 60t123.5 22q74 0 125.5 -31t83.5 -88t46.5 -137t14.5 -178q0 -54 -3.5 -116t-15.5 -124t-33.5 -119t-57 -100.5t-86.5 -69t-121 -23.5q-72 1 -125.5 28t-89 84t-53.5 146q-18 88 -17 214zM154 484q0 -68 3 -129.5t11 -114 t22 -95.5t35 -73t51.5 -46t71.5 -16q42 0 72.5 17t52 48t34.5 72t21 88t10 98.5t2 102.5q0 66 -2 127.5t-9 115t-20 98t-34 76t-51 49.5t-72 18q-44 0 -76 -17.5t-54 -48t-36 -71.5t-21 -90t-9 -102t-2 -107z" />
<glyph unicode="1" d="M110 832l324 118h18q-2 -16 -4 -40t-4 -63t-3 -96t-3 -140t-3 -195q-1 -110 -3 -258v-48.5t8 -47.5q5 -12 16.5 -18t27 -9t35.5 -5t44 -4v-34q-48 4 -94 6t-94 2t-93.5 -2t-93.5 -6v34q24 2 44 4t36 5t28 9t18 18q8 23 8 47.5v48.5l6 653v16.5t-1 15.5t-5 12t-13 5 l-184 -82l-9 2q-4 13 -5 26q-1 14 -1 26z" />
<glyph unicode="2" d="M22 -1.5v7.5v20q18 24 38 44t44 42q48 50 95 98t89 94t78 90.5t63 88t42 87.5t15 88q0 43 -13 79.5t-38 64t-60.5 43t-81.5 15.5q-28 0 -56.5 -6t-53.5 -20t-44 -37t-29 -57l-16 -62h-32l8 53l16 131q48 51 108 73.5t128 22.5q76 0 129 -21t87 -57t49 -82q15 -48 15 -98 q0 -43 -12.5 -83t-33 -77t-48.5 -70.5t-58 -63.5l-292 -308h307q27 0 53.5 1t50 3t43.5 4t33 6l4 -8q-4 -25 -5.5 -53.5t3.5 -52.5l-2 -4q-79 0 -155.5 3t-155.5 3q-80 0 -156 -2t-154 -6q-2 3 -2 6.5z" />
<glyph unicode="3" d="M26 211q4 3 13 6.5t14 3.5q14 -49 36.5 -85.5t53.5 -61t71.5 -36.5t92.5 -12q50 0 89 20t66.5 53t42.5 76t15 89t-11 84.5t-34 66t-58.5 43t-84.5 15.5q-72 -1 -115 -31l-4 4q4 18 8 35q5 17 7 33q14 0 27 -2t29 -2q46 0 82 17.5t61 45.5t39 63q13 34 13 70q0 37 -14 68 t-37.5 53.5t-55.5 34.5t-67 12q-45 0 -80 -14t-60 -37t-41 -53q-18 -30 -26 -64h-10q-4 0 -9 1t-9 1l38 158q45 50 101 71t123 21q58 0 105 -14.5t79 -41.5t50 -65.5t18 -84.5q0 -33 -12.5 -63.5t-33 -58.5t-48.5 -54t-60 -50l-10 -6l12 -2q52 -8 91 -24t65 -41t39.5 -60.5 t13.5 -83.5q0 -43 -15.5 -84t-43.5 -78t-66 -68t-81.5 -54t-92 -35t-96.5 -12q-18 0 -40 2t-45.5 7t-46.5 12q-22 7 -42 15q-4 43 -16 92t-30 105z" />
<glyph unicode="4" d="M10 282q4 8 9 16t13 21t20 34t32 52.5t48 77t68 108.5t92 145q52 84 120 190l96 32l14 -8q-2 -12 -3.5 -27t-3 -33t-2.5 -37t-1 -38l-10 -483h4q42 0 81 1t71 5q-2 -11 -2 -20v-17v-51q-32 4 -70 4h-80h-6v-4q0 -68 3 -111t16.5 -68t41 -35t74.5 -10v-12q0 -6 1 -12 t1 -10q-48 4 -96.5 6t-96.5 2t-95 -2t-95 -6v34q33 2 56.5 6.5t38.5 14t24 25.5t13.5 40t5.5 58t1 80v4h-373zM102 330h294l12 514q-62 -101 -107 -174.5t-77 -127t-52 -88.5t-33.5 -58.5t-21.5 -38.5q-9 -15 -15 -27z" />
<glyph unicode="5" d="M22 186l25 14q17 -26 31 -53t32 -57q12 -18 33 -30t44.5 -19.5t47 -11t41.5 -3.5q62 0 109 18.5t78.5 51.5t48.5 79q16 45 16 101q0 58 -14 105t-43 80t-70 51t-94 18q-28 0 -49.5 -3t-39.5 -11t-35 -21t-35 -34l-17 -17l-21 8q2 17 4 50t3.5 75.5t3 92.5t2 100t0 97 t-1.5 85l4 6q60 -4 119.5 -6t121.5 -2q60 0 120 2t120 6l4 -4q-10 -58 0 -106l-12 -6l-266 4h-154l-2 -4q-6 -34 -8.5 -71t-4 -75t-1.5 -75v-70v-9l8 5q21 14 44 27t47.5 22.5t50.5 14.5q24 5 50 5q62 0 113 -18t87 -52.5t56.5 -84t20.5 -111.5q0 -54 -16.5 -103t-45.5 -91 t-68 -76t-84.5 -58t-95 -37t-97.5 -13q-14 0 -32.5 2t-38 6.5t-38.5 12.5q-19 7 -37 19q-8 20 -15 40t-13 38q-6 16 -11 31t-10 27.5l-9 22.5q-4 9 -6 15z" />
<glyph unicode="6" d="M49 340q0 78 16.5 149t48 133t76 115.5t100 96t120 74.5t137.5 50l6 -4t8 -4q13 -10 25 -12q-94 -30 -165.5 -72.5t-121.5 -101t-79.5 -133.5t-41.5 -170v-11q27 28 52.5 49.5t52.5 36t58 22t69 7.5q58 0 103 -19.5t76 -54.5t47 -83.5t16 -106.5q0 -48 -12 -90.5 t-33 -79.5t-50 -66t-64 -50t-75.5 -32t-83.5 -11q-53 0 -94.5 14t-73.5 39.5t-54 60t-36 75.5t-20.5 87t-6.5 92zM166 289q0 -30 3 -62.5t11 -63.5t22 -59t35 -49t49 -33t66 -12q34 0 61 10t48 28t35.5 42t24 51t13.5 56t4 57q0 44 -9 86.5t-31 76t-58 54.5t-88 21 q-26 0 -51.5 -8t-49 -21t-42.5 -32.5t-31 -43.5q-10 -23 -11 -49t-1 -49z" />
<glyph unicode="7" d="M68 670q2 28 3.5 63t2 72t-0.5 75t-3 72l12 6q78 -4 153 -6t154 -2t155 2t152 6v-38q-41 -70 -84.5 -146t-88 -154t-88 -158t-84 -159.5t-76 -158t-64.5 -152.5q-30 6 -63 6t-58 -6l-6 6q-2 4 -3 7t-1 5q30 42 56 85t52 85l396 666h-130h-254q-30 0 -46.5 -5t-25 -17 t-11.5 -32q-3 -18 -7 -46l-10 -76h-32z" />
<glyph unicode="8" d="M45 223q0 44 15 82.5t41.5 71t61.5 57.5t75 41l10 4q-40 26 -71 50t-53 50.5t-33 56.5t-11 66q0 62 23 110t62.5 80t91.5 49q51 17 109 17q48 0 92 -12t77 -36.5t53 -62t20 -89.5q0 -38 -15 -70.5t-39.5 -60t-55 -50.5t-60.5 -43l-8 -4q44 -22 83 -44t68 -50t45.5 -64.5 t16.5 -87.5q0 -44 -12.5 -83.5t-34.5 -74.5t-53 -63.5t-67 -48.5t-77 -31t-83 -11q-58 0 -107.5 17t-86 49t-57 79t-20.5 106zM133 226q-1 -50 13 -90t41 -68t66.5 -43t88.5 -15q43 0 79.5 19t63.5 49t42 69t15 79q0 38 -11 65.5t-30 49t-45 39.5t-56 34q-24 12 -55 26 t-59 26q-154 -84 -153 -240zM176 754q0 -31 12 -56.5t32 -46.5t44 -37t48 -28l79 -39q28 18 51.5 38t41.5 43.5t28 52t10 61.5q1 39 -10 71.5t-32.5 56.5t-53.5 38t-72 14t-72 -11.5t-55.5 -33t-37 -52.5t-13.5 -71z" />
<glyph unicode="9" d="M39 637q0 68 23 126.5t64 101.5t97.5 68t124.5 25t123 -26t93 -75t58.5 -117t20.5 -154q0 -104 -30.5 -200t-93.5 -175.5t-160 -141t-230 -97.5l-17 8q-12 10 -22 12v6q88 20 164 62.5t132.5 104t91 139.5t40.5 171l2 11q-24 -27 -49 -50.5t-53 -39.5t-60 -26t-72 -10 q-62 0 -108 22t-77 59t-46.5 88t-15.5 108zM150 678q0 -29 4 -58t14 -55.5t24.5 -50.5t35.5 -41t48.5 -27t61.5 -10q44 0 79 18t60 47t38 67.5t13 80.5q0 28 -3 59.5t-12 62t-23 58t-34.5 48t-48.5 33t-65 12.5q-56 0 -93 -22t-59 -56t-31 -78t-9 -88z" />
<glyph unicode=":" horiz-adv-x="342" d="M94 68q1 16 7 30t15.5 25t22.5 18t29 7t31 -7t26 -18t17 -25t6 -30q0 -14 -6 -28t-16 -25t-24 -17t-28 -6t-29 6t-26 17t-18 25t-7 28zM98 553q0 14 6 28.5t16 26t23 18.5t29 7t31 -6.5t26 -17.5t17 -25.5t6 -30.5q0 -14 -6 -27.5t-16 -24t-24 -16.5t-28 -6t-29 6 t-26 16.5t-18 23.5t-7 28z" />
<glyph unicode=";" horiz-adv-x="342" d="M22 -203q24 38 45 76.5t38 79.5t29 84.5t18 89.5q25 4 50 11.5t50 15.5l28 12l17 -16q-18 -46 -40.5 -90t-49.5 -86t-57 -83t-60 -79q-12 -8 -26 -13.5t-29 -11.5zM131 553q0 14 5.5 28.5t15.5 26t23.5 18.5t29.5 7t31.5 -6.5t26.5 -17.5t17.5 -25.5t5.5 -30.5 q0 -14 -6 -27.5t-16.5 -24t-24 -16.5t-28.5 -6q-14 0 -29 6t-26.5 16.5t-18.5 23.5t-6 28z" />
<glyph unicode="&#x3c;" horiz-adv-x="841" d="M74 328v68l706 325v-76l-612 -283l608 -284l-2 -74z" />
<glyph unicode="=" horiz-adv-x="841" d="M74 186v78h698v-78h-698zM76 459v79h698v-79h-698z" />
<glyph unicode="&#x3e;" horiz-adv-x="841" d="M68 4l2 74l610 284l-606 283v76l702 -325v-68z" />
<glyph unicode="?" horiz-adv-x="614" d="M70 766l53 154q19 8 40 16t43 14.5t44 10t43 3.5q52 0 98.5 -13.5t82 -40t56.5 -66.5t21 -92q0 -35 -12.5 -66.5t-33.5 -59.5t-47 -53.5t-53 -49.5t-52.5 -46.5t-46 -45.5t-32.5 -46t-12 -47t9 -40t20 -28q-2 -2 -4.5 -4t-6.5 -4q-4 -3 -8 -4.5t-6 -1.5q-24 14 -40 40 q-15 26 -15 56t16.5 59t40.5 58.5t52.5 59t53 60.5t40.5 64t16 70q0 34 -13 62.5t-35 49.5t-53.5 33t-68.5 12q-24 0 -42 -2t-31.5 -7t-24 -14t-20 -23t-19.5 -32q-11 -19 -23 -44zM196 70q0 18 7 32t17 24t24 16t30 6t30.5 -6t25 -16t16.5 -24t6 -32q0 -14 -6 -28.5 t-17 -25.5t-25 -17.5t-30 -6.5t-30 6.5t-24.5 17.5t-17.5 25q-6 15 -6 29z" />
<glyph unicode="@" horiz-adv-x="1040" d="M45 456q0 72 18 138t50.5 122t79.5 102t104 78.5t124 50t140 17.5q60 0 116.5 -12t107.5 -36t94 -58.5t74.5 -78t49 -96.5t17.5 -113q0 -52 -14.5 -101t-39 -91t-57 -77t-69 -60t-74.5 -39t-72 -14q-26 0 -44.5 10t-31 25.5t-18.5 36t-6 41.5v15q-22 -28 -42 -51 t-40 -38.5t-43 -24t-53 -8.5q-40 0 -74 15.5t-58 42.5t-37 63.5t-13 80.5q0 36 11 73t32 72t49 64.5t61.5 51.5t71 34.5t75.5 12.5q27 0 47 -7t34.5 -20t23.5 -32t15 -43l4 -20l30 110h115l-111 -387q-4 -12 -5 -26.5t2.5 -28t13 -22.5t26.5 -9q22 0 46.5 12.5t49.5 34.5 t49 53.5t41.5 70t28 83.5t10.5 95q0 44 -12 86t-35.5 79.5t-57 68.5t-76.5 53.5t-93 34.5q-50 13 -108 13q-64 0 -123 -14.5t-110 -41.5t-93 -66t-71.5 -87t-46 -105.5t-16.5 -121.5t16 -121t46 -105.5t71.5 -86.5t92.5 -65t110 -41q60 -15 124 -15q56 0 107 14.5t97 40 t85 62t71 80.5h28q12 0 25 1t21 1q-33 -60 -80.5 -108t-105.5 -82t-123 -52t-134 -18q-72 0 -138.5 16t-124 46t-105 73t-80.5 97t-51.5 118t-18.5 134zM348 352q0 -21 4 -43.5t14 -41.5t28 -31.5t44 -12.5q32 0 60 19t50 49.5t39 68.5t28 77t16.5 74t5.5 59q0 16 -4 34 t-13.5 35t-24.5 28t-36 11q-32 0 -59.5 -17t-51.5 -45t-42 -63t-31 -71.5t-20 -70t-7 -59.5z" />
<glyph unicode="A" horiz-adv-x="1081" d="M22 -8v34q26 6 44 9t31 9t24 19t25 41q84 185 150 330t115 252.5t81 178.5t46 108h38l329 -795q8 -18 14.5 -35t14.5 -33t18 -31t25 -28q13 -12 31 -18.5t42 -6.5v-12q0 -6 1 -12t1 -10q-48 4 -91 6t-91 2t-91.5 -2t-88.5 -6q-2 2 -2 12v22q26 0 52 5t50 16q18 8 20 26 q3 17 -5 37l-84 208h-405q-4 -10 -14 -30t-21 -44t-23 -50t-21 -49t-15.5 -41t-6.5 -26q0 -20 12 -30t30 -14t39 -4q22 -2 40 -4q-2 -3 -2 -5.5v-6.5v-22q-39 4 -76.5 6t-79.5 2t-80 -2t-76 -6zM332 368h366l-178 437z" />
<glyph unicode="B" horiz-adv-x="848" d="M45 932v32q117 -6 233 -6q62 0 121 3t119 3q49 0 93 -9t77 -31.5t52.5 -59t19.5 -90.5q0 -47 -20.5 -84.5t-53.5 -66.5t-74.5 -47t-85.5 -27l-44 -9l46 -2q53 -2 102.5 -14.5t88 -39t61.5 -68.5t23 -102q0 -46 -15.5 -90t-42.5 -81.5t-65 -67.5t-84 -50.5t-98 -28.5 q-32 -5 -65 -6q-20 0 -40 2q-38 4 -75.5 6t-75.5 2q-37 0 -73.5 -2t-74.5 -6q-2 3 -2 6.5v7.5v22q22 6 36 15t21.5 22t10 29t2.5 35l6 672q0 43 -6 69t-20.5 40t-38 18t-58.5 4zM284 56q28 -5 59 -9t73 -4q56 0 102 16.5t79.5 48.5t52 78.5t18.5 104.5q0 59 -18 101t-54 68 t-89 38t-120 12h-98zM289 559l4 -2q24 -4 49.5 -4h50.5q46 0 88.5 10.5t75 33t52 59.5t19.5 90q0 52 -16.5 85t-45.5 53t-67.5 28t-82.5 8q-57 0 -117 -18q-4 -24 -6 -52q-2 -30 -2 -56z" />
<glyph unicode="C" horiz-adv-x="985" d="M35 484q0 80 20.5 148t57.5 124t88 99t111 72t127 43.5t137 14.5q46 0 91 -5t90 -13.5t88.5 -20.5t86.5 -24q-11 -50 -16.5 -100t-12.5 -101h-33q0 33 1.5 56t-3 41t-18 33t-43.5 31q-22 12 -46 22t-51.5 17t-60.5 11t-71 4q-88 0 -162 -30t-127.5 -85t-83 -133 t-29.5 -174v-17q0 -61 12 -117q14 -64 43 -117t70 -95t93 -72t115 -45.5t134 -15.5q76 0 148.5 22t136.5 64l8 -9l-28 -59q-33 -18 -73.5 -33.5t-82.5 -26t-82.5 -16t-73.5 -5.5q-78 0 -150 14.5t-135 44t-114 72.5t-88 100t-56 127q-18 66 -18 146v8z" />
<glyph unicode="D" horiz-adv-x="1077" d="M41 938v6v20q135 -6 268 -6q70 0 137.5 3t135.5 3q98 0 183 -28t147.5 -82t98 -134t35.5 -182q0 -84 -20.5 -159t-59 -138t-92.5 -112t-120 -82t-143 -47q-54 -10 -111 -10q-25 0 -50 2q-48 4 -93 6t-93 2t-91.5 -2t-88.5 -6q-2 3 -2 6.5v7.5v20q18 4 32 10t24 16t15 25 t5 37l6 670q0 48 -4 77.5t-17 45t-36.5 20.5t-63.5 5q-2 3 -2 6zM280 135q0 -18 1 -39.5t5 -39.5q34 -4 68 -7.5t68 -3.5h21q77 1 139 13q70 14 124.5 43t93 71t62.5 93t36 109.5t12 121.5q0 113 -32 191.5t-89 128.5t-135 73t-170 23q-50 0 -97.5 -2.5t-93.5 -6.5 q-4 -32 -5.5 -63t-1.5 -62z" />
<glyph unicode="E" horiz-adv-x="848" d="M45 932v32q126 -6 252 -6q33 0 63 1l60 2t63 2t70 1h66.5t62.5 -0.5t55 -2t43 -3.5q-7 -26 -11 -51.5t-6.5 -51.5t-4.5 -52.5t-4 -52.5h-33l-1 9q-1 9 -2 23t-2.5 31t-4 32t-6 27t-7.5 15q-3 2 -14.5 4t-29.5 4.5t-39 5t-43.5 4.5t-44 3.5t-39.5 1.5q-48 0 -91.5 -3.5 t-87.5 -3.5q-4 -32 -6 -62.5t-2 -60.5l-4 -266h6q75 0 129 -1q18 0 34 -1q32 0 57 2q37 2 59 7t34.5 18t16.5 35t4 57h15q6 0 10 1q6 1 10 1l-2 -315h-35q0 39 -3 64t-14.5 40.5t-32.5 22.5t-58 10q-28 2 -66 2h-26q-55 -1 -132 -1h-6l-2 -276q0 -18 0.5 -39t1.5 -39.5 t3 -31.5q2 -12 5 -14q1 -2 11 -4t26 -3t36 -1h41t41 0.5t36 0.5q20 0 44 0.5t49 2.5t49 4t43.5 5t32 7t15.5 8q6 12 9.5 28t6.5 35t6 40t7 42h36q-4 -23 -9 -49q-5 -28 -5 -60l-2 -112q-18 -3 -43.5 -5t-55 -2.5t-62.5 -0.5q-11 0 -22 -1l-44 1q-62 2 -123.5 5t-128.5 3 q-64 0 -125 -2t-123 -6q-2 2 -2 12v22q26 0 48 7t38.5 23t26.5 41t10 61l6 643q0 40 -3 65t-15.5 38.5t-39 19.5t-75.5 8z" />
<glyph unicode="F" horiz-adv-x="772" d="M37 -8v34q48 2 75.5 8t40.5 20t16 38q3 26 3 66l6 643q0 40 -3 65t-15.5 38.5t-39 19.5t-75.5 8v32q126 -6 252 -6q66 0 129 2q64 2 127 4h66h32h31q30 0 55 -2t43 -4q-13 -50 -17.5 -102t-8.5 -106h-33q0 20 -1.5 36.5t-4.5 33t-6 31.5t-7 31v4l-4 1q-26 8 -51.5 12.5 t-52 7t-53.5 3t-53 0.5q-48 0 -94 -3.5t-85 -3.5q-2 -19 -5 -43t-3 -53l-4 -293h6q75 0 129 -1q18 0 34 -1q32 0 57 2q37 2 59 7t34.5 18t16.5 35t4 57h15q6 0 10 1q6 1 10 1l-2 -315h-35q0 39 -3 64t-14.5 40.5t-32.5 22.5t-58 10q-28 2 -66 2h-26q-55 -1 -132 -1h-6 l-2 -298q0 -40 3 -65t15.5 -39t38.5 -20q27 -6 74 -8v-12q0 -6 1 -12t1 -10q-51 4 -99.5 6t-98.5 2t-97.5 -2t-95.5 -6z" />
<glyph unicode="G" horiz-adv-x="1063" d="M35 477q0 80 19.5 148.5t55.5 124.5t87.5 100t115.5 74t139 46q74 15 158 15q46 0 91.5 -5t90 -13.5t88.5 -20.5l88 -24q-10 -50 -17 -100t-13 -101h-30q-2 28 -2 51t-5 42.5t-19 36.5q-12 17 -40 31q-22 12 -46 22t-51.5 17t-60 11t-72.5 4q-100 0 -181 -31.5 t-137.5 -88t-87 -134.5t-30.5 -172q0 -108 29 -197.5t86.5 -154t142 -100.5t194.5 -36q41 0 76 4t61.5 12t43.5 19t23 27q4 10 6 29t2 42t-0.5 46.5t-1.5 44t-1.5 36.5t-0.5 21q-1 12 -12.5 18t-31.5 9t-49 4.5t-65 3.5q-2 3 -2 6v6v20h332v-26q-26 -4 -39 -22t-16 -54 q-1 -17 -1 -40t1 -50q3 -56 7 -135q-17 -4 -31.5 -7.5t-31.5 -9.5q-34 -8 -72.5 -17.5t-79 -18t-80 -13.5t-73.5 -5q-78 0 -150 13t-134 41t-113.5 69.5t-87 97.5t-54.5 127q-18 67 -18 148v9z" />
<glyph unicode="H" horiz-adv-x="1159" d="M37 -8v34q48 2 75.5 8t40.5 20t16 38q3 26 3 66l6 643q0 40 -3 65t-15.5 38.5t-39 19.5t-75.5 8v32q93 -6 193 -6q98 0 196 6v-12q0 -5 1 -10.5t1 -9.5q-48 -2 -75 -8t-40.5 -19.5t-16.5 -38t-3 -65.5l-2 -265h571l2 265q0 40 -3 65t-15.5 38.5t-39 19.5t-72.5 8 q-2 3 -2 6v6v20q95 -6 192 -6q100 0 198 6v-32q-48 -2 -75 -8t-40 -19.5t-16 -38t-3 -65.5l-7 -643q0 -40 2.5 -65t15.5 -39t40 -20t75 -8v-34q-50 4 -99 6t-99 2t-96.5 -2t-94.5 -6q-2 3 -2 6.5v7.5v20q48 2 75.5 8t40.5 20t16 38q3 26 3 66l2 330h-571l-2 -330 q0 -40 3 -65t15.5 -39t38.5 -20q27 -6 74 -8v-12q0 -6 1 -12t1 -10q-51 4 -99.5 6t-98.5 2t-97.5 -2t-95.5 -6z" />
<glyph unicode="I" horiz-adv-x="463" d="M37 -8v34q48 2 75.5 8t40.5 20t16 38q3 26 3 66l6 643q0 40 -3 65t-15.5 38.5t-39 19.5t-75.5 8v32q93 -6 193 -6q98 0 196 6v-12q0 -5 1 -10.5t1 -9.5q-48 -2 -75 -8t-40.5 -19.5t-16.5 -38t-3 -65.5l-6 -643q0 -40 3 -65t15.5 -39t38.5 -20q27 -6 74 -8v-12q0 -6 1 -12 t1 -10q-51 4 -99.5 6t-98.5 2t-97.5 -2t-95.5 -6z" />
<glyph unicode="J" horiz-adv-x="459" d="M-20 -172h2l2 2l3 3t3 1q12 -7 21 -12t18 -8.5t19 -4.5t24 -1q28 0 45.5 12t28 31t14.5 43t4 48l8 859q0 40 -3 65t-16 38.5t-39 19.5t-73 8q-2 3 -2 6v6v20q93 -6 195 -6q96 0 194 6v-12q0 -5 1 -10.5t1 -9.5q-48 -2 -75 -8t-40.5 -19.5t-16.5 -38t-3 -65.5l-6 -641 q0 -34 -0.5 -73t-8.5 -80t-26 -83q-20 -43 -54 -86q-26 -32 -53.5 -53t-56.5 -34t-57 -18q-27 -5 -53 -5v100z" />
<glyph unicode="K" horiz-adv-x="1009" d="M37 -8v34q48 2 75.5 8t40.5 20t16 38q3 26 3 66l6 643q0 40 -3 65t-15.5 38.5t-39 19.5t-75.5 8v32q93 -6 193 -6q98 0 196 6v-12q0 -5 1 -10.5t1 -9.5q-48 -2 -75 -8t-40.5 -19.5t-16.5 -38t-3 -65.5l-4 -317q36 24 62 48q27 24 49 44l315 308q8 8 13 18.5t7.5 20.5 t3.5 20.5t1 18.5q30 0 57.5 -2t56.5 -2q58 0 113 6v-32q-32 -2 -53 -5t-38.5 -9t-33.5 -17t-39 -31l-381 -342l461 -436q13 -13 24 -24.5t24 -20.5t28 -15t37 -6v-12q0 -6 1 -12t1 -10q-23 4 -47.5 6t-46.5 2q-24 0 -49 -2t-48 -6q-10 17 -25.5 29.5t-29.5 25.5l-442 420 l-21 -13l-2 -296q0 -40 3 -65t15.5 -39t38.5 -20q27 -6 74 -8v-12q0 -6 1 -12t1 -10q-51 4 -99.5 6t-98.5 2t-97.5 -2t-95.5 -6z" />
<glyph unicode="L" horiz-adv-x="848" d="M43 932v32q93 -6 193 -6q98 0 196 6v-12q0 -5 1 -10.5t1 -9.5q-48 -2 -75 -8t-40.5 -19.5t-16.5 -38t-3 -65.5l-7 -745q37 -2 64.5 -4t50.5 -2.5t45 -0.5h46q38 0 69.5 2t59.5 5.5t53 8t49 11.5q2 4 3.5 8t3.5 11t6 18t9 27t11 40q7 24 16 56l35 -2q-11 -58 -17 -116 t-14 -118q-18 -3 -42 -5t-52 -2.5t-58 -0.5q-10 0 -20 -1l-40 1q-60 2 -119 5t-121 3q-60 0 -119 -2t-119 -6v34q24 6 39 18t23.5 31.5t11.5 49t4 69.5l6 607q0 27 -1 47t-4.5 34t-12 23t-23 14.5t-37 8t-55.5 4.5z" />
<glyph unicode="M" horiz-adv-x="1319" d="M22 -1.5v7.5v20h19q32 0 54 4t35.5 15t20.5 31t7 51l6 705q0 32 -6 51t-20 30t-36 15t-53 4h-19v32q64 -6 130 -6q33 0 65.5 2t65.5 4l365 -788l298 604q23 48 42 92t36 92q62 -6 129 -6q64 0 129 6v-32h-16q-31 0 -52.5 -4t-35.5 -15t-20 -31q-7 -18 -7 -50l-6 -674 q0 -40 2 -65t14.5 -39t38.5 -20q27 -6 76 -8v-34q-50 4 -98 6t-98 2t-97.5 -2t-95.5 -6v34q48 2 75 8t39.5 20t15.5 38q3 26 3 66l6 666l-401 -842h-23l-391 842l-6 -697q0 -32 6.5 -51.5t20.5 -30.5t36.5 -15t55.5 -4h16v-34q-42 4 -81 6t-81 2t-81 -2t-81 -6q-2 3 -2 6.5z " />
<glyph unicode="N" horiz-adv-x="1157" d="M16 -8v34h17q33 0 56 4t36.5 15t20 31t6.5 51l6 705q0 32 -6 51t-18 30t-32.5 15t-50.5 4h-14v32q63 -6 117 -6q58 0 118 6l664 -843l6 711q0 32 -6 51t-20 30t-36 15q-20 4 -52 4h-19v32q42 -3 82 -4.5t82 -1.5q83 0 159 6v-12q0 -5 1 -10.5t1 -9.5h-18q-33 0 -56 -4 t-37.5 -15t-20.5 -31q-6 -18 -6 -50l-7 -814l5 -46l-105 18l-678 836l-6 -699q0 -32 6.5 -51.5t20 -30.5t36 -15t56.5 -4h18v-34q-42 4 -81 6t-81 2t-82 -2t-82 -6z" />
<glyph unicode="O" horiz-adv-x="1093" d="M35 484q0 72 17 136.5t49 120t78.5 101t105 77t128.5 49t150 17.5q112 0 204.5 -31t159 -91.5t103.5 -149t37 -203.5q0 -74 -19.5 -143t-54.5 -129t-84 -109t-109 -84t-130 -54t-146 -19q-71 0 -134.5 16t-118.5 46t-99.5 74.5t-75 101t-46.5 125.5q-15 65 -15 140v9z M178 530q0 -61 9.5 -122.5t30 -119t51.5 -107t75 -85.5t100 -56q51 -18 113 -18h13q88 2 154.5 36t111 93t67.5 139.5t23 176.5q0 104 -23 190.5t-70.5 148.5t-120 96t-172.5 34q-92 0 -160 -31t-113 -85t-67 -128t-22 -162z" />
<glyph unicode="P" horiz-adv-x="839" d="M37 -8v34q48 2 75.5 8t40.5 20t16 38q3 26 3 66l6 643q0 40 -3 65t-15.5 38.5t-39 19.5t-75.5 8v32q119 -6 241 -6q64 0 124 3t122 3q34 0 69 -5t67 -15t59 -27t47 -41t31.5 -54.5t11.5 -69.5q0 -64 -26.5 -117t-71.5 -91t-104 -60t-123 -25q-26 -2 -49 1.5t-37 8.5 q-4 10 -6.5 19.5t-6.5 19.5q17 -4 38 -7t44 -3q46 0 84.5 15t66.5 42t44 65t16 84q0 56 -16 97t-46 67.5t-73 40t-97 13.5q-37 0 -70 -6q-32 -6 -68 -13l-4 -2q-8 -20 -9.5 -43.5t-1.5 -56.5l-6 -643q0 -40 3 -65t15.5 -39t38.5 -20q27 -6 74 -8v-12q0 -6 1 -12t1 -10 q-51 4 -99.5 6t-98.5 2t-97.5 -2t-95.5 -6z" />
<glyph unicode="Q" horiz-adv-x="1093" d="M35 479q0 72 17.5 137.5t49.5 121.5t79 102t105.5 78t128 49.5t148.5 17.5q112 0 204.5 -31.5t159 -92.5t103.5 -150t37 -205q0 -72 -18.5 -138t-52 -124.5t-80 -107t-102.5 -83.5t-120 -56t-132 -23q14 -3 27 -6.5t25 -7.5l24 -8t26 -10l112 -42q40 -16 76 -27.5 t70 -17.5q31 -6 63 -6q3 0 5 1q35 0 71 8v-26q-26 -14 -49.5 -29t-49.5 -33l-12 -10q-1 -1 -4 -1q-5 0 -16 3q-18 3 -45.5 11t-63 19.5t-74 23.5t-78 23.5t-74.5 21t-64 15t-47 5.5q-10 0 -18 -2t-24 -10l-74 -41q0 10 2 18t2 17q38 29 77 54t79 48q5 3 9 5t7 4h-20 q-109 2 -199 37t-154.5 100t-100 158t-35.5 210zM170 526q0 -62 10 -122.5t31 -116.5t53.5 -103.5t77 -83.5t101.5 -56t127 -20q62 0 113 17t91 46t69 70t48.5 89.5t29 103.5t9.5 113q0 102 -24 187t-73 147t-122 97.5t-171 37.5h-11q-85 0 -150 -29q-69 -31 -116 -86 t-70 -130t-23 -161z" />
<glyph unicode="R" horiz-adv-x="927" d="M37 -8v34q48 2 75.5 8t40.5 20t16 38q3 26 3 66l6 643q0 40 -3 65t-15.5 38.5t-39 19.5t-75.5 8v32q117 -6 237 -6q122 0 246 6h16q62 0 108 -14q52 -16 86 -44t50.5 -67t16.5 -83q0 -37 -11 -68.5t-30.5 -58.5t-45.5 -48.5t-56 -38.5t-63 -29.5t-65 -20.5l-8 -2 l320 -422q8 -12 18 -19t20 -11t21 -7t21 -5q-2 -3 -2 -5.5v-6.5v-22q-23 4 -45 6q-21 2 -45 2q-23 0 -46.5 -2t-47.5 -6q-17 23 -29.5 41.5t-24.5 36.5l-330 428l4 16h62.5t63.5 4q39 7 73.5 24.5t59.5 43.5t40 59.5t15 73.5q0 58 -19 97t-50 62.5t-70 33.5t-79 10 q-38 0 -75 -6t-69 -15q-8 -20 -9.5 -43.5t-1.5 -56.5l-6 -643q0 -40 3 -65t15.5 -39t38.5 -20q27 -6 74 -8v-12q0 -6 1 -12t1 -10q-51 4 -99.5 6t-98.5 2t-97.5 -2t-95.5 -6z" />
<glyph unicode="S" horiz-adv-x="727" d="M37 676q2 72 30.5 129t75.5 97t108 61.5t128 21.5q34 0 67.5 -5.5t66.5 -14t66 -20t66 -23.5q-4 -17 -7 -30.5t-5 -31.5q-4 -31 -6.5 -60.5t-4.5 -59.5h-38q1 18 1 34t-1 30q-2 28 -12 46q-14 22 -39 38t-54 25.5t-59 14t-56 4.5q-43 0 -82.5 -15t-70.5 -42t-49 -64.5 t-18 -83.5t15 -77t42 -50.5t63 -30.5t76 -18t82 -12.5t82 -13.5t76 -21t63 -36t42 -57.5t15 -86.5q0 -60 -17 -109t-46 -88t-70 -68t-88 -49t-99 -29t-104 -9q-62 0 -119 14t-114 40q4 39 7 84q3 44 3 86v36h39v-62q0 -23 3 -44.5t17 -33.5q22 -19 49 -31.5t56 -20.5t59 -11 t58 -3q47 0 92.5 15t82 42.5t59 68.5t22.5 94q0 52 -16 85t-43 54t-63 31t-76 15t-82.5 9t-82.5 11t-75.5 20.5t-61.5 39t-40 65.5q-13 37 -13 92v8z" />
<glyph unicode="T" horiz-adv-x="852" d="M35 962q99 0 197 -2t202 -2q198 0 400 6q-6 -76 -6 -145q0 -18 -2 -35q0 -18 -2 -36q-4 -2 -7 -2h-6h-21q-2 29 -6 54l-8 50q-4 28 -16 37.5t-35 9.5l-225 6q-4 -36 -6 -69.5t-2 -75.5l-4 -600q0 -40 3 -65t15.5 -39t39.5 -20q26 -6 72 -8v-34q-50 4 -97.5 6t-98.5 2 t-96.5 -2t-93.5 -6q-2 3 -2 6.5v7.5v20q48 2 75 8t40 20t16 38q3 26 3 66l4 600l-4 145l-220 -6q-12 0 -21 -2t-16 -7.5t-11 -14.5t-6 -23q-4 -25 -9 -50.5t-7 -51.5q-3 -2 -6.5 -2h-5.5h-21q0 20 -1 37t-1 36q1 35 1 71v7q0 32 -5 65z" />
<glyph unicode="U" horiz-adv-x="1081" d="M30 944v20q95 -6 193 -6t197 6v-12q0 -5 1 -10.5t1 -9.5q-48 -2 -75.5 -8t-41 -19.5t-16.5 -38t-3 -65.5l-4 -489q0 -76 19 -127t56 -81t92 -42.5t125 -12.5q79 0 135.5 23.5t93.5 67.5t54 106t17 139l4 447q0 32 -6 51t-19.5 30t-35 15t-53.5 4h-16v32q84 -6 162 -6 q82 0 161 6v-12q0 -5 1 -10.5t1 -9.5h-19q-33 0 -55.5 -4t-37 -15t-21.5 -31q-6 -18 -6 -50l-4 -518q0 -58 -15 -106t-42 -86t-63.5 -66t-80.5 -47t-93.5 -28t-101.5 -9q-47 0 -96.5 5t-96 20t-85.5 43q-40 28 -64 74q-12 24 -19 45t-10 42t-3 44v50l4 506q0 40 -3 65 t-16 38.5t-39 19.5t-73 8q-2 3 -2.5 6t-0.5 6z" />
<glyph unicode="V" horiz-adv-x="1003" d="M20 932v32q88 -6 180 -6q90 0 183 6v-32q-47 0 -72.5 -5t-37 -13.5t-11.5 -19t4 -20.5l270 -722l256 638q7 20 14.5 38.5t11 35t1 29.5t-15.5 22t-38 14q-18 4 -44 4q-11 0 -23 -1q-2 3 -2 6v6v20q74 -6 148 -6q72 0 145 6v-32q-32 2 -51.5 -6.5t-31.5 -24t-20 -36.5 t-16 -44l-340 -833h-61l-31 88l-296 760q-11 28 -17 46t-14.5 28.5t-23.5 15t-44 6.5h-23z" />
<glyph unicode="W" horiz-adv-x="1392" d="M20 932v32q86 -6 172 -6q84 0 170 6v-32q-32 2 -53 -1t-33 -11t-17.5 -18.5t-6.5 -23t1.5 -25.5t4.5 -25l140 -644l310 789h38l40 -127l232 -670l186 662q4 12 6.5 24.5t2 24t-6 20.5t-19 16t-35.5 9t-56 0v32q71 -6 141 -6q73 0 141 6v-12q0 -5 1 -10.5t1 -9.5 q-21 0 -35.5 -1t-24.5 -7t-17 -17t-13 -31l-210 -676l-58 -212h-62l-274 774l-254 -633l-51 -141h-61q-8 34 -16 69t-15 72l-160 723q-6 24 -13 40t-18 25t-27.5 12t-42.5 3h-8z" />
<glyph unicode="X" horiz-adv-x="925" d="M20 -8v34q29 0 47 6t30.5 17t23.5 27t27 36l270 363l-174 289q-19 29 -37.5 56.5t-40.5 47.5t-50 30q-20 8 -46 8q-10 0 -21 -1q-2 4 -2 6.5v6.5v18q25 3 47.5 6t42.5 6q18 2 35 5t31.5 5t24.5 4t14 2q12 -6 22 -14t18.5 -19t16.5 -23q9 -14 17 -26l180 -306l266 382h133 v-32q-27 0 -44 -6t-29 -14t-20 -19q-10 -11 -18 -21l-264 -338l268 -430l21 -31.5t19 -22.5t25 -13.5t40 -4.5h8v-32q-24 0 -48.5 3t-49.5 3t-49 -2q-26 -2 -52 -6l-20 36l-236 402l-4 -6q-6 -8 -12 -17t-17 -26t-30 -45t-48.5 -73.5t-73 -111.5t-103.5 -159q-17 4 -34.5 6 t-35.5 2q-17 0 -33.5 -2t-34.5 -6z" />
<glyph unicode="Y" horiz-adv-x="925" d="M20 914v30l146 29q8 2 15 2q5 0 11 -1q11 -3 20 -9.5t18 -16.5q8 -8 16 -20q6 -8 12 -17t17 -27t28.5 -47.5t45 -78t66.5 -120.5t95 -173l150 235q42 66 79 132t72 132h107v-14q-30 -34 -63.5 -75t-67.5 -86t-67 -91.5t-62 -90.5t-52.5 -83.5t-37.5 -71.5 q-12 -30 -16.5 -55.5t-4.5 -50.5l-2 -188q0 -27 1 -47t4.5 -34.5t12 -23t23 -14t36.5 -8.5t54 -5v-12q0 -6 1 -12t1 -10q-51 4 -99.5 6t-99.5 2q-50 0 -96 -2t-94 -6q-2 3 -2.5 6.5t-0.5 7.5v20q48 2 76 8t41 20t16 38q3 26 3 66l2 204q0 11 -1 23q-1 13 -7 25l-166 294 q-10 19 -24 42.5t-31 47.5t-37 46t-42 39t-46 27t-50 8z" />
<glyph unicode="Z" horiz-adv-x="925" d="M22 -8v36l693 882h-101q-80 0 -158 -2t-157 -5q-34 -1 -57.5 -3t-38.5 -6t-23 -10t-12 -15t-6 -21q0 -12 -2 -27l-10 -77h-34q5 30 7 55t2 55q0 54 -6 110h774v-36l-21 -20l-674 -855l376 -4q24 0 52 -0.5t57 0.5t57 5t52 12q12 4 19.5 11.5t12 19t7.5 26.5l7 35l12 78 h34l-2 -29v-2l5 -213q-110 4 -216 6q-107 2 -217 2t-216 -2t-216 -6z" />
<glyph unicode="[" horiz-adv-x="459" d="M114 -160q0 22 2 48.5t4 58t3.5 67t1.5 74.5l6 678q0 79 -3.5 141.5t-2.5 106.5l2 4q36 -5 67.5 -5.5t67.5 -0.5t68 0.5t68 5.5l4 -4v-31l-6 -4h-48q-19 0 -37 -1.5t-32.5 -7t-23.5 -15t-9 -23.5q-1 -18 -2 -39.5t-2 -44t-1.5 -43.5t-0.5 -39l-6 -678v-39v-43.5v-44 t2 -39.5q0 -14 8 -23t23 -14.5t33.5 -7.5t39.5 -2h47l4 -6v-29l-4 -4q-34 4 -67.5 5t-67.5 1q-32 0 -65.5 -1t-67.5 -5z" />
<glyph unicode="\" horiz-adv-x="841" d="M127 1018h90l508 -1018h-92z" />
<glyph unicode="]" horiz-adv-x="459" d="M66 -131l4 6h46q21 0 40.5 2t34.5 7.5t24 14.5t9 23v39.5t1 44t2 43.5t1 39l6 678v39t-1 43.5t-1 44t-1 39.5q-1 14 -10 23.5t-23 15t-33 7t-40 1.5h-45l-4 4v31l4 4q36 -5 68 -5.5t67 -0.5q36 0 66.5 0.5t66.5 5.5l4 -4q-2 -44 -6 -106.5t-4 -141.5l-6 -678 q0 -79 3 -141.5t3 -106.5l-4 -4q-34 4 -67 5t-66 1q-34 0 -67.5 -1t-67.5 -5l-4 4v29z" />
<glyph unicode="^" horiz-adv-x="841" d="M78 456l307 562h90l295 -562h-88l-254 462l-260 -462h-90z" />
<glyph unicode="_" d="M-2 -154h692v-78h-692v78z" />
<glyph unicode="`" horiz-adv-x="459" d="M30.5 932q3.5 18 18.5 28q12 8 24.5 7t23.5 -9t22 -18t21 -20l184 -182h-44l-200 122q-12 8 -23.5 16t-19.5 21q-10 17 -6.5 35z" />
<glyph unicode="a" d="M43 150q0 40 11 69.5t30.5 51t45.5 37t56 26t62 18.5q34 8 66 14l136 27v5q0 43 -9 77.5t-29 58.5t-52 37t-78 13q-14 0 -29 -1t-28.5 -4t-25.5 -8t-21 -14q-14 -13 -24 -37t-21 -55l-12 4q-5 2 -9 4q-6 2 -10 2v41v16t1 14t3 11q0 5 6 8q22 13 47 28t54 27t60 20.5 t65 8.5q70 0 114 -19.5t67.5 -55.5t31.5 -86.5t8 -112.5l-2 -259q0 -28 5.5 -45.5t17 -27t28.5 -13.5t39 -4v-12q0 -6 1 -12t1 -10q-26 4 -50.5 6t-49.5 2q-26 0 -51.5 -2t-55.5 -6q4 20 4 36v30l2 63l-162 -119q-9 -7 -16.5 -12.5t-16 -9.5t-18 -6t-20.5 -2q-85 0 -129 46 q-43 46 -43 132zM154 145q0 -21 8 -39q10 -20 26 -33t37 -20.5t43 -7.5t41.5 7.5t37 18.5t33.5 24.5t32 25.5q11 8 20.5 20.5t15.5 26.5l2 189q-54 -7 -100 -18t-82 -23q-38 -14 -61 -34t-35 -42t-15 -46q-3 -23 -3 -49z" />
<glyph unicode="b" horiz-adv-x="766" d="M6 926v32q56 8 111 18q55 12 115 30q2 -4 3 -9t1 -16l-8 -213l-5 -268l11 10q28 29 53.5 54.5t53.5 44.5t61 29.5t75 10.5q62 0 108.5 -22.5t77.5 -60.5t46.5 -89t15.5 -109q0 -33 -7 -67t-20.5 -66.5t-32.5 -62t-43 -53.5q-36 -25 -71 -53t-76 -52q-3 -2 -12 -6 t-19.5 -9t-20 -8t-11.5 -3q-18 -2 -32.5 -3t-31.5 -1q-48 0 -91.5 11.5t-82.5 39.5l-58 -51l-16 6q0 14 3 27t3 30l8 164l5 635q0 24 -10.5 39t-27.5 24t-37 13t-38 4zM221 125q12 -20 32.5 -35t45.5 -25t50 -15t47 -5q39 0 70 11.5t55 31t41.5 46t28.5 57.5t16 65t5 68 q0 46 -11 90t-35 78t-61 55t-89 21q-16 0 -37 -5.5t-42 -15t-42 -22.5t-37 -28.5t-25.5 -33t-9.5 -35.5z" />
<glyph unicode="c" horiz-adv-x="614" d="M47 293q0 52 14.5 99.5t41 86.5t62 71t77.5 54t88 33.5t92 11.5q24 0 44 -2.5t38 -6.5t37 -11.5t43 -16.5q-3 -16 -6 -31t-5.5 -35.5t-4.5 -47t-5 -62.5h-29q-2 22 -3 37t-3 25t-4 16l-4 12q-6 15 -21 26.5t-35 19.5t-44 12t-48 4q-58 0 -98 -16.5t-64.5 -47t-35.5 -74.5 q-12 -44 -12 -98q0 -84 22 -144t58 -98t84 -56.5t100 -18.5q36 0 70 11.5t74 29.5q4 -5 6 -7q2 -1 2 -3q-6 -12 -12 -23t-13 -21q-28 -13 -52.5 -22.5t-48.5 -15.5t-47 -9t-47 -3q-62 0 -118 21t-99 62t-68.5 101t-25.5 137z" />
<glyph unicode="d" horiz-adv-x="848" d="M49 303q0 24 3.5 49t10.5 49.5t18 48.5t25 44q16 21 35 36.5t41 28.5t45 25t47 24q18 9 33.5 16.5t30 13t30.5 8.5t38 3q24 0 44 -3.5t39.5 -9.5t40 -14t44.5 -18l6 -4l2 246q0 24 -11 39t-27.5 24t-36 13t-38.5 4v32q57 8 111 18q54 12 114 30q0 -4 2 -11t2 -14l-8 -213 l-6 -649q0 -24 4.5 -41.5t15 -29t28.5 -17t44 -5.5h20v-34q-29 4 -56.5 6t-57.5 2t-56 -2t-56 -6q4 23 5 39.5t1 34.5v67l-160 -137q-23 -4 -43 -8q-19 -4 -43 -4q-74 0 -127 24t-87 67.5t-50.5 102t-16.5 125.5zM160 332q0 -50 14 -99t42 -87.5t70 -62t97 -23.5 q22 0 43.5 6t41 18t36.5 28q18 16 32 34q14 20 23 39t13 37.5t5 38.5t1 44l2 185q-22 22 -46 41t-49 33t-52 22t-56 8q-56 0 -96.5 -17t-67 -50t-40 -82t-13.5 -113z" />
<glyph unicode="e" horiz-adv-x="663" d="M49 297q0 24 2.5 57.5t13.5 70.5t36 75q25 40 69 74q21 16 45.5 29t50.5 23.5t52 16.5t52 6q58 0 106.5 -17.5t83 -50t53 -79t18.5 -104.5q0 -14 -1.5 -27.5t-1.5 -30.5q-62 -8 -124 -12t-125 -4h-209v-6q0 -62 15 -113.5t46 -89t79.5 -58t115.5 -20.5q26 0 48 5.5 t43.5 14.5t42.5 21q20 10 40 22l10 -10l-22 -43q-25 -16 -52 -30t-55.5 -24t-58.5 -15.5t-60 -5.5q-79 0 -138 23t-98.5 66t-58.5 103q-18 57 -18 126v7zM170 370h4q26 -4 52 -5t52 -1h236q0 46 -6 90t-24.5 79t-51.5 56t-86 21q-48 0 -82 -21t-55 -55t-30 -76t-9 -83v-5z " />
<glyph unicode="f" horiz-adv-x="459" d="M33 -8v34q42 2 66 12t35.5 30t14.5 54t3 85l4 333l-98 -8v23l98 47v62q0 32 2 57t7.5 46t14.5 39t21.5 36t29.5 36q17 20 39 42q18 18 33.5 33t32 27t37 19t47.5 7q17 0 31 -1t26 -7v-101l-4 -4q-2 -2 -6 -2q-20 17 -43.5 25t-51.5 8q-30 0 -49.5 -9t-31.5 -24.5 t-17.5 -36t-7.5 -42.5t-2 -45v-44l-2 -123h182l-6 -60h-176l-2 -333q0 -52 2.5 -86.5t14 -55.5t33.5 -30t62 -9v-12q0 -6 1.5 -12t1.5 -10q-44 4 -86.5 6t-85.5 2q-42 0 -84.5 -2t-85.5 -6z" />
<glyph unicode="g" horiz-adv-x="772" d="M43 -192q0 10 3.5 26t9 33.5t14 32t18.5 20.5l117 66l8 4q-18 8 -34.5 13.5t-30 12t-22.5 15.5q-10 9 -12 25q-3 18 1.5 34t15.5 29q12 13 25.5 24.5t29.5 23t33 23t35 25.5l-12 2q-8 2 -23.5 6.5t-33.5 13.5t-36.5 23t-33.5 34t-25 47t-10 63q0 50 18.5 90t51.5 71 t78.5 50t99.5 27q6 0 13 1.5t15.5 3t17 2t15.5 0.5q48 0 90.5 -14t77.5 -45h199l2 -6l-33 -54h-133q9 -21 14 -42q4 -22 4 -40q-1 -28 -9.5 -54.5t-25 -52t-41 -47.5t-57.5 -40q-42 -23 -89 -35q-32 -8 -65 -8q-17 0 -34 2q-7 -8 -18.5 -17.5t-22.5 -19.5t-19 -21t-8 -24 q0 -23 11.5 -36t27.5 -19t35 -7t35 -1l192 4q32 0 58 -0.5t47 -7.5t38 -23.5t31 -48.5q20 -46 21 -92q0 -38 -12.5 -75t-36.5 -70t-58 -61t-76 -48.5t-91 -32t-103 -11.5q-66 0 -120 13t-93.5 38t-61.5 63q-22 40 -22 92zM142 -178v-5q0 -43 16 -76q16 -35 44 -58.5 t66.5 -35t81.5 -11.5q58 0 107 17t84 46t55 67.5t20 81.5q0 33 -6 57.5t-24 41.5t-50 25t-82 8h-180q-27 0 -50.5 -12t-42 -33t-29 -50t-10.5 -63zM188 440v-7q0 -43 10 -75q12 -36 33 -60t51 -36t66 -12q34 0 62 11.5t48 32t31 49t11 61.5q0 38 -8 75t-27 65.5t-49 45.5 q-27 16 -67 16h-9q-44 -2 -73 -14t-46.5 -34t-25 -52t-7.5 -66z" />
<glyph unicode="h" horiz-adv-x="807" d="M33 -8v34q42 2 65.5 12t35.5 30t14 54q4 34 4 85l6 639q0 22 -11 37t-28 24.5t-37 14t-37 4.5q-2 4 -2 6.5v5.5v20q57 8 112 18q55 12 115 30q0 -4 1 -9t1 -16l-10 -469l115 100q12 12 24.5 19t26.5 11t29 5.5t33 1.5q40 0 75.5 -14.5t62 -42.5t41.5 -70t15 -98l-2 -217 q0 -52 1 -85.5t11 -53.5t31 -30t59 -12v-34q-14 2 -27 4t-26 2.5l-26 1t-27 0.5q-30 0 -55 -2t-51 -6l4 374q0 49 -9.5 87.5t-27 64t-43.5 38.5q-26 14 -56 14q-38 0 -66 -10t-48 -27t-33 -37.5t-20 -42.5t-10 -43q-3 -22 -3 -38v-165q0 -52 2.5 -86.5t14 -55.5t33.5 -30 t62 -9v-12q0 -6 1.5 -12t1.5 -10q-44 4 -86.5 6t-85.5 2q-42 0 -84.5 -2t-85.5 -6z" />
<glyph unicode="i" horiz-adv-x="399" d="M33 -8v34q43 2 67 12t35 30t14 54t3 85l2 283q0 22 -11 37t-28 24.5t-37 14t-37 4.5v30q55 11 110 20.5t115 28.5q0 -4 2 -9.5t2 -13.5l-10 -214v-205q0 -52 2.5 -86.5t14 -55.5t33.5 -30t62 -9v-12q0 -6 1.5 -12t1.5 -10q-44 4 -86.5 6t-85.5 2q-42 0 -84.5 -2t-85.5 -6 zM131 880q0 14 6.5 28t16.5 24t23 16t28 6q14 0 27.5 -6t23.5 -16t16 -24t6 -28t-6 -27t-17 -23t-24 -15.5t-28 -5.5q-14 0 -27.5 5.5t-23.5 15.5t-15.5 23t-5.5 27z" />
<glyph unicode="j" horiz-adv-x="319" d="M-20 -360q39 0 66 13t45 35t28.5 50.5t15.5 59t7 60.5t2 54l4 578q0 22 -11 37t-27 24.5t-35 14t-38 4.5q-2 3 -2 5.5v6.5v18q28 6 55.5 10.5t55 10t56 12.5t58.5 16q0 -4 2 -9.5t2 -13.5l-8 -214l-4 -442q0 -119 -54 -224q-20 -38 -44 -65t-52 -45t-57 -26t-57 -8 q-2 4 -2 7t-2 8q-2 8 -3 13.5t-1 9.5zM125 884q0 14 6 28t16 24t23.5 16t27.5 6t28 -6t23.5 -16t15 -24t5.5 -28t-5.5 -27t-15 -23.5t-23.5 -16.5t-28 -6t-27.5 6t-23.5 16.5t-16 23.5t-6 27z" />
<glyph unicode="k" horiz-adv-x="772" d="M33 -8v34q42 2 66 12t35.5 30t14.5 54t3 85l6 639q0 22 -11 37t-28 24.5t-37 14t-37 4.5q-2 4 -2 6.5v5.5v20q57 8 112 18q55 12 115 30q0 -4 1 -9t1 -16l-8 -213l-4 -416l112 88l214 195h131v-33q-22 0 -41.5 -5.5t-38.5 -15t-37 -21.5q-17 -12 -35 -24q-19 -14 -38 -30 t-41 -33t-48 -37.5t-59 -44.5q24 -28 46.5 -52.5t47.5 -47.5l139 -139q13 -10 31 -27.5t38 -34t40.5 -29t40.5 -14.5v-10q0 -5 1 -7q1 -4 1 -8l-58 -16q-12 -3 -23 -6.5t-20 -7t-16 -6t-10 -2.5q-26 24 -52.5 47t-50.5 49l-274 264v-137q0 -52 2.5 -86.5t14 -55.5t33.5 -30 t62 -9v-12q0 -6 1.5 -12t1.5 -10q-44 4 -86.5 6t-85.5 2q-42 0 -84.5 -2t-85.5 -6z" />
<glyph unicode="l" horiz-adv-x="399" d="M33 -8v34q42 2 66 12t35.5 30t14.5 54t3 85l6 639q0 22 -11 37t-28 24.5t-37 14t-37 4.5q-2 4 -2 6.5v5.5v20q57 8 112 18q55 12 115 30q0 -4 1 -9t1 -16l-8 -213l-4 -561q0 -52 2.5 -86.5t14 -55.5t33.5 -30t62 -9v-12q0 -6 1.5 -12t1.5 -10q-44 4 -86.5 6t-85.5 2 q-42 0 -84.5 -2t-85.5 -6z" />
<glyph unicode="m" horiz-adv-x="1231" d="M33 -8v34q43 2 67 12t35 30t14 54t3 85l2 283q0 22 -11 37t-28 24.5t-37 14t-39 4.5q-2 3 -2 5.5v6.5v20q50 8 103.5 18t113.5 29q2 -4 3 -9.5t1 -13.5l-2 -110l104 96q12 12 24 19t26 11t30 5.5t33 1.5q36 0 66.5 -7.5t56 -23.5t46 -41.5t36.5 -62.5l104 92 q14 13 27 21.5t28 13.5t33 7q18 1 42 1q40 0 76 -14.5t62 -42.5t41 -70t15 -98l-2 -217q0 -52 1 -85.5t11 -53.5t31 -30t59 -12v-34q-26 4 -51.5 6t-54.5 2q-30 0 -55 -2t-49 -6l2 374q0 49 -10 87.5t-27.5 64t-43 39t-55.5 13.5q-44 0 -74.5 -10t-50.5 -27t-31 -37.5 t-16.5 -42.5t-6.5 -43q-1 -22 -1 -38v-165q0 -52 3 -86.5t14.5 -55.5t34 -30t62.5 -9v-34q-43 4 -85.5 6t-84.5 2q-43 0 -85.5 -2t-84.5 -6q-2 3 -2 6.5v7.5v20q42 2 66 12t36 30t15 54t3 85q2 43 2 76v15q0 38 -1 65t-3 47l-4 36q-4 27 -15.5 49.5t-29 39t-41.5 26t-52 9.5 q-42 0 -70.5 -10t-47 -27t-29.5 -37.5t-16 -42.5t-6 -43q-1 -22 -1 -38v-165q0 -52 2.5 -86.5t14 -55.5t33.5 -30t62 -9v-12q0 -6 1.5 -12t1.5 -10q-44 4 -86.5 6t-85.5 2q-42 0 -84.5 -2t-85.5 -6z" />
<glyph unicode="n" horiz-adv-x="807" d="M33 -8v34q43 2 67 12t35 30t14 54t3 85l2 283q0 22 -11 37t-28 24.5t-37 14t-39 4.5q-2 3 -2 5.5v6.5v20q50 8 103.5 18t113.5 29q2 -4 3 -9.5t1 -13.5l-2 -108l149 111q8 6 18.5 9.5t22 6t23 3.5t21.5 1q40 0 75.5 -14.5t62 -42.5t41.5 -70t15 -98l-2 -217 q0 -52 1 -85.5t11 -53.5t31 -30t59 -12v-34q-14 2 -27 4t-26 2.5l-26 1t-27 0.5q-30 0 -55 -2t-51 -6l4 374q0 49 -9.5 87.5t-27 64t-43.5 38.5q-26 14 -56 14q-44 0 -74 -10t-50.5 -27t-31.5 -37.5t-16.5 -42.5t-6.5 -43q-1 -22 -1 -38v-165q0 -52 2.5 -86.5t14 -55.5 t33.5 -30t62 -9v-12q0 -6 1.5 -12t1.5 -10q-44 4 -86.5 6t-85.5 2q-42 0 -84.5 -2t-85.5 -6z" />
<glyph unicode="o" horiz-adv-x="758" d="M49 295q0 78 24.5 143.5t70 112t111 72.5t149.5 26q45 0 85.5 -11.5t75 -31.5t62 -49t47.5 -64t30.5 -75t10.5 -84q0 -80 -27.5 -146t-76 -113.5t-115.5 -74t-146 -28.5q-66 0 -121 23.5t-95 66t-62.5 102.5t-22.5 131zM170 356q0 -37 4 -76.5t15 -78.5t28 -73t43 -60.5 t62 -41.5q36 -16 82 -16q50 0 85 22.5t57.5 59.5t33 84t10.5 96q0 45 -6.5 88.5t-19 81.5t-31.5 70t-43 55t-54 35q-26 10 -56 10h-10q-57 -2 -95 -24t-61.5 -57t-33.5 -80t-10 -95z" />
<glyph unicode="p" horiz-adv-x="833" d="M28 -364q42 2 66 11t36 29t15 54t3 86l6 674q0 22 -11 37t-28 24.5t-37 14t-39 4.5q-2 3 -2 5.5v6.5v20q50 8 103.5 18t113.5 29q0 -4 2 -9.5t2 -13.5l-2 -106q23 17 42.5 32.5t37.5 29.5t36 26q20 12 40 20q26 12 56 16q30 5 60 5q62 0 111 -19.5t83.5 -55.5t52 -86.5 t17.5 -112.5q-2 -68 -30 -131.5t-74 -118.5q-2 -3 -6 -6t-11 -8t-18.5 -13t-30 -19.5t-44.5 -28t-62 -40.5q-26 -16 -50 -21t-54 -5q-18 0 -34.5 2t-34 7.5t-38.5 14t-47 20.5l-2 -212q0 -52 2 -86.5t13.5 -55.5t34.5 -30q22 -8 64 -8v-34q-43 4 -85.5 5.5t-84.5 1.5 q-44 0 -86 -1.5t-84 -5.5q-2 4 -2 7v6v21zM258 131q82 -82 194 -82q49 0 91 21.5t72.5 58.5t47.5 86.5t17 106.5q0 52 -13.5 97.5t-41 79t-69 53.5t-97.5 20q-30 0 -57.5 -8.5t-52.5 -23.5t-45 -36.5t-34 -47.5q-6 -11 -7 -19.5t-1 -18.5z" />
<glyph unicode="q" horiz-adv-x="776" d="M49 295q0 36 5.5 72.5t19.5 71t39.5 64t64.5 52.5l88 51q19 11 36.5 19.5t35.5 13.5t36 7q20 3 40 3q26 0 45 -1.5t37 -5.5t37 -11t43 -17l26 -12l70 43l20 -10q-8 -16 -14 -32.5t-9.5 -38.5t-5 -51t-1.5 -71l-6 -626q0 -52 2 -86.5t13 -55.5t34 -29.5t63 -8.5v-13 q0 -4 1 -10t1 -11q-44 4 -86 5.5t-86 1.5t-85 -1.5t-83 -5.5q-2 4 -2 7v6v21q43 2 67 11t35.5 29t14 54t2.5 86l2 286l-177 -110q-12 -8 -28 -8h-32q-66 0 -115 25t-82 68.5t-49.5 100t-16.5 117.5zM160 350q0 -36 4.5 -71t15 -67.5t27.5 -61t42 -48.5t57.5 -32t74.5 -12 q22 0 46.5 7t47.5 20t43 30t31 37l4 380q-44 36 -88 53t-90 17q-52 0 -92.5 -22t-67.5 -57t-41 -80.5t-14 -92.5z" />
<glyph unicode="r" horiz-adv-x="545" d="M33 -8v34q43 2 67 12t35 30t14 54t3 85l2 283q0 22 -11 37t-28 24.5t-37 14t-39 4.5q-2 3 -2 5.5v6.5v20q50 8 103.5 18t113.5 29q2 -4 3 -9.5t1 -13.5l-2 -110l86 76q12 10 26 20t30 18t32 13.5t31 5.5q37 0 65 -12v-15l-10 -145h-24q-12 30 -36 46.5t-56 16.5 q-39 0 -66 -17t-43.5 -45t-23.5 -63t-7 -71v-137q0 -52 2.5 -86.5t14 -55.5t33.5 -30t62 -9v-12q0 -6 1.5 -12t1.5 -10q-44 4 -86.5 6t-85.5 2q-42 0 -84.5 -2t-85.5 -6z" />
<glyph unicode="s" horiz-adv-x="585" d="M47 12q6 36 9.5 83t5.5 95h12q5 0 10.5 1t9.5 1l-2 -32q-1 -19 -0.5 -34.5t5.5 -28.5t17 -24t36 -24q25 -14 56.5 -24.5t69.5 -10.5q34 0 66 10t55 27t37 42t14 55q0 71 -69 98q-30 11 -65.5 19t-71.5 16.5t-69 20.5t-59 30.5t-41 46.5q-15 27 -15 69q0 56 22 94.5t59 62 t84 34t97 10.5q19 0 40.5 -2.5t44.5 -6.5t46 -11t45 -17q-4 -25 -7 -62.5t-3 -82.5q-3 -2 -6.5 -2h-6.5h-17q0 16 -1 31t-6 29t-14 26.5t-23 24.5q-12 9 -27 15.5t-31 11.5t-32 7t-31 2q-33 0 -58.5 -8.5t-43.5 -23t-28.5 -32.5t-14.5 -37t0 -37t16 -32q16 -21 41 -33.5 t55 -21.5t62.5 -15t64 -13t59.5 -17.5t49.5 -28t34 -44t12.5 -66.5q0 -38 -12 -69.5t-33 -57.5t-50 -45t-62.5 -32.5t-71 -20t-75.5 -6.5q-48 0 -94.5 10t-94.5 30z" />
<glyph unicode="t" horiz-adv-x="448" d="M39 532v23l101 47v86t-1 56.5t-2 37t-4 27.5q36 12 64.5 26.5t52.5 24.5q6 -4 8 -5t4 -3q-3 -10 -6.5 -23.5t-3.5 -25.5l-10 -203h194l-8 -60h-186l-4 -321q0 -18 -0.5 -36.5t1 -35.5t7 -32.5t16 -27t28.5 -17.5t44 -6q20 0 35 6.5t33 17.5q9 -9 12 -13q2 -3 4 -5 q-6 -8 -18 -21t-25 -25t-23.5 -22t-13.5 -10q-17 -5 -31.5 -6.5t-32.5 -1.5q-39 0 -66.5 9.5t-45 28t-25.5 45t-8 60.5l4 413z" />
<glyph unicode="u" horiz-adv-x="837" d="M26 575.5v6.5v18q56 11 112 20.5t114 28.5q0 -4 2 -9.5t2 -13.5l-10 -214v-178q0 -42 6 -75t23 -57t46 -36.5t77 -12.5q38 0 71.5 15.5t59.5 41.5t41.5 58t15.5 66l2 256q0 22 -10.5 37t-26.5 24.5t-35.5 14t-38.5 4.5q-2 3 -2 5.5v6.5v18q28 6 56 10.5t56.5 10 t56.5 12.5t58 16q-2 -4 0 -9.5t2 -13.5l-8 -214l-2 -293q0 -10 -1 -21.5t0.5 -22t7 -20t18.5 -16.5q33 -13 67 -13h21v-34q-30 4 -57.5 6t-57.5 2q-29 0 -56.5 -2t-53.5 -6q0 20 1 36t1 30l2 63l-8 -7q-22 -17 -44 -36.5t-44 -41.5q-10 -9 -17 -15.5t-14.5 -11.5t-17 -9 t-23.5 -8q-20 -5 -42 -6.5t-48 -1.5q-49 0 -82.5 9t-54.5 26t-32 39.5t-16 48.5t-5.5 54.5t-0.5 57.5l3 271q0 22 -11 37t-27 24.5t-36 14.5q-20 4 -38 4q-2 3 -2 5.5z" />
<glyph unicode="v" horiz-adv-x="784" d="M28 602v33h318v-33q-35 0 -55.5 -5.5t-30 -15t-10.5 -23t3.5 -29t11.5 -33t13 -35.5l144 -361q8 19 17 38t19 40.5t21.5 47.5t26 59t31.5 75t39 96q8 19 16 38.5t12 36.5t3.5 31t-10 24t-29.5 14t-54 2q-2 3 -2 6.5v5.5v21h254v-33q-17 0 -33.5 -8t-35.5 -28t-39 -54 q-22 -35 -46 -88l-178 -396l-18 -38h-62l-225 534q-8 20 -17 35t-20.5 24.5t-26.5 14t-37 4.5z" />
<glyph unicode="w" horiz-adv-x="1161" d="M28 602v33h324v-33q-38 0 -60 -5t-33.5 -13t-14 -20t-0.5 -25.5t8 -29t10 -30.5l104 -350q9 20 17.5 36.5t15 31.5t13 29t12.5 28l174 387h24q11 -23 20 -49q10 -28 22 -54l162 -419l4 12q6 15 11.5 30t13 33t16 40.5t20 51t25.5 65.5t32 85q14 36 23 66.5t4 53t-26 34.5 t-69 12q-2 3 -2 6.5v5.5v21h267v-33q-30 0 -50 -11.5t-34 -29.5t-24.5 -40.5t-20.5 -43.5l-195 -487h-57l-190 487q-6 -16 -14 -32.5t-17 -37.5t-22.5 -49t-32 -68t-43.5 -94t-58 -128l-33 -78h-57l-139 469q-10 33 -19 59.5t-23 45t-34 28.5t-54 10z" />
<glyph unicode="x" horiz-adv-x="715" d="M28 -8v34q18 0 33 5t29.5 15t29.5 24q14 14 30 34l162 193q-12 19 -21 33t-17 26t-16 22l-16 24q-30 42 -54 78t-46 62t-46 39t-55 11l-4 12q-2 4 -2 8v10q16 2 38.5 5t45.5 7t43 8t30 5q20 -23 41 -46.5t37 -49.5l113 -172q20 28 38.5 50.5t34.5 45.5l114 160h96v-33 q-16 0 -28 -4t-21.5 -10.5t-18 -15t-16.5 -17.5l-178 -211l190 -258q10 -14 19 -25t19 -19t23 -12t31 -4v-34q-20 4 -40 6t-40 2q-23 0 -42.5 -2t-43.5 -6l-16 24t-16 25l-152 221l-4 -4q-13 -18 -26.5 -34t-27.5 -32.5t-26 -33.5q-12 -16 -24 -35l-84 -131q-17 4 -30 6 t-30 2q-14 0 -28 -2t-28 -6z" />
<glyph unicode="y" horiz-adv-x="772" d="M22 602v33h316v-33q-32 2 -52 -2t-30 -11.5t-13 -18t-1.5 -21.5t6 -23t8.5 -22l158 -402l154 369q6 16 13 32.5t10.5 30.5t2.5 27t-10.5 22t-28.5 14t-51 5q-2 3 -2 6.5v5.5v21h258v-33q-27 0 -45.5 -8t-31.5 -21.5t-23 -32t-19 -38.5l-329 -730q-18 -39 -37 -70.5 t-43 -53.5t-56 -34t-76 -12q-17 0 -34.5 5.5t-28.5 11.5q3 10 7.5 24t9 28.5t8.5 27.5t8 21h10q7 -6 16.5 -12.5t19.5 -11.5t20 -8.5t20 -3.5q20 0 37 10t32 25.5t28.5 35t24.5 40.5t19.5 41t16.5 37l38 88l-238 596q-6 13 -12.5 22t-17 14t-25.5 7t-37 2z" />
<glyph unicode="z" d="M22 18q36 37 68 72t64 74l348 434h-230q-21 0 -44 -1t-43.5 -8.5t-34.5 -22t-17 -42.5l-8 -70h-29q0 17 3 37.5t3 48.5v101q194 -6 390 -6q70 0 141 6v-19q0 -8 1 -14t1 -10q-4 -4 -9 -10.5t-16 -20t-30.5 -36.5t-51.5 -62t-79 -97q-47 -56 -113 -138l-152 -195h270 q31 0 60.5 2.5t57.5 11.5q7 2 10.5 5.5t5.5 7.5t2.5 9t1.5 9l20 102h35q-2 -20 -6.5 -44t-7.5 -48l-11 -102q-109 4 -214.5 6t-215.5 2q-42 0 -81 -2t-81 -6q-2 2 -2 4.5t-2 5.5q-2 6 -3 10t-1 6z" />
<glyph unicode="{" horiz-adv-x="459" d="M98 424q28 12 47 26.5t30 34t15 43.5q4 26 4 56l2 246q0 56 12 91t35 56t56.5 30t77.5 11q-26 -12 -43 -28t-27.5 -36.5t-15.5 -46t-5 -57.5l-2 -246q0 -37 -3.5 -65.5t-15 -49.5t-33.5 -36t-58 -23l-18 -4l18 -6q36 -12 57.5 -29t33 -39t14.5 -52q3 -28 3 -66l-2 -230 q0 -31 4.5 -56.5t14 -46.5t25.5 -37t40 -26q-50 2 -83.5 12t-54 32t-29.5 60.5t-9 98.5l2 223q0 33 -3 58.5t-13 45.5t-28 33.5t-48 22.5z" />
<glyph unicode="|" horiz-adv-x="841" d="M379 0l10 1018h82l-8 -1018h-84z" />
<glyph unicode="}" horiz-adv-x="459" d="M90 -164q49 23 68.5 64.5t19.5 103.5l2 230q0 39 4 68.5t16 51.5t34.5 38t58.5 28l19 6l-19 4q-36 8 -57.5 23t-32.5 36t-15 49.5t-4 65.5l2 246q0 32 -4 58t-14 46.5t-26 35.5q-18 16 -42 26q46 -2 80 -11t56 -29t32 -55t10 -91l-2 -246q0 -30 4 -55t15 -45t28 -34 t45 -24q-31 -10 -49.5 -24t-28.5 -34t-14 -45.5t-4 -58.5l-2 -223q0 -59 -9.5 -97.5t-31 -61.5t-56 -33.5t-83.5 -12.5z" />
<glyph unicode="~" horiz-adv-x="841" d="M76 299q16 28 35.5 55.5t43 50.5t52.5 37t63 14q23 0 50 -7t55.5 -18t57 -24t55 -24t50.5 -19t44 -8q24 0 46 11t41 28t35 38t27 42l41 -49q-14 -27 -34 -53.5t-44 -47.5t-53 -34t-61 -13q-19 0 -44 7.5t-50.5 17.5t-49.5 20.5t-43 16.5q-14 6 -28.5 13t-30.5 12t-32 8.5 t-34 3.5q-28 0 -50.5 -11.5t-40.5 -30.5t-32.5 -41t-28.5 -44q-4 4 -8 10l-10 10q-8 8 -14 16t-8 13z" />
<glyph unicode="&#xa2;" horiz-adv-x="737" d="M105 482q1 48 19 94t51.5 83.5t82 63t110.5 31.5l2 139h60l-2 -139q42 -2 84 -11t84 -22q-4 -30 -8 -58t-8 -59h-29v23t-2.5 22t-8.5 19.5t-18 15.5q-18 10 -42 18q-23 6 -54 8l-6 -456h16q42 0 80 10t74 33l10 -8l-18 -43q-18 -10 -39 -17.5t-42 -13.5t-42 -9.5 t-39 -5.5l-2 -136h-60l2 141q-67 8 -115.5 34.5t-80.5 64.5t-46 84t-13 94zM190 498q0 -46 12 -85t34 -68.5t54 -50t70 -30.5l6 444q-38 -6 -69.5 -22t-55 -42.5t-37.5 -63.5q-14 -36 -14 -82z" />
<glyph unicode="&#xa3;" horiz-adv-x="862" d="M43 88q0 28 9.5 50t27 38t41 24.5t51.5 8.5q19 0 34.5 -2.5t30.5 -6.5t30 -9.5t32 -12.5q2 12 3.5 25t2 24t0.5 20v15q0 22 -3.5 48.5t-10.5 54t-15 53.5t-16 47h-184v59h164q-12 48 -23.5 96t-11.5 99q0 60 20 108.5t56 82.5t85.5 52.5t108.5 18.5h18.5t16.5 -0.5 t16.5 -2t18.5 -3.5q36 -7 67 -23.5t54 -41t36 -56.5t13 -70q0 -21 -5.5 -40.5t-17.5 -35t-30 -25t-42 -9.5q-18 0 -33 5.5t-26 16t-18 24.5q-7 16 -7 34q0 15 5 25t13.5 17.5t18.5 13t19.5 11t18.5 12.5t13 17q0 20 -14 35t-35 24t-43 13t-38 4q-41 0 -71.5 -15t-50 -40 t-29 -59t-9.5 -70q0 -22 5.5 -50t13 -57t14.5 -58t10 -53h237v-59h-221q6 -36 10.5 -70.5t4.5 -70.5q0 -18 -2 -41t-6.5 -47t-11 -47t-16.5 -41q22 -10 46.5 -19.5t49 -16.5t50.5 -12q26 -4 50 -4q34 0 60 9t46.5 26t36 41t29.5 54l48 -21q-8 -36 -22.5 -72t-37 -66.5 t-52.5 -53.5t-70 -31q-14 -3 -28.5 -4.5t-28.5 -1.5q-28 0 -57.5 7t-57.5 19t-54 28t-48 32q-18 -19 -36 -35.5t-38 -27.5t-42 -17t-48 -6q-24 0 -46.5 8t-40 22.5t-28 35t-10.5 46.5zM100 92q0 -14 6 -26t16 -20t23 -13t27 -5q18 0 33.5 7t29 17t24.5 24t19 28 q-12 10 -30 21t-38.5 19t-41 10t-35.5 -6q-16 -8 -24.5 -22t-8.5 -34z" />
<glyph unicode="&#xa5;" horiz-adv-x="925" d="M20 914v30l146 29q14 3 25.5 0.5t20.5 -9t18 -16.5q8 -8 16 -20q6 -8 12 -17t17 -27t28.5 -47.5t45 -78t66.5 -120t95 -173.5q51 81 90 143t68.5 110.5t51.5 84.5t38 64.5t28.5 51.5t24.5 45h107v-14q-28 -33 -59 -71.5t-63 -80t-64 -84.5q-32 -44 -60 -86h231v-58h-270 q-13 -20 -24 -38.5t-20 -35.5t-17 -33.5t-15 -34.5h346v-60h-356l-2 -210q0 -27 1 -47t4.5 -34.5t12 -23t23 -14t36.5 -8.5t54 -5v-12q0 -6 1 -12t1 -10q-51 4 -99.5 6t-99.5 2q-50 0 -96 -2t-94 -6q-2 3 -2.5 6.5t-0.5 7.5v20q48 2 76 8t41 20t16 38q3 26 3 66l2 210h-375 v60h357l-80 142h-277v58h242l-41 74q-11 20 -25 44t-31 47.5t-36.5 46t-41.5 39.5t-46 27t-50 8z" />
<glyph unicode="&#xa9;" horiz-adv-x="1040" d="M39 484q0 68 18 130t50.5 117t77.5 100t99.5 78t117 50.5t128.5 17.5q68 0 130 -17.5t115.5 -50.5t97 -78t74.5 -100t48 -117t17 -130q0 -70 -18 -134t-50 -120t-77 -101t-99 -77.5t-116.5 -50t-129.5 -17.5t-128.5 17.5t-115.5 50t-98 77.5t-75 101t-48.5 120t-17.5 134 zM106 484q0 -60 15 -115t42 -103t65 -88t84 -68t99 -43.5t111 -15.5t111 15.5t100 43.5t86 68t67 88t43 103t15 115q0 58 -14.5 112t-41 101.5t-64.5 86.5t-84 67t-99 43.5t-111 15.5q-57 0 -110.5 -15.5t-100.5 -43.5t-86 -67t-67 -86.5t-44 -101.5t-16 -112zM266 482 q0 64 25 114t66 85t94 53t108 18q50 0 97.5 -11t95.5 -24q-6 -26 -9 -52.5t-8 -56.5h-23v26t-3 21t-8.5 17t-16.5 16q-22 16 -54 22.5t-71 6.5q-48 0 -87.5 -14.5t-67.5 -42.5t-43 -69t-15 -93q-1 -58 16.5 -104t49.5 -78.5t79 -50t105 -17.5q42 0 80 10.5t72 32.5l6 -5 l-16 -36q-18 -10 -40 -18t-45 -14t-45 -10q-20 -3 -38 -3q-62 0 -117.5 18t-97 53.5t-65.5 86.5t-24 119z" />
<glyph unicode="&#xab;" d="M74 336v14q36 36 70 67t69 67l107 106l24 -12q-4 -6 -8 -13t-12 -18t-19 -27t-29 -40t-43 -57.5t-59 -78.5l166 -228l-31 -16q-6 4 -11 11l-12 14l-75 80zM354 336v14q35 36 69.5 67t70.5 67l106 106l24 -12q-10 -17 -24 -37q-14 -19 -30 -43l-114 -154l164 -228l-28 -16 l-24 25l-76 80z" />
<glyph unicode="&#xad;" horiz-adv-x="459" d="M28 305l36 88h483l4 -2q-4 -10 -8 -19q-5 -10 -9 -20q-6 -18 -13 -31t-9 -18h-479z" />
<glyph unicode="&#xae;" horiz-adv-x="1040" d="M39 471q0 68 18 130.5t50.5 117.5t77.5 100t99.5 77.5t117 50t128.5 17.5q68 0 130 -17.5t115.5 -50t97 -77.5t74.5 -100t48 -117.5t17 -130.5q0 -70 -18 -134t-50 -119.5t-77 -100.5t-99 -77.5t-116.5 -50t-129.5 -17.5t-128.5 17.5t-115.5 50t-98 77.5t-75 100.5 t-48.5 120t-17.5 133.5zM106 471q0 -60 15 -114.5t42 -102.5t65 -88t84 -68t99 -43.5t111 -15.5t111 15.5t100 43.5t86 68t67 88t43 102.5t15 114.5q0 58 -14.5 112.5t-41 101.5t-64.5 86t-84 67t-99 43.5t-111 15.5q-57 0 -110.5 -15.5t-100.5 -43.5t-86 -67t-67 -86 t-44 -101t-16 -113zM301 217v21h15q12 0 21 1t14.5 5.5t8 13t2.5 22.5l4 400q0 13 -1.5 21.5t-6 14t-13.5 7.5t-21 2h-17v21h209q59 0 98.5 -6t63.5 -20.5t34 -39t9 -60.5q0 -30 -10.5 -53.5t-28.5 -41t-43 -29.5t-53 -17l-27 -4l27 -4q22 -3 38 -16t28 -30t22 -38t18 -39 q10 -20 17 -39t16.5 -34t22.5 -24.5t34 -12.5q-2 -2 -2 -4v-4v-13h-90q-20 0 -35.5 14.5t-28.5 37.5t-23.5 50t-19.5 52t-17 44t-15 25q-10 8 -19 12.5t-18 6t-17.5 2t-17.5 0.5h-25l-2 -175q0 -12 2 -20t6 -13.5t12 -8.5q8 -2 22 -4l18 -2v-21h-211zM454 488l32 -2 q30 -2 56 2.5t46 19t32 39t13 61.5q0 60 -31.5 88.5t-87.5 28.5q-22 0 -33.5 -6.5t-17 -16t-6.5 -20t-1 -16.5z" />
<glyph unicode="&#xbb;" d="M76 578l24 12l106 -106q35 -36 69.5 -67t70.5 -67v-14l-138 -131l-76 -80l-24 -25l-28 16l164 228l-114 154q-17 24 -30.5 43t-23.5 37zM356 578l24 12l107 -106q35 -36 69 -67t70 -67v-14l-137 -131l-75 -80q-6 -6 -12 -13q-5 -8 -11 -12l-31 16l166 228 q-34 45 -59 78.5t-43 57.5t-29 40t-19 27t-12 18t-8 13z" />
<glyph unicode="&#xbc;" horiz-adv-x="1091" d="M49 910l201 73h22q-2 -12 -3 -28t-2 -40.5t-2 -59t-2 -84t-2 -116.5t-3 -155v-23t2 -20t7 -15t15 -8q11 -2 23.5 -3t32.5 -1v-39q-34 4 -64 5.5t-57 1.5q-26 0 -56.5 -2t-64.5 -5v39q20 0 31 1t23 3t17.5 9t7.5 16.5t1.5 20t-0.5 20.5q0 52 1 102t1 100t0.5 100t1.5 101 q0 2 -1 5.5t-5 3.5l-106 -48l-15 2q-3 10 -3.5 22t-0.5 22zM256 0l540 983h95l-541 -983h-94zM643 180q44 86 93 166q50 80 106 158l45 68l63 22l16 -8q-3 -18 -4 -40q-2 -22 -2 -46l-6 -283h45.5t48.5 4q-2 -8 -2 -14v-13v-42q-24 2 -47 2h-47q0 -39 3 -62.5t11.5 -36.5 t24.5 -16.5t43 -3.5v-15q0 -6 1 -12t1 -12q-36 3 -67 4.5t-57 1.5q-52 0 -124 -6v37q30 2 47 6.5t25 17.5t10 37t2 66q-4 -1 -14.5 -2.5t-25 -2t-33.5 -1t-39 -0.5h-108zM721 215h153l6 271q-38 -60 -65 -105t-46 -78t-31 -55t-17 -33z" />
<glyph unicode="&#xbd;" horiz-adv-x="1091" d="M49 910l201 73h22q-2 -12 -3 -28t-2 -40.5t-2 -59t-2 -84t-2 -116.5t-3 -155v-23t2 -20t7 -15t15 -8q11 -2 23.5 -3t32.5 -1v-39q-34 4 -64 5.5t-57 1.5q-26 0 -56.5 -2t-64.5 -5v39q20 0 31 1t23 3t17.5 9t7.5 16.5t1.5 20t-0.5 20.5q0 52 1 102t1 100t0.5 100t1.5 101 q0 2 -1 5.5t-5 3.5l-106 -48l-15 2q-3 10 -3.5 22t-0.5 22zM215 4l537 979h94l-537 -979h-94zM678 10v20q25 28 53 57l56 58t53.5 56t46.5 51q32 42 51 78q18 38 18 76q0 24 -7 45t-21 36t-34 23t-44 8q-21 0 -37.5 -3.5t-28.5 -11t-21 -20.5t-15 -31l-13 -42h-33q0 14 2 23 t2 17l11 82q30 35 69 48q38 14 80 14q48 0 82 -13.5t55 -36t31 -51.5q8 -29 8 -61q0 -35 -13 -68.5t-34 -63.5t-46 -57t-48 -49q-48 -46 -75.5 -74t-39.5 -42h166q31 0 62 2t51 8l6 -12q-6 -34 0 -68l-6 -8q-51 0 -97 1t-94 1q-49 0 -94.5 -1t-99.5 -3q-2 2 -2 12z" />
<glyph unicode="&#xbe;" horiz-adv-x="1091" d="M22 532l13 4q4 2 9.5 4t11.5 2q17 -61 51 -88q33 -28 93 -28q28 0 50 11t37.5 29t24 42t8.5 51q2 54 -25 85.5t-80 31.5q-20 0 -36.5 -4t-32.5 -16l-11 10q0 2 2 8t4 13.5t3.5 15.5t1.5 14q7 0 12 -0.5t9.5 -1t8.5 -1.5q4 0 10 1q26 2 46 11.5t34 24.5t21.5 34t7.5 41 q0 20 -6.5 37t-20 29t-31 19t-39.5 7q-24 0 -43 -8t-33.5 -22t-24 -33t-15.5 -40h-12q-4 0 -10 1t-13 1l27 109q60 60 141 59q36 0 65.5 -9.5t50.5 -27t32.5 -42t11.5 -54.5q0 -19 -6.5 -37.5t-18.5 -35t-28 -32t-33 -30.5q27 -6 49 -15.5t38 -24.5t25 -37t9 -54 q0 -26 -10 -52t-27 -49t-41 -42.5t-51 -33.5t-57 -22t-60 -8q-24 0 -54 6.5t-59 18.5q-4 30 -10.5 60t-18.5 68zM266 0l539 983h94l-539 -983h-94zM643 180q22 43 46 85.5t53 89t64 99.5q36 54 81 118l63 22l16 -8q0 -18 -3 -40t-3 -46l-6 -283h45.5t48.5 4q-2 -8 -2 -14 v-13v-42q-24 2 -47 2h-47q0 -39 3 -62.5t11.5 -36.5t24.5 -16.5t43 -3.5v-15q0 -6 1 -12t1 -12q-36 3 -67 4.5t-57 1.5q-52 0 -124 -6v37q30 2 47 6.5t25 17.5t10 37t2 66q-14 -2 -42 -4t-70 -2h-108zM721 215h153l6 271q-32 -53 -55 -91.5t-40 -66t-27.5 -46t-17.5 -30.5 t-11.5 -21t-7.5 -16z" />
<glyph unicode="&#xd7;" horiz-adv-x="841" d="M148 144l218 218l-212 216l55 57l215 -217l219 219l55 -57l-219 -218l219 -220l-57 -56l-219 221l-219 -219z" />
<glyph unicode="&#xf7;" horiz-adv-x="762" d="M16 332v68h730v-68h-730zM299 174q0 16 6 29t16.5 23t24.5 16t29 6t28.5 -6t23 -16t14.5 -23t5 -29t-5.5 -29t-15.5 -23t-23.5 -16t-29.5 -6q-15 0 -28.5 6t-23.5 16t-15.5 23t-5.5 29zM303 557q0 16 5.5 29.5t15.5 23.5t24 15.5t29 5.5q16 0 29 -5.5t23 -15.5 t15.5 -23.5t5.5 -29.5t-5.5 -29t-15.5 -23t-23.5 -15.5t-28.5 -5.5q-16 0 -29.5 5.5t-23.5 15.5t-16 23.5t-5 28.5z" />
<glyph unicode="&#x2000;" horiz-adv-x="682" />
<glyph unicode="&#x2001;" horiz-adv-x="1365" />
<glyph unicode="&#x2002;" horiz-adv-x="682" />
<glyph unicode="&#x2003;" horiz-adv-x="1365" />
<glyph unicode="&#x2004;" horiz-adv-x="455" />
<glyph unicode="&#x2005;" horiz-adv-x="341" />
<glyph unicode="&#x2006;" horiz-adv-x="227" />
<glyph unicode="&#x2007;" horiz-adv-x="227" />
<glyph unicode="&#x2008;" horiz-adv-x="170" />
<glyph unicode="&#x2009;" horiz-adv-x="273" />
<glyph unicode="&#x200a;" horiz-adv-x="75" />
<glyph unicode="&#x2010;" horiz-adv-x="459" d="M28 305l36 88h483l4 -2q-4 -10 -8 -19q-5 -10 -9 -20q-6 -18 -13 -31t-9 -18h-479z" />
<glyph unicode="&#x2011;" horiz-adv-x="459" d="M28 305l36 88h483l4 -2q-4 -10 -8 -19q-5 -10 -9 -20q-6 -18 -13 -31t-9 -18h-479z" />
<glyph unicode="&#x2012;" horiz-adv-x="459" d="M28 305l36 88h483l4 -2q-4 -10 -8 -19q-5 -10 -9 -20q-6 -18 -13 -31t-9 -18h-479z" />
<glyph unicode="&#x2013;" horiz-adv-x="1024" d="M28 326l42 98h934l6 -8l-46 -98h-927z" />
<glyph unicode="&#x2014;" horiz-adv-x="2048" d="M28 326l42 98h1958l6 -8l-46 -98h-1951z" />
<glyph unicode="&#x2018;" horiz-adv-x="381" d="M102 618q34 88 80 166t102 150l58 30l14 -10q-48 -73 -76 -150t-34 -159q-25 -4 -49.5 -11.5t-48.5 -17.5h2l-34 -10z" />
<glyph unicode="&#x2019;" horiz-adv-x="381" d="M39 616q97 144 111 308q25 6 49.5 13t48.5 17h-2l32 8l15 -12q-36 -87 -80.5 -164.5t-102.5 -148.5l-57 -31z" />
<glyph unicode="&#x201c;" d="M114 618q34 88 80 166t103 150l57 30l14 -10q-48 -73 -76 -150t-34 -159q-24 -4 -49 -10.5t-49 -18.5l-31 -10zM410 618q34 88 79 166t103 150l55 30l17 -10q-48 -73 -76 -150t-35 -159q-25 -4 -49 -11.5t-50 -17.5l-32 -10z" />
<glyph unicode="&#x201d;" d="M43 616q97 144 111 308q25 6 49.5 13t48.5 17l30 8l15 -12q-36 -87 -80.5 -164.5t-102.5 -148.5l-56 -31zM338 616q48 72 76 150t34 158q26 6 50 14q24 6 47 16l33 8l14 -12q-36 -87 -80 -164q-44 -78 -102 -149l-58 -31z" />
<glyph unicode="&#x2022;" horiz-adv-x="852" d="M188 484q0 49 20 92.5t53 76.5t77.5 52.5t93.5 19.5q50 0 93.5 -19.5t76 -52.5t51.5 -76.5t19 -92.5t-20 -93.5t-53 -77.5t-77.5 -52t-93.5 -19q-50 0 -93.5 19t-76 52t-51.5 77t-19 94z" />
<glyph unicode="&#x202f;" horiz-adv-x="273" />
<glyph unicode="&#x205f;" horiz-adv-x="341" />
<glyph unicode="&#x20ac;" horiz-adv-x="1153" d="M28 368v60h150q-2 14 -2 28v28q0 26 2 47t6 39h-156v58h168q16 58 45.5 107t68 88t85.5 69.5t99.5 51t109 31t113.5 10.5q46 0 91.5 -5t89.5 -13.5t88 -20.5t87 -24q-10 -50 -16.5 -100t-12.5 -101h-32q0 33 1 56t-3 41t-18 33t-44 31q-22 12 -46 22t-51.5 17t-60 11 t-71.5 4q-74 0 -137.5 -21t-113.5 -61t-85 -97t-53 -129h389v-58h-397q-2 -14 -3 -28t-1 -28q0 -23 1 -44.5t3 -41.5h397v-60h-385q19 -76 58.5 -138t97.5 -105t132 -66.5t162 -23.5q76 0 149 22t136 64l8 -9l-29 -59q-33 -18 -73 -33.5t-82 -26t-82.5 -16t-72.5 -5.5 q-103 0 -195.5 25.5t-165.5 76t-123 124.5t-68 170h-158z" />
<glyph unicode="&#x2122;" horiz-adv-x="1386" d="M37 962q60 0 119.5 -1t121.5 -1h119t123 2q-2 -24 -3 -44t-1 -44v-21.5t-2 -22.5q-2 -2 -4 -2h-4h-16q-2 12 -2 27t-2.5 29.5t-10 25t-23.5 10.5l-132 2q-2 -18 -3 -40q-1 -20 -1 -44l-2 -361q0 -24 1 -38.5t8 -23t23 -11t45 -2.5v-27q-63 6 -121 6q-30 0 -58 -1 q-26 -2 -56 -5q-2 2 -2 4.5v5.5v17q28 0 44 2.5t24.5 11t11 23t2.5 38.5l2 361v44q0 22 -2 40l-132 -2q-16 0 -23.5 -10.5t-10.5 -24.5t-3.5 -29.5t-2.5 -25.5q-2 -2 -4 -2h-4h-15q0 14 -1 25t-1 21q0 23 -0.5 43.5t-1.5 44.5zM570 379.5v5.5v17h14q18 0 31 2t21 8t12 17 t4 30l4 421q0 18 -4 30t-11.5 19t-20.5 9t-32 2h-12v24q23 -4 41 -4h39h37t42 2l217 -468l178 358q14 30 26 56t22 56q18 -4 38 -4h40h38t42 4v-24h-13q-18 0 -30.5 -2t-20.5 -9t-12 -19t-4 -30l-2 -403q0 -24 1 -38.5t8 -23t23 -11t45 -2.5v-27q-63 6 -121 6t-116 -6v27 q28 0 44 3t24 11t10 22.5t2 38.5l4 391l-238 -500h-16l-232 500l-4 -409q0 -18 4 -29.5t12 -17.5t21 -8t33 -2h12v-27q-26 3 -52 5q-24 1 -48 1q-46 0 -98 -6q-2 2 -2 4.5z" />
<glyph unicode="&#x25fc;" horiz-adv-x="647" d="M0 0v648h648v-648h-648z" />
</font>
</defs>
</svg>
