<?xml version="1.0" standalone="no"?>
<!DOCTYPE svg PUBLIC "-//W3C//DTD SVG 1.1//EN" "http://www.w3.org/Graphics/SVG/1.1/DTD/svg11.dtd" >
<svg xmlns="http://www.w3.org/2000/svg">
<metadata></metadata>
<defs>
<font id="db_surawong_xboldit" horiz-adv-x="712" >
<font-face units-per-em="2048" ascent="1638" descent="-410" />
<missing-glyph horiz-adv-x="512" />
<glyph unicode="&#x2b;&#x2d;" horiz-adv-x="860" d="M73 -2l21 100h719l-23 -100h-717zM185 526l21 100h310l70 308h98l-68 -308h310l-24 -100h-309l-69 -311h-98l68 311h-309z" />
<glyph unicode="&#x2e;&#x2e;&#x2e;" horiz-adv-x="1413" d="M169.5 46q-3.5 16 0.5 34t14 33.5t24 27t32 18.5q16 7 34 7t32 -7t23.5 -18.5t13 -27t-0.5 -33.5t-14 -34t-24.5 -28t-32 -19t-35.5 -7t-32 7t-22.5 19t-12 28zM637 46q-3 16 1 34t14 33.5t24.5 27t32 18.5t35.5 7t32 -7t23 -18.5t13 -27t0 -33.5t-15 -34t-25.5 -28 t-32 -19t-35.5 -7t-32 7t-23 19t-12 28zM1104 80q4 18 15 33.5t25 27t32 18.5q16 7 34 7t32 -7t23.5 -18.5t13 -27t-0.5 -33.5t-14.5 -34t-25 -28t-32.5 -19q-16 -7 -34 -7t-32 7t-23 19t-12 28t-1 34z" />
<glyph horiz-adv-x="2048" />
<glyph horiz-adv-x="2048" />
<glyph unicode="&#xd;" horiz-adv-x="579" />
<glyph unicode=" "  horiz-adv-x="512" />
<glyph unicode="&#x09;" horiz-adv-x="512" />
<glyph unicode="&#xa0;" horiz-adv-x="512" />
<glyph unicode="!" horiz-adv-x="399" d="M130 76q4 19 14 35.5t24.5 28.5t32 19t37.5 7q18 0 31.5 -7t22 -19t12 -28t-0.5 -34t-14.5 -33.5t-24.5 -27t-30.5 -18.5t-32.5 -7t-30.5 6.5t-24.5 18t-15 26.5t-1 33zM238 291v2q2 14 4 27t4 30l62 463q4 30 9 56.5t11 56.5v4q12 6 24.5 12t26 12t30.5 13t39 16h52 l-6 -39l-182 -590l-10 -38l-48 -36z" />
<glyph unicode="&#x22;" horiz-adv-x="530" d="M262 637l15 281q0 12 7 24t18.5 21t25.5 14.5t28 5.5t26 -5.5t19.5 -14.5t9.5 -21t-3 -24l-111 -281h-35zM516 637l15 281q0 12 7 24t18 21t25.5 14.5t28.5 5.5t26 -5.5t19 -14.5t8.5 -21t-3.5 -24l-107 -281h-37z" />
<glyph unicode="#" horiz-adv-x="860" d="M148 314l22 90h164l67 184h-153l21 90h166l109 293h90l-109 -293h178l107 293h92l-109 -293h135l-19 -90h-147l-68 -184h139l-21 -90h-154l-111 -314h-93l114 314h-178l-116 -314h-90l114 314h-150zM426 404h178l66 184h-177z" />
<glyph unicode="$" d="M50 37q22 51 38.5 105t27.5 106l1 4h53l-1 -4l-19 -90q-2 -10 -3 -19.5t-2 -15.5q13 -21 32.5 -37t43 -27t49.5 -16.5t53 -5.5l83 381q-38 4 -71.5 10t-61 16.5t-48.5 27t-33 40.5t-14 58q-4 34 6 79q14 62 45 112.5t75 87.5t100 61t118 32q4 13 5.5 24.5t3 22.5t2.5 21 t3 22l2 4h71l-1 -4q-5 -23 -11 -42q-7 -18 -13 -42q30 -2 59 -5.5t56.5 -10t53 -17t48.5 -26.5q0 -6 -0.5 -10.5t-1.5 -7.5t-2.5 -6.5t-4.5 -8.5q-19 -32 -28.5 -70t-17.5 -80l-1 -4h-53l13 64q2 12 5.5 24t1.5 25q-2 17 -17 30.5t-35 23t-44 15t-46 5.5q-2 -8 -6.5 -27.5 l-10.5 -45.5t-12.5 -57t-13.5 -63l-35 -162q38 -4 74.5 -10t67 -16t54.5 -26t38 -41t17.5 -60.5t-6.5 -83.5q-9 -42 -28 -80.5t-46 -72.5t-60 -63t-71 -51t-79 -35t-83 -15q-8 -37 -13 -72.5t-11 -65.5l-2 -6h-74l2 6q2 12 6.5 27t9.5 32t10 35q6 20 10 38q-24 0 -55 3 t-65 10t-69 19t-69 31zM307.5 631q4.5 -27 20 -45t42 -28t62.5 -16l76 342q-40 -4 -73 -19t-57.5 -40t-41 -57t-24.5 -70q-9 -40 -4.5 -67zM385 39q35 4 71 21.5t66 45t52.5 63.5t30.5 77q9 43 3 71.5t-25 47t-49 29t-68 16.5z" />
<glyph unicode="%" horiz-adv-x="1190" d="M252.5 580q-4.5 38 3.5 80q7 34 24.5 70t42 70t55 64t65.5 52t71.5 35t73.5 13q26 0 46 -7t37 -18t33 -24t34 -24t40 -19t50 -8q30 0 63 7.5t64 21t59.5 34.5t50.5 48l3 2h55l-773 -1005h-74l666 866q-38 -12 -74 -16.5t-72 -4.5q-23 0 -44 7q-22 6 -38 14 q1 -40 -11.5 -84t-34.5 -86.5t-53.5 -81t-68 -68t-76.5 -47t-80 -17.5t-69 16.5t-46.5 44t-22 65.5zM347.5 575q1.5 -18 10 -31.5t23.5 -21.5t35 -8q30 0 61.5 17t60.5 45t53.5 64t42.5 73.5t26.5 73.5t5 64t-21 45.5t-52.5 17.5q-26 0 -53.5 -16t-53 -42t-48 -59t-40.5 -66 t-30.5 -64t-16.5 -53q-4 -21 -2.5 -39zM689.5 93q-4.5 37 4.5 79q8 39 26.5 76.5t44 71.5t56.5 62t64.5 49t68.5 32.5t68 11.5q39 0 66 -14t42.5 -38.5t18.5 -57t-5 -70.5q-9 -41 -26.5 -81t-41.5 -76t-53 -66.5t-61 -53t-64.5 -34.5t-64.5 -12q-44 0 -74.5 15t-47.5 42 t-21.5 64zM782 87.5q2 -18.5 10 -32.5t22 -22.5t35 -8.5q26 0 53.5 13t52.5 34t47 47.5t40 55t30.5 56.5t17.5 52q6 26 7.5 52t-4.5 46t-22.5 32t-46.5 12q-26 0 -53 -16t-52 -42t-47 -58.5t-40 -65.5t-30 -64q-14 -30 -18 -51t-2 -39.5z" />
<glyph unicode="&#x26;" horiz-adv-x="1102" d="M113.5 139q-9.5 51 2.5 109q12 53 39.5 97.5t65 82t83.5 67.5t95 54q-8 46 -9.5 90.5t7 84.5t28 74.5t53.5 61.5l78 64q16 13 31 22.5t29.5 16.5t31 10.5t36.5 3.5q30 0 54 -8.5t38 -25t18 -41.5t-2 -58q-6 -30 -21 -58t-35 -54t-45.5 -51t-53 -46.5t-55.5 -40t-54 -33.5 q36 -98 88 -183.5t115 -164.5q36 36 59 72.5t34.5 69.5t12.5 59t-7 42q-2 5 -6 7.5t-9 3.5t-11 1t-12 1l-90 6l-4 13l59 69q37 0 70 -2t69 -2l281 4l-5 -6q-11 -24 -21 -47q-9 -22 -15 -48l-2 -4h-6q-46 11 -92 15.5t-91 -0.5q0 -42 -13.5 -82.5t-37.5 -78.5t-56 -72 t-66 -62q34 -24 68 -44t72 -30t79 -8t85 24l8 2l-2 -44h-2q-14 -8 -29 -17t-31.5 -19.5t-36 -24t-41.5 -31.5l-3 -2q-39 -9 -80 -3.5t-80 21t-71 36.5q-32 22 -54 46q-35 -24 -72 -43.5t-75 -33.5t-77 -21.5t-78 -7.5q-68 0 -118 21t-80.5 58t-40 88zM255.5 206.5 q8.5 -42.5 32.5 -74.5t62 -51t85 -19q22 0 44.5 4.5t45.5 12.5t46.5 19t44.5 23q-30 44 -59.5 88t-56 89.5t-48.5 94.5t-38 101q-32 -20 -58 -41.5t-45.5 -45t-33 -51.5t-20.5 -61q-10 -46 -1.5 -88.5zM508.5 696q0.5 -22 2 -43t3.5 -37q24 14 50.5 36t50 46.5t41 50 t22.5 49.5q4 16 3 33t-7 31t-17 22.5t-29 8.5q-30 0 -49 -9.5t-32 -25.5t-20 -38t-13 -46q-4 -16 -5 -36t-0.5 -42z" />
<glyph unicode="'" horiz-adv-x="303" d="M274 637l15 281q0 12 7.5 24t19 21t26 14.5t28.5 5.5q13 0 24.5 -5.5t18.5 -14.5t10 -21t-3 -24l-109 -281h-37z" />
<glyph unicode="(" horiz-adv-x="477" d="M164 272q-2 80 17 166q81 360 447 598l4 2l22 -38l-2 -4q-74 -58 -129.5 -121t-96 -131t-67.5 -141t-45 -153q-14 -64 -19 -117.5t-3 -101t10.5 -91.5t23 -87t33.5 -88t43 -94l4 -4l-50 -31l-4 2q-62 60 -103 130t-62.5 146t-22.5 158z" />
<glyph unicode=")" horiz-adv-x="477" d="M14 -133l4 4q69 62 123.5 126.5t97.5 136t73 150t50 166.5q14 65 18 136.5t-5 142t-35 139t-73 128.5l-4 4l51 38l4 -2q56 -56 98 -122t65 -142t26 -160t-17 -174t-59.5 -171t-97 -156t-130.5 -143t-159 -130l-6 -4z" />
<glyph unicode="*" horiz-adv-x="557" d="M180 702l15 15l194 25l-118 128l-7 14l95 74l25 -6l56 -172l124 178l19 2l67 -48l-6 -28l-164 -136l185 -17l7 -12l-33 -101l-19 -6l-170 82l6 -182l-6 -14l-102 -23l-25 15l73 198l-194 -94l-20 14z" />
<glyph unicode="+" horiz-adv-x="860" d="M142 322l21 100h309l70 307h98l-67 -307h309l-24 -100h-308l-69 -312h-98l68 312h-309z" />
<glyph unicode="," horiz-adv-x="360" d="M-22 -198q30 40 60 80.5t56.5 82t49 84.5t37.5 91l3 2q14 3 29 6.5t32 8.5t39 11t50 16l19 -24q-29 -50 -62.5 -96t-70 -89.5t-75.5 -85t-79 -81.5l-68 -27z" />
<glyph unicode="-" horiz-adv-x="477" d="M91 314l62 100h377l10 -12l-68 -99h-371z" />
<glyph unicode="." horiz-adv-x="360" d="M110.5 46q-3.5 16 0.5 34t14.5 33.5t24.5 27t32 18.5t36 7t32 -7t23 -18.5t13 -27t0 -33.5t-15 -34t-25.5 -28t-32 -19t-35.5 -7t-32 7t-23 19t-12.5 28z" />
<glyph unicode="/" horiz-adv-x="860" d="M76 -164l791 1200h113l-794 -1200h-110z" />
<glyph unicode="0" d="M109 241q3 87 31 213q12 58 30 119t44 119t61 110t81 91t104 61q58 23 132 23q78 0 125 -32.5t67 -91.5t17.5 -140t-22.5 -179q-8 -40 -22.5 -87t-33 -96t-42 -98t-52.5 -93t-61.5 -81.5t-70 -63t-79.5 -37.5q-40 -12 -86 -6q-80 10 -130 39t-73 86t-20 144zM239 177.5 q3 -42.5 16 -75t38 -52.5t67 -22q46 -2 82.5 19t65 57.5t50.5 85t38 101.5t28.5 108t21.5 105q8 44 18 92t17.5 94.5t8 89t-11 74t-38.5 49.5q-28 19 -76 17q-50 -2 -88.5 -23t-68 -56.5t-52 -82t-39 -97.5t-27.5 -104t-21 -103q-8 -44 -16 -92.5t-12 -95t-1 -89z" />
<glyph unicode="1" d="M166 -8l14 53q52 0 86 5.5t42 23.5q12 24 18 46q6 23 12 48l146 653q2 10 4 17.5t3 13t0 8t-5 0.5l-204 -82h-2l-16 4l6 66l164 57l194 66h34l-2 -7q-6 -16 -13.5 -39t-17.5 -61t-23.5 -94.5t-33 -139.5t-45 -196.5t-59.5 -265.5q-6 -25 -10 -47.5t-2 -46.5q0 -8 9 -14 t24 -9t37 -4.5t48 -1.5l-13 -53q-50 0 -98 4q-49 4 -99 4q-48 0 -97.5 -4t-100.5 -4z" />
<glyph unicode="2" d="M20 -8l13 49q24 23 48.5 44t52.5 44q58 50 114.5 97.5t108 93.5t96.5 90t80 86.5t59 85t32 84.5q9 42 5 78t-21.5 62t-47.5 40t-74 14q-36 -2 -63.5 -7t-47 -13t-33.5 -20t-24.5 -26t-19.5 -31q-8 -17 -18 -36l-26 -49l-50 2q9 24 18 49t18 51t17.5 50t16.5 46 q33 30 65.5 49t65.5 30t66 16t69 6q49 2 88 -7.5t68.5 -29.5t48.5 -47t28.5 -58.5t9 -66t-12.5 -70.5q-16 -50 -37.5 -91t-47 -74t-54 -61t-56 -51.5t-54.5 -44t-49 -40.5q-8 -8 -26 -23t-41.5 -35t-50 -43t-52.5 -44t-49 -40t-39 -32h286q27 0 53.5 -0.5t50.5 0.5t44.5 4 t36.5 8l7 -17q-10 -28 -16 -53t-6 -51l-14 -18q-78 4 -156 6t-158 2t-159 -4t-163 -4z" />
<glyph unicode="3" d="M70 228l52 18q6 -51 19 -88.5t37 -62.5t60 -37.5t89 -12.5q49 0 90.5 18.5t74 50t54.5 73t32 87.5t7 83t-19 63t-47 39.5t-79 13.5q-68 -1 -116 -31l-5 -2l-12 12l36 82q20 0 33.5 -2t31.5 -2q42 0 79 16.5t67 43t50 59.5t27 68q8 34 1 63.5t-24.5 50t-45.5 32t-61 11.5 q-43 0 -80 -13t-66 -36t-51 -52t-34 -61v-4h-54l82 172q30 27 60 45.5t61.5 30t64.5 16.5q34 5 68 5q59 0 104 -15.5t73 -43.5t37.5 -68t-0.5 -90q-7 -33 -25.5 -63.5t-45 -58.5t-59 -54t-68.5 -50q47 -8 81.5 -24.5t55.5 -43t26 -63t-5 -85.5q-9 -44 -33.5 -86t-61.5 -80 t-82 -70t-95 -55t-102.5 -36t-102.5 -13q-18 0 -40 2t-45.5 7t-46.5 12t-43 15q6 48 6 100q-2 54 -10 114z" />
<glyph unicode="4" d="M72 291l2 2q10 16 22.5 33.5t33 44.5t50.5 65q32 38 78 92l358 418l110 31l20 -13q-3 -14 -8.5 -30t-11.5 -34t-11 -37t-9 -37l-110 -474h79.5t69.5 4l7 2l-24 -110l-6 2q-32 4 -68 4h-80q-10 -45 -16 -78t-7.5 -56.5t4 -37.5t19 -22.5t36 -11.5t57.5 -3l-13 -53 q-52 0 -101 4t-99 4t-100.5 -4t-101.5 -4l12 53q34 0 58 3t41 11.5t29 22.5t21 37.5t17 56.5q6 33 16 78h-370zM187 352h281l104 467l-266 -319q-32 -38 -61 -74t-58 -74z" />
<glyph unicode="5" d="M60 198l48 25l2 -4q8 -30 17.5 -57.5t21.5 -57.5q6 -16 23.5 -27t39.5 -18t45 -10.5t41 -3.5q60 0 109 17t85.5 48.5t61 76.5t35.5 99q12 56 8 101t-24.5 77t-56.5 49t-88 17q-27 0 -47.5 -2.5t-39 -10t-37 -20.5t-40.5 -32l-24 -23l-35 12l3 5q4 14 12.5 46.5t19 75.5 t22 94l23 102t22.5 100t19 87v4l10 9h4q60 0 120.5 -3t122.5 -3t123.5 3t121.5 3h4l6 -11q-13 -31 -19.5 -58t-6.5 -52v-4l-21 -10l-269 4l-146 2q-24 -66 -41 -138t-31 -138q23 12 48 23.5t51 21t53 15t54 5.5q62 0 110 -19.5t78 -55.5t40 -88t-4 -116 q-12 -55 -39.5 -104.5t-66 -92.5t-85.5 -78t-99 -60t-105 -38t-104 -13q-16 0 -34.5 2t-37.5 7t-38 13t-36 20l-1 2z" />
<glyph unicode="6" d="M109.5 256.5q3.5 46.5 13.5 93.5q16 78 48.5 150t77.5 135t102 117.5t122.5 98t139 75.5t151.5 51l55 -33q-103 -32 -185 -74t-145.5 -98t-110 -128.5t-78.5 -164.5q32 21 60 40t56 33t59 23t69 9q62 0 104 -20t66 -56t30 -86t-8 -110q-10 -50 -31.5 -94t-51 -82 t-65.5 -68.5t-76.5 -52t-85 -32.5t-88.5 -11q-55 0 -95 15t-67.5 41t-42.5 62t-21 78t-2.5 88.5zM236 175.5q2 -29.5 9 -56.5t23 -47t40 -32t60 -12q32 0 59.5 10t51 27t42.5 40t33 49.5t24 54.5t16 55q9 43 8.5 84t-14.5 72.5t-44 51.5t-80 20q-24 0 -50 -7.5t-51 -21 t-46.5 -31.5t-34.5 -39q-16 -23 -22 -47t-12 -49q-6 -30 -10 -61t-2 -60.5z" />
<glyph unicode="7" d="M82 18l2 4q46 50 83 93t70 83t67 81q32 41 72 87q50 58 101 117t100 119t95 121t87 123h-369q-20 0 -33 -1.5t-22 -5t-14 -10.5t-10 -17t-9 -24t-11 -34l-30 -84h-51l1 6l13.5 63t16.5 73t17 77t16 75l1 4l21 9q80 0 156 -3t156 -3q79 0 156.5 3t159.5 3l-10 -47 q-57 -73 -117.5 -149.5t-122.5 -155.5t-123 -159t-118 -159.5t-108 -158t-95 -152.5l-2 -4h-4q-14 3 -31 4.5t-34.5 1.5t-34 -1.5t-28.5 -4.5h-4z" />
<glyph unicode="8" d="M92 122q-12 50 2 112q10 46 33 85t55.5 72t72 58t83.5 43q-30 22 -53.5 44.5t-38 49t-19.5 57.5t4 69q14 64 49.5 113.5t83.5 83t106 51t116 17.5q48 0 90.5 -12.5t72 -37.5t41.5 -65q14 -40 2 -94q-8 -40 -31 -73.5t-53 -61t-65 -50.5t-69 -41q38 -19 70 -41t54 -50.5 t30 -67t-2 -88.5q-10 -46 -31.5 -87.5t-52 -77.5t-68.5 -65t-80 -50t-86.5 -32t-88.5 -11q-59 0 -106.5 17t-78 51t-42.5 82zM197.5 148q5.5 -38 26 -64t55.5 -40t81 -14q40 0 78 17.5t70 46t54 66t30 76.5q8 36 3 62t-19 47t-36 37q-20 16 -46 34q-20 12 -46.5 26t-53.5 25 q-41 -22 -72.5 -46.5t-55.5 -53.5t-39.5 -62t-23.5 -71q-11 -48 -5.5 -86zM358 711q6 -25 20 -45t34 -36t41 -28l67 -37q30 18 57 37.5t48.5 42t36.5 49t22 58.5q9 38 4.5 69t-21 53t-44 35t-65.5 13t-70.5 -11t-58 -31t-43.5 -49t-28 -67q-6 -28 0 -53z" />
<glyph unicode="9" d="M90 -2l4 18h4q90 19 172 59.5t150 99.5t119 134.5t79 165.5l-52 -42t-56 -37t-63 -26t-73 -10q-64 0 -107 23t-67 62t-29 91t7 111q14 68 50.5 128.5t88 105t115.5 70.5t134 26q72 0 122.5 -27.5t79 -77.5t34.5 -120t-12 -156q-25 -106 -76.5 -203.5t-132.5 -179 t-192 -143.5t-254 -98h-2zM308.5 604q1.5 -42 16 -75t44 -54t75.5 -21q42 0 79 17t66.5 46t50 66t28.5 77q6 28 9 58.5t1 60t-9.5 55.5t-23 45t-39.5 31t-58 12q-52 0 -91.5 -20.5t-68 -53.5t-46 -75t-26.5 -85q-9 -42 -7.5 -84z" />
<glyph unicode=":" horiz-adv-x="360" d="M108 76q4 18 14.5 34t25 28.5t31.5 20t34 7.5q18 0 32.5 -7t24.5 -19t13 -28.5t-1 -35.5q-4 -18 -13 -33t-22.5 -26.5t-30 -18t-34.5 -6.5t-33 6.5t-25 18t-14.5 26.5t-1.5 33zM218 530q-4 16 0 33q4 18 14 34t23.5 28t30 19.5t34.5 7.5t33 -7t24.5 -19t13 -28.5 t-0.5 -34.5t-13 -33.5t-23 -26.5t-30 -17.5t-34 -6.5t-33 6.5t-25 17.5t-14 27z" />
<glyph unicode=";" horiz-adv-x="360" d="M-20 -194q32 38 62 78t56 82t47 86t37 92h2q15 3 30 6.5t32.5 9t38.5 12t49 14.5l20 -22q-29 -51 -62.5 -97.5t-70.5 -89.5t-76 -84t-79 -81l-66 -27zM250 563q4 18 14 34t23.5 28t30 19.5t35.5 7.5q18 0 32.5 -7t24.5 -19t14 -28.5t0 -34.5t-14 -33.5t-24 -26.5 t-31 -17.5t-35 -6.5q-16 0 -30 6.5t-24 17.5t-15 27t-1 33z" />
<glyph unicode="&#x3c;" horiz-adv-x="860" d="M144 330l17 84l798 332l-21 -99l-656 -275l533 -276l-21 -100z" />
<glyph unicode="=" horiz-adv-x="860" d="M111 186l23 98h718l-22 -98h-719zM174 459l20 98h716l-20 -98h-716z" />
<glyph unicode="&#x3e;" horiz-adv-x="860" d="M66 -4l24 100l652 276l-531 275l23 99l648 -332l-18 -84z" />
<glyph unicode="?" horiz-adv-x="633" d="M211.5 46q-3.5 16 0.5 34q4 19 14.5 35t25 27.5t32.5 17.5t36 6t32 -6t23 -17.5t13 -27.5t0 -35q-4 -18 -14 -34t-25 -28t-33 -19t-36 -7t-32 7t-23.5 19t-13 28zM228 768l94 166q46 20 94 34.5t96 14.5q52 0 97.5 -14t77 -42t45 -69.5t1.5 -97.5q-8 -36 -27.5 -68 t-45.5 -61t-58 -55.5t-64.5 -51t-63.5 -46.5t-56.5 -44t-42.5 -43t-21 -43q-2 -12 -1.5 -21t3 -17t6.5 -15t10 -13l2 -4l-44 -24l-2 2q-26 17 -37 44q-11 26 -3 62q5 24 19.5 48t34.5 46.5t44.5 45t50 44.5t49.5 44t44.5 45.5t35 48t20.5 49.5q6 32 0.5 58.5t-22 46.5 t-43.5 31t-63 11q-37 0 -59 -3t-37.5 -13t-30.5 -29t-36 -53l-18 -26z" />
<glyph unicode="@" horiz-adv-x="1059" d="M132 330q-5 65 12 137q16 72 48 138.5t78.5 123.5t104 104t123 80t137 51.5t145.5 18.5q60 0 115 -12.5t102 -36.5t83.5 -58.5t59 -79t29.5 -99t-7 -117.5q-12 -54 -37 -104t-59.5 -93.5t-75.5 -79t-83.5 -61.5t-84.5 -40t-80 -14q-26 0 -43 9.5t-28 25t-15 35.5 q-2 20 0 41q-22 -22 -44 -41.5t-44.5 -33.5t-47.5 -22t-55 -8q-42 0 -73.5 16.5t-50.5 45t-24 66.5t4 82q8 39 28 77.5t48.5 74.5t64 67t75 53.5t80.5 35.5t82 13q50 0 75.5 -25.5t29.5 -66.5l37 77h135l-199 -396q-6 -12 -10.5 -25.5t-4.5 -24t6 -17.5t22 -7q18 0 44 11 t54 33t57 52t55 67.5t46 81.5q20 45 31 93q14 64 -0.5 123t-53.5 104t-103 71.5t-149 26.5q-63 0 -123.5 -14.5t-116 -40.5t-103.5 -64t-87 -85.5t-66 -103t-41 -118.5q-20 -96 -3 -174t65.5 -134.5t124 -87t171.5 -30.5q56 0 109.5 14.5t104 40.5t96.5 62q44 36 84 80l3 2 h96l-5 -6q-46 -62 -106 -112t-127 -86t-138.5 -55t-141.5 -19q-72 0 -135.5 16.5t-116.5 47t-92.5 75t-62.5 99.5t-28 120zM441 321q-1 -21 5 -38t19 -28t35 -11q28 0 57 18t56.5 47.5t52 66.5t43.5 74t32.5 71t18.5 57q3 16 3 33t-5 32t-15.5 25t-28.5 10q-30 0 -60 -17 t-58 -44t-53 -61t-45 -69t-34 -68t-18 -57q-4 -20 -5 -41z" />
<glyph unicode="A" horiz-adv-x="1102" d="M20 -8l12 53h4q21 4 35.5 6.5t25.5 4.5t19 5t16 10t17 18.5t21 29.5l383 567q48 73 99.5 150.5t99.5 157.5h51l161 -802q6 -36 15 -68t26 -56q10 -11 29.5 -17t41.5 -6h6l-13 -53h-4q-48 0 -92.5 4t-92.5 4t-94 -4t-94 -4h-6l14 53h4q29 0 54.5 3.5t51.5 15.5 q14 6 18.5 20t0.5 30l-41 204h-392q-6 -11 -19 -30.5t-28 -43t-32 -49t-31 -47t-23.5 -38t-10.5 -22.5q-2 -14 7 -22t25 -12t37 -5.5t41 -3.5h4l-14 -53h-4q-42 0 -80 4t-80 4t-82 -4t-82 -4h-4zM440 387h336l-80 399z" />
<glyph unicode="B" horiz-adv-x="868" d="M90 -8l14 53h4q22 6 36 14.5t23 19.5t15 26t10 35l148 671q10 44 10.5 68.5t-10 36t-33.5 14t-60 2.5h-4l11 51h6q60 0 118 -3t118 -3q62 0 121 3t120 3q49 0 92 -9.5t73 -32.5t42 -61q6 -20 6 -44.5t-6 -53.5q-10 -46 -35 -82t-60 -64.5t-76 -48t-83 -30.5 q48 -6 90 -21.5t71 -43.5t41 -69q6 -20 6 -45t-6 -54q-10 -48 -35.5 -93t-62 -83t-82.5 -69t-97 -51t-105 -30q-38 -7 -76 -7l-32 1q-38 4 -75.5 6t-74.5 2q-42 0 -80 -4t-76 -4h-6zM318 74q24 -4 53 -8t68 -4q56 0 103.5 16t85.5 47t64.5 74.5t38.5 99.5q8 36 8 65 q0 18 -3 34q-8 40 -37 65t-77 36t-116 11h-89zM430 578q22 -3 45 -4.5t49 -1.5q44 0 87.5 9t80 30.5t63 57t37.5 87.5q5 26 5 47q0 19 -4 34q-9 31 -32 49.5t-60 26t-82 7.5q-30 0 -56.5 -4.5t-53.5 -12.5q-16 -44 -27 -100z" />
<glyph unicode="C" horiz-adv-x="1005" d="M125 338q-1 14 -1 29q0 60 16 127q18 82 54 151.5t86 126t111 100.5t128.5 73.5t139 45t140.5 15.5q46 0 91.5 -5t89.5 -14t87 -20.5t83 -24.5l4 -2l-1 -4q-22 -54 -41 -106q-18 -51 -36 -105l-2 -4h-50l1 6q8 35 14.5 58t6.5 40t-10 30t-37 29q-19 12 -40.5 21.5t-47 16 t-56.5 10.5t-69 4q-87 0 -164.5 -29t-139.5 -82t-107 -130t-66 -173q-14 -65 -14 -124q0 -34 5 -66q13 -86 58.5 -148.5t122.5 -96.5t183 -34q76 0 153 23.5t149 65.5l4 2l13 -19l-45 -67q-38 -20 -84 -36t-92 -27t-89 -17t-75 -6q-78 0 -148 15t-127 45t-100 74t-68 102 t-30 130z" />
<glyph unicode="D" horiz-adv-x="1097" d="M82 -8l14 53h4q20 4 33.5 8.5t24 13t17 22t11.5 36.5l148 669q10 49 14 77t-5 41.5t-32 16.5t-64 3h-6l13 51h4q68 0 135 -3t136 -3q70 0 138.5 3t134.5 3t125 -13t106 -38.5t82 -62.5t55 -85t24 -108q1 -13 1 -26q0 -48 -11 -101q-20 -86 -58 -161.5t-91 -139.5 t-118 -114t-138 -84q-73 -32 -154 -48q-58 -11 -118 -12q-23 0 -46 2q-47 4 -92 6t-93 2t-94 -4t-94 -4h-6zM320 74q28 -4 60 -6q32 0 68 -2q11 0 22 -1q75 0 139 13q73 14 132 41.5t104.5 68t80 90.5t57 107.5t36.5 120.5q15 68 15 122v10q-2 58 -19 104t-47 78t-72 52 t-94 30t-113 10q-45 0 -90.5 -4.5t-93.5 -4.5q-6 -23 -14.5 -50t-16.5 -65l-133 -598q-6 -31 -12.5 -60.5t-8.5 -55.5z" />
<glyph unicode="E" horiz-adv-x="868" d="M47 -8l13 53h5q27 0 50 5.5t41 19.5t31 38t21 60l142 643q6 28 10 47.5t4 33t-5 21.5t-19 12.5t-36 5.5t-57 1h-4l11 52h6q33 0 64.5 -1.5t62.5 -2.5t63 -2t64 -1q67 0 131.5 3t128.5 4h67h22h42q31 -1 57 -3t44 -4h6l-3 -6q-18 -36 -32 -68q-13 -31 -21 -67 q-2 -12 -5 -22t-6 -19.5t-6 -19.5q-3 -9 -5 -21l-1 -4h-53l1 4q4 21 6 38t2.5 32.5t0.5 31t1 31.5q-24 8 -48.5 12.5t-50 7t-51 3t-51.5 0.5q-48 0 -91 -1t-80 -6q-4 -12 -8.5 -24.5t-8.5 -25.5t-8 -29q-2 -16 -6 -34l-57 -256q77 0 129 -1h33q31 0 55 1q36 2 58 7.5 t34.5 18.5t19.5 35q8 23 15 57h55l-75 -334h-55l1 4q8 39 12.5 64.5t-1.5 41.5t-23 23t-52 9q-19 1 -45 2q-20 0 -44 -1q-54 -3 -134 -5l-58 -266q-4 -18 -7.5 -33.5t-6 -30t-4.5 -27.5t-3 -25q38 -4 86.5 -5t98.5 -1q57 0 114 4q56 3 114 20q18 39 33 75.5t29 72.5h58 q-12 -28 -23 -56t-18 -61l-29 -121l-4 -2q-22 -3 -48.5 -5t-57 -2.5t-63.5 -0.5q-11 0 -22 -1l-44 1q-62 2 -122.5 5t-127.5 3q-33 0 -65 -1t-64 -3t-64 -3t-65 -1h-4z" />
<glyph unicode="F" horiz-adv-x="798" d="M35 -8l11 53h6q33 0 56 1.5t38.5 5.5t24.5 12t15 21t11 33.5t11 49.5l142 643q6 28 10 47.5t4 33t-5 21.5t-19 12.5t-36 5.5t-57 1h-4l11 52h6q33 0 64.5 -1.5t62.5 -2.5t63 -2t64 -1q67 0 131.5 3t128.5 4h68h32.5h31.5q31 0 57 -2t43 -5h6l-3 -6q-18 -36 -32 -68 q-13 -31 -21 -67q-2 -12 -5 -22t-6 -19.5t-6 -19.5q-3 -9 -5 -21l-1 -4h-53l1 4q4 21 6 38t2.5 32.5t0.5 31t1 31.5q-24 8 -48.5 12.5t-50 7t-51 3t-51.5 0.5q-48 0 -91 -1t-80 -6q-8 -17 -13 -37t-11 -49l-64 -283q77 0 129 -1h33q31 0 55 1q36 2 57.5 7t34.5 17.5t20.5 34 t13.5 54.5l1 5h55l-75 -334h-55l1 4q8 39 12.5 64.5t-1.5 41.5t-23 23t-52 9q-19 1 -45 2q-20 0 -44 -1q-54 -3 -134 -5l-63 -288q-6 -29 -10.5 -49.5t-4.5 -33.5t5.5 -21t19 -12.5t35.5 -5.5t56 -1h6l-14 -53h-4q-26 0 -50 1t-48.5 3t-50 3t-51.5 1q-51 0 -102 -4t-99 -4 h-4z" />
<glyph unicode="G" horiz-adv-x="1169" d="M125 328q-1 16 -1 32q0 59 14 128q17 80 52 149.5t84 127t111 102.5t133.5 76t151.5 47t164 16q47 0 92.5 -5t89.5 -14t86 -20.5t83 -24.5l3 -2v-4q-22 -54 -40 -105.5t-38 -105.5v-4h-50l2 6q5 24 9.5 41.5t7.5 31.5t3 25t-4.5 20.5t-15 19t-28.5 19.5 q-19 12 -40.5 21.5t-47.5 16t-57 10.5t-68 4q-100 0 -185.5 -31t-152 -86t-112 -132t-65.5 -169q-15 -72 -15 -135q0 -29 3 -57q10 -87 53 -150t118 -98t183 -35q40 0 75 3.5t61 10.5t44 16t23 21q4 10 9.5 28t10.5 40.5t10 46.5t9 44.5t7 36.5t5 22q2 8 -7.5 13t-29 8 t-47.5 4t-66 1h-4l13 53h350l-9 -45h-4q-24 -4 -38 -17t-22.5 -35t-13.5 -51t-11 -63l-23 -135h-4l-71 -19q-37 -9 -78 -18.5t-82.5 -17.5t-82 -13t-76.5 -5q-78 0 -147.5 14t-126 42t-99.5 70t-68 100t-30 130z" />
<glyph unicode="H" horiz-adv-x="1177" d="M35 -8l11 53h6q33 0 56 1.5t38.5 5.5t24.5 12t15 21t11 33.5t11 49.5l142 643q6 28 10 47.5t4 33t-5 21.5t-19 12.5t-36 5.5t-57 1h-4l11 51h6q48 0 96 -3t100 -3q54 0 103 3t100 3h6l-13 -51h-4q-34 0 -56 -1t-37.5 -5.5t-25 -12.5t-15.5 -21.5t-10 -33.5t-10 -47 l-58 -254h550l58 254q6 28 11 47.5t5 33t-5 21.5t-18 12.5t-36 5.5t-57 1h-6l12 51h4q48 0 96 -3t102 -3q51 0 101.5 3t102.5 3h4l-11 -51h-6q-34 0 -56.5 -1t-37.5 -5.5t-24.5 -12.5t-15.5 -21.5t-10.5 -33.5t-10.5 -47l-143 -643q-6 -29 -10.5 -49.5t-4.5 -33.5t6 -21 t19 -12.5t36 -5.5t57 -1h4l-11 -53h-7q-50 0 -98 4t-102 4q-51 0 -100.5 -4t-97.5 -4h-7l13 53h5q34 0 57.5 1.5t38.5 5.5t24 12t14.5 21t10 33.5t10.5 49.5l70 320h-551l-70 -320q-6 -29 -10.5 -49.5t-4.5 -33.5t5.5 -21t19 -12.5t35.5 -5.5t56 -1h6l-14 -53h-4 q-26 0 -50 1t-48.5 3t-50 3t-51.5 1q-51 0 -102 -4t-99 -4h-4z" />
<glyph unicode="I" horiz-adv-x="483" d="M35 -8l11 53h6q33 0 56 1.5t38.5 5.5t24.5 12t15 21t11 33.5t11 49.5l142 643q6 28 10 47.5t4 33t-5 21.5t-19 12.5t-36 5.5t-57 1h-4l11 51h6q48 0 96 -3t100 -3q54 0 103 3t100 3h6l-13 -51h-4q-34 0 -56 -1t-37.5 -5.5t-25 -12.5t-15.5 -21.5t-10 -33.5t-10 -47 l-143 -643q-6 -29 -10.5 -49.5t-5 -33.5t4.5 -21t18.5 -12.5t36 -5.5t57.5 -1h6l-14 -53h-4q-26 0 -50 1t-48.5 3t-50 3t-51.5 1q-51 0 -102 -4t-99 -4h-4z" />
<glyph unicode="J" horiz-adv-x="477" d="M-80 -272l26 116l26 12l2 -2q10 -8 16.5 -13t14 -8t16.5 -4t24 -1q24 0 42 10.5t31.5 28t22 40t13.5 46.5l190 858q6 28 10.5 47.5t5 33t-4.5 21.5t-18.5 12.5t-36 5.5t-57.5 1h-6l13 51h4q48 0 95.5 -3t101.5 -3q52 0 102.5 3t99.5 3h6l-13 -51h-4q-34 0 -56 -1 t-37.5 -5.5t-25 -12.5t-15.5 -21.5t-10 -33.5t-10 -47l-143 -641q-8 -34 -17 -73t-26.5 -81t-45.5 -86t-72 -88q-34 -33 -68.5 -55t-67.5 -35.5t-64 -18.5t-58 -5h-6z" />
<glyph unicode="K" horiz-adv-x="1028" d="M35 -8l11 53h6q33 0 56 1.5t38.5 5.5t24.5 12t15 21t11 33.5t11 49.5l142 643q6 28 10 47.5t4 33t-5 21.5t-19 12.5t-36 5.5t-57 1h-4l11 51h6q48 0 96 -3t100 -3q54 0 103 3t100 3h6l-13 -51h-4q-34 0 -57 -1t-38 -5.5t-24 -12.5t-15 -21.5t-10 -33.5t-10 -47l-66 -297 q124 100 246 196q120 97 242 191q1 2 7 11t12.5 20.5t12.5 23.5q8 13 10 23v6l4 -2q30 -2 59 -4t59 -2q31 0 60.5 2.5t59.5 3.5l4 2l-10 -53h-7q-32 0 -53 -1.5t-38.5 -7.5t-36.5 -18q-19 -13 -47 -33l-446 -334l362 -430q12 -14 21 -26t20.5 -20t26 -12.5t36.5 -4.5h4 l-14 -53h-4q-24 4 -48 6t-48 2t-50 -2t-50 -6h-5l1 2q-7 17 -18.5 30t-23.5 25q-42 54 -86.5 105.5l-89 103t-89.5 103t-87 104.5l-9 -6l-64 -291q-6 -29 -10.5 -49.5t-4.5 -33.5t5.5 -21t19 -12.5t35.5 -5.5t56 -1h6l-14 -53h-4q-26 0 -50 1t-48.5 3t-50 3t-51.5 1 q-51 0 -102 -4t-99 -4h-4z" />
<glyph unicode="L" horiz-adv-x="868" d="M92 -8l12 53h4q24 4 40.5 13.5t28 28t20.5 47t19 71.5l134 606q6 28 10 47.5t4 33t-5 21.5t-19 12.5t-36 5.5t-57 1h-4l11 51h6q48 0 96 -3t100 -3q54 0 103 3t100 3h6l-13 -51h-4q-34 0 -57 -1t-38 -5.5t-24 -12.5t-15 -21.5t-10 -33.5t-10 -47l-163 -737q44 -4 93.5 -5 t99.5 -1q57 0 113.5 3.5t114.5 20.5q3 4 7 10.5t12 23t22.5 46.5t40.5 82l55 -2q-6 -11 -11.5 -24.5t-9.5 -27.5t-8 -26t-7 -22l-50 -150l-5 -2q-18 -3 -43 -5t-54 -2.5t-61 -0.5h-30.5h-31.5q-60 2 -118 5t-120 3q-60 0 -121 -4t-123 -4h-4z" />
<glyph unicode="M" horiz-adv-x="1337" d="M20 -8l14 53l26 2q32 2 53.5 5t35.5 11.5t22.5 25t14.5 46.5l156 707q6 30 6 48t-10 27t-30 12q-18 3 -50 3h-30l14 51h4q32 0 64 -3t68 -3t68 3q34 3 66 3h4l196 -774l413 585q33 48 63 94q28 46 54 93v2h5q36 0 67.5 -3t64.5 -3q36 0 68.5 3t67.5 3h4l-11 -51h-26 q-33 0 -54.5 -3t-35.5 -12t-22 -27t-14 -48l-147 -674q-6 -29 -10.5 -49.5t-4.5 -33.5t5 -21t18 -12.5t36 -5.5t57 -1h6l-14 -53h-4q-51 0 -100 4q-48 4 -100 4q-54 0 -103.5 -4t-97.5 -4h-4l11 53h6q34 0 57.5 1.5t39 5.5t24 12t14 21t10.5 33.5t11 49.5l136 620l-557 -806 h-35l-205 806l-145 -653q-6 -30 -5 -46.5t11 -25t31 -11.5t55 -5l26 -2l-12 -53h-6q-42 0 -82 4t-82 4q-43 0 -85.5 -4t-84.5 -4h-6z" />
<glyph unicode="N" horiz-adv-x="1177" d="M14 -8l12 53l28 2q32 2 53.5 5t35.5 11.5t22.5 25t14.5 46.5l156 707q6 30 6 48t-8 27t-26 12t-48 3h-25l13 51h4q31 0 59.5 -3t60.5 -3q31 0 60.5 3t60.5 3h2l474 -825l151 684q6 30 6 48t-10 27t-30 12t-52 3h-27l11 51h6q42 0 83 -3t83 -3t85 3t85 3h4l-13 -51h-27 q-34 0 -56 -3t-36 -12t-22 -27q-10 -18 -16 -48l-180 -814l-9 -58l-115 20l-487 817l-149 -672q-6 -30 -5 -46.5t11 -25t31 -11.5t55 -5l26 -2l-14 -53h-4q-42 0 -82 4t-82 4q-44 0 -87 -4t-85 -4h-4z" />
<glyph unicode="O" horiz-adv-x="1114" d="M124 344v17q0 63 16 133q16 72 46.5 138t75 123t101 103t123 79t142 51t157.5 18q114 0 202.5 -32t144.5 -93t75 -152q8 -37 8 -78q0 -61 -17 -131q-16 -76 -50.5 -146.5t-83 -131t-109.5 -110.5t-130 -86t-144 -55t-153 -19q-72 0 -133.5 16t-110.5 47.5t-84 77 t-54.5 103.5t-21.5 128zM294 418q-1 -19 -1 -37q0 -41 6 -80q8 -56 28.5 -104.5t55.5 -83.5t86 -54q44 -16 101 -16h18q86 2 157.5 34.5t127 89t94.5 135.5t59 175q21 89 21 164q0 13 -1 25q-4 84 -38.5 144t-99 93t-160.5 33q-89 0 -161.5 -29.5t-127.5 -82t-92 -125.5 t-56 -159q-13 -61 -17 -122z" />
<glyph unicode="P" horiz-adv-x="858" d="M35 -8l11 53h6q33 0 56 1.5t38.5 5.5t24.5 12t15 21t11 33.5t11 49.5l142 643q6 28 10 47.5t4 33t-5 21.5t-19 12.5t-36 5.5t-57 1h-4l11 51h6q62 0 121 -3t125 -3q62 0 124 3t124 3q34 0 68 -5t64 -16t55 -28.5t40.5 -41.5t20.5 -56q2 -12 2 -27q0 -22 -5 -47 q-10 -44 -30.5 -84t-50 -73t-66 -59t-78 -45t-86 -30t-88.5 -12q-30 -2 -52.5 1.5t-38.5 8.5h-2l-7 63l10 -2q16 -4 38 -9t47 -5h5q39 0 77 14q40 14 72.5 41t55.5 63.5t33 80.5q8 34 8 62q0 17 -3 31q-7 40 -30 65t-62 37t-93 12q-36 0 -69.5 -6t-67.5 -13 q-10 -17 -15.5 -39t-11.5 -53l-143 -643q-6 -29 -10.5 -49.5t-5 -33.5t4.5 -21t18.5 -12.5t36 -5.5t57.5 -1h6l-14 -53h-4q-26 0 -50 1t-48.5 3t-50 3t-51.5 1q-51 0 -102 -4t-99 -4h-4z" />
<glyph unicode="Q" horiz-adv-x="1114" d="M130 276q-6 36 -6 76q0 64 15 138q16 73 47.5 139.5t77.5 124t103 104t124 79.5t141 51t153 18q114 0 202.5 -32t144.5 -94t74 -154q7 -36 7 -77q0 -62 -16 -133q-16 -73 -49.5 -141t-80.5 -127.5t-106 -109t-124.5 -85.5t-135.5 -56.5t-140 -22.5h5q24 -6 48 -13t50 -19 l101 -42q38 -16 71.5 -28t67.5 -18q28 -4 57 -4h10q33 0 71 8h7l-8 -38l-5 -2q-16 -7 -30 -15.5t-27.5 -17.5t-27 -17.5t-27.5 -15.5l-16 -8q-4 -2 -10.5 -2t-15.5 2q-20 4 -48 12t-62 20t-70.5 24l-73 24t-68.5 21t-58 14t-42 3q-18 -2 -35 -8t-34 -14.5t-34 -18t-33 -17.5 l14 54l2 2q26 21 53 38.5t54 31t53 24.5q26 12 48 20h-20q-112 2 -196 38t-135.5 102.5t-66.5 161.5zM286 414v-26q0 -46 7 -88q9 -54 31 -101t58 -81t87.5 -53.5t119.5 -19.5q60 0 112 15.5t97 44.5t82.5 68t66.5 87t50 101.5t33 111.5q19 82 19 151q0 18 -1 34 q-6 84 -41 144t-100 94t-160 36h-16q-51 0 -97 -11q-52 -13 -97.5 -38t-83 -61t-67.5 -80.5t-51 -96t-33 -109.5q-13 -62 -16 -122z" />
<glyph unicode="R" horiz-adv-x="948" d="M35 -8l11 53h6q33 0 56 1.5t38.5 5.5t24.5 12t15 21t11 33.5t11 49.5l142 643q6 28 10 47.5t4 33t-5 21.5t-19 12.5t-36 5.5t-57 1h-4l11 51h6q60 0 120 -3q58 -3 122 -3q124 0 247 6q14 1 28 1q57 0 97 -14q50 -16 78 -46q30 -30 38 -71q4 -19 4 -39q0 -23 -6 -48 q-12 -58 -45.5 -104t-79 -80t-99.5 -56t-106 -32l221 -412q13 -18 32 -25t41 -12h2l-12 -53h-6q-22 4 -45 6t-47 2q-25 0 -48.5 -2t-47.5 -6h-4l-2 2q-12 23 -21 42q-9 20 -19 38l-238 432l12 26h4q32 0 64 -1h9l55 5q38 6 74 23t66 42t51 58t29 70q7 31 7 57q-1 20 -5 36 q-10 37 -34 59.5t-60 31.5t-76 9q-36 0 -72 -5.5t-67 -13.5q-10 -17 -15.5 -38t-11.5 -54l-143 -643q-6 -29 -10.5 -49.5t-5 -33.5t4.5 -21t18.5 -12.5t36 -5.5t57.5 -1h6l-14 -53h-4q-26 0 -50 1t-48.5 3t-50 3t-51.5 1q-51 0 -102 -4t-99 -4h-4z" />
<glyph unicode="S" horiz-adv-x="747" d="M46 26l3 4q6 21 13.5 44.5t14.5 50t14 57.5t15 68h60q-8 -38 -13 -62t-7 -40t-0.5 -24t6.5 -14q17 -18 40.5 -30t50.5 -19.5t55 -10.5t56 -3q46 0 92.5 13.5t87 40t70.5 65.5q30 38 40 88q5 27 5 49q1 19 -3 33q-8 32 -31 51.5t-56 29t-72 14.5t-80 8.5t-79.5 11 t-71 21.5t-53.5 41t-27 69q-3 15 -3 33q0 31 9 71q10 48 33 91t54 78.5t70 63t82 47t89 30.5q44 10 90 10q36 0 70.5 -5.5t67 -14.5t64 -21t61.5 -25h2l-1 -4q-10 -22 -19.5 -46.5t-17.5 -49.5t-14.5 -49.5t-11.5 -46.5l-1 -4h-58l2 4q8 41 13 67t-2 43q-10 21 -30.5 35.5 t-46 24t-53 14t-52.5 4.5q-43 0 -84 -14t-75 -39.5t-59 -61.5q-25 -35 -35 -79q-6 -25 -6 -46q0 -16 4 -29q8 -30 30.5 -48.5t56 -28.5t72 -17t80 -11.5t80.5 -12.5t72 -21.5t55 -37.5t30 -61q4 -15 3 -34q0 -26 -7 -57q-13 -62 -41.5 -112.5t-67.5 -91t-87 -70.5 t-100 -49.5t-107 -29t-107 -9.5q-63 0 -119 14q-57 14 -111 40h-4z" />
<glyph unicode="T" horiz-adv-x="870" d="M199 746l1 6q12 59 21.5 115t21.5 112l1 4h6q100 0 199 -3t203 -3q102 0 202 3t204 3h4v-4q-18 -58 -32 -115q-14 -56 -26 -112l-2 -6h-52l2 6q6 30 7 55t1 51q3 13 2 20.5t-5.5 11.5t-12.5 6q-8 1 -20 1l-214 4q-8 -30 -17 -62.5t-18 -70.5l-131 -600 q-6 -29 -10.5 -49.5t-5 -33.5t5.5 -21t19 -12.5t35 -5.5t56 -1h4l-11 -53h-4q-51 0 -100.5 4t-100.5 4q-54 0 -103 -4t-97 -4h-4l13 53h4q34 0 57.5 1.5t38.5 5.5t24 12t14.5 21t10 33.5t10.5 49.5l132 600q8 38 15 71t9 64l-212 -6q-12 0 -20 -1.5t-14 -5.5t-10 -11.5 t-8 -20.5q-12 -26 -22 -52q-10 -24 -16 -54l-2 -6h-53z" />
<glyph unicode="U" horiz-adv-x="1102" d="M218 150q-7 28 -7 61q0 43 11 94l114 506q6 28 11 47.5t5 33t-5 21.5t-18.5 12.5t-36 5.5t-57.5 1h-7l14 51h4q48 0 95.5 -3t101.5 -3q51 0 101 3t100 3h7l-13 -51h-4q-34 0 -56 -1t-37.5 -5.5t-24.5 -12.5t-15.5 -21.5t-11 -33.5t-10.5 -47l-110 -489q-11 -50 -11 -89 q0 -18 2 -34q8 -49 37 -77.5t79 -40t120 -11.5q78 0 139 22.5t106 65t74 102.5t45 136l97 446q6 30 5.5 48t-10.5 27t-29 12t-51 3h-26l10 51h4q44 0 86 -3t83 -3q42 0 83.5 3t85.5 3h4l-12 -51h-27q-34 0 -56.5 -3t-37 -12t-23 -27t-15.5 -48l-115 -518 q-12 -59 -37.5 -108.5t-61 -88.5t-79.5 -68t-92.5 -48.5t-101 -29t-106.5 -9.5q-84 0 -151 17.5t-110 57t-59 103.5z" />
<glyph unicode="V" horiz-adv-x="1024" d="M218 932l11 51h6q48 0 92.5 -3t92.5 -3t94 3t94 3h4l-10 -51h-4q-34 0 -56.5 -1.5t-36.5 -4t-20.5 -6.5t-9.5 -9t-2.5 -11t0.5 -13l114 -697l377 615q12 20 24 37.5t19 31.5t7 25t-11 18t-36 11t-67 4h-6l13 51h4q37 0 75 -3t76 -3t76 3t76 3h4l-10 -51h-4 q-33 0 -53.5 -7.5t-33.5 -21t-24 -32.5t-27 -43l-520 -840h-78l-148 854q-4 20 -5 33.5t-2.5 22t-4.5 13.5t-9.5 8t-18.5 6t-31 7h-31z" />
<glyph unicode="W" horiz-adv-x="1413" d="M218 932l11 51h6q44 0 85.5 -3t89.5 -3q44 0 89 3t89 3h4l-11 -51h-4q-34 0 -56.5 -3t-35.5 -8t-20 -13t-9 -18.5t-2 -23v-26.5l2 -610l466 764h53l99 -775l310 629q7 14 13.5 26t8.5 21t-1 16t-15 12t-34 7t-58 2h-4l10 51h6q37 0 72.5 -3t74.5 -3q37 0 74 3t72 3h7 l-13 -51h-5h-36.5t-23 -5t-17 -15t-17.5 -32l-460 -892h-80l-102 756l-460 -756h-78l-1 2q0 9 0.5 20t0.5 29.5v46.5t-0.5 71t-1 105t-1.5 147t-2 196.5t-1 254.5q-1 22 -3.5 35t-10.5 20.5t-22.5 11t-38.5 5.5h-19z" />
<glyph unicode="X" horiz-adv-x="946" d="M18 -8l12 53h6q28 0 45.5 4.5t32 15t28.5 26t34 38.5l342 355l-109 284q-14 32 -26 58.5t-28.5 45t-41.5 28.5q-18 7 -43 6q-11 0 -22 -1h-7l9 49l212 29h2q14 -6 22.5 -15t15 -20.5t11 -23.5t10.5 -25l111 -297l342 375h147l-11 -51h-6q-28 0 -46 -5t-30.5 -13t-22 -18 t-19.5 -20l-332 -332l172 -426q8 -22 14 -34t13.5 -19t20 -9.5t36.5 -2.5l19 -2l-13 -53h-6q-24 4 -48 6t-51 2q-26 0 -51.5 -2t-51.5 -6h-4l-160 430l-376 -430h-4q-16 4 -32 6q-18 2 -36 2q-20 0 -37 -2t-37 -6h-6z" />
<glyph unicode="Y" horiz-adv-x="946" d="M214 912l11 50l162 32q7 2 14 2q10 0 19 -4q14 -6 26 -18t21 -28t16.5 -32.5t13 -33l9.5 -28.5l118 -358l190 223q56 66 108 131t104 133l2 2h118l-7 -27q-36 -34 -78.5 -75t-86 -86t-86.5 -92t-81.5 -91t-69.5 -83.5t-51 -69.5q-10 -14 -18 -27.5t-13 -26.5t-8.5 -25 t-6.5 -26l-40 -186q-6 -29 -10 -49.5t-4 -33.5t5 -21t18.5 -12.5t36 -5.5t56.5 -1h6l-14 -53h-4q-51 0 -100.5 4t-99.5 4q-54 0 -102.5 -4t-96.5 -4h-7l14 53h4q33 0 56 1.5t38.5 5.5t24.5 12t15 21t11 33.5t11 49.5l45 204l4 24t-1 20q-11 32 -23.5 71t-26 81t-29 84 t-32.5 80.5t-36 72t-41 58.5t-46 38t-52 13z" />
<glyph unicode="Z" horiz-adv-x="946" d="M20 -8l11 49l867 869h-82q-79 0 -158.5 -1t-159.5 -6q-35 -2 -57.5 -3.5t-36.5 -4.5t-21.5 -7.5t-12 -12t-7 -18.5t-7.5 -27l-28 -86h-54l2 6q22 58 33 115.5t18 113.5l1 4h794l-12 -49l-26 -22l-839 -838l353 -4q24 0 52 -0.5t57 0.5t56.5 4t50.5 10q11 3 19 9t15 16.5 t13.5 25t14.5 35.5l30 84h55l-58 -262h-4q-110 0 -216.5 4t-217.5 4q-112 0 -221 -4q-110 -4 -220 -4h-4z" />
<glyph unicode="[" horiz-adv-x="477" d="M80 -152q4 22 12 49t17 58t19 67t18 76l150 678q17 79 26.5 142.5t18.5 107.5l1 2l13 8h2q34 -4 67 -5t67 -1q36 0 69 2q34 0 68 4h4l6 -8l-6 -41l-12 -8h-52q-21 0 -39 -2.5t-31.5 -7.5t-22.5 -12t-11 -17q-6 -18 -12 -39t-11 -43t-10 -43t-9 -39l-148 -678 q-4 -18 -8 -39t-9 -44t-9 -45t-7 -40q-2 -8 3.5 -15t17 -12t28 -7t37.5 -2h51l9 -8l-11 -40l-12 -10h-2q-33 4 -66.5 5t-67.5 1q-36 0 -70 -1t-68 -5h-2l-8 10v2z" />
<glyph unicode="\" horiz-adv-x="860" d="M341 1036h111l298 -1036h-111z" />
<glyph unicode="]" horiz-adv-x="477" d="M32 -154l9 40l9 8h54q42 0 69 9t33 27t12 40t11.5 45t10 44t8.5 39l150 678q4 18 8 39t8 43t8 43t7 39q4 20 -19 29.5t-65 9.5h-53l-6 8l8 41l12 8h2q33 -4 66.5 -5t67.5 -1q36 0 70 2q34 0 66 4h4l7 -8l-1 -2q-10 -44 -28 -107.5t-35 -142.5l-148 -678q-17 -80 -28 -143 t-21 -107v-2l-13 -10h-2q-33 4 -66 5t-67 1q-36 0 -70 -1t-69 -5h-3z" />
<glyph unicode="^" horiz-adv-x="860" d="M170 456l441 580h97l184 -580h-109l-151 454l-355 -454h-107z" />
<glyph unicode="_" d="M-56 -256l22 102h712l-22 -102h-712z" />
<glyph unicode="`" horiz-adv-x="477" d="M224.5 908.5q-2.5 15.5 3 30t18 26.5t28.5 16t27 2.5t21 -7.5t18 -16t16 -22l161 -200h-71q-52 40 -102 74t-101 70q-16 11 -18.5 26.5z" />
<glyph unicode="a" horiz-adv-x="696" d="M74 80q-2 11 -2 24q0 25 6 54q9 42 27.5 73t43.5 55t56 41t64 28.5t67 19t68 12.5l134 23q10 37 10 66q0 38 -16 63q-28 45 -115 45q-26 0 -53.5 -5t-49.5 -18q-9 -8 -16 -18t-14 -21.5t-15.5 -24.5t-19.5 -28l-3 -4l-43 10q6 26 9.5 43.5t6.5 29.5t7 20t14 14 q24 14 53 29t61 28t66 21t68 8q48 0 82 -10t56.5 -27t34 -42t15.5 -57q2 -14 1 -29q-1 -19 -3 -40q-4 -37 -13 -78l-59 -258q-7 -28 -5.5 -44.5t10 -25t25 -10.5t41.5 -2h6l-13 -53h-6q-24 4 -49 6t-54 2q-26 0 -53.5 -2t-59.5 -6h-8l4 6l8 20t7 22.5t7 29t10 40.5 l-168 -106q-23 -14 -42.5 -23t-42.5 -9q-43 0 -74 13t-49 37t-22 58zM204 152q0 -4 -1 -8q0 -18 6 -32q7 -18 22 -29t34 -16q12 -3 25 -3q8 0 16 1q20 3 42 13q18 8 36 18.5t33.5 21t28.5 20.5t21 18q10 10 15.5 20t7.5 22l36 158l-76 -14q-38 -8 -74 -18q-34 -10 -58 -21 t-42 -24.5t-31.5 -32t-25.5 -43.5q-13 -28 -15 -51z" />
<glyph unicode="b" horiz-adv-x="786" d="M98 -8l2 4q4 17 8 30q4 14 10 32l43 161l141 637q4 21 -3 34.5t-21.5 21.5t-33.5 11q-20 3 -38 3h-4l12 51h4q31 5 60.5 10t59.5 10t60 12t61 15l3 2l1 -4q4 -4 4.5 -12t-1.5 -19l-55 -213l-53 -242q32 30 62 54.5t62 41.5t67 26.5t78 9.5q64 0 107.5 -23t67.5 -63 t29 -92q1 -15 2 -32q0 -39 -9 -81q-7 -33 -20 -66t-32.5 -65.5t-45.5 -63t-59 -59.5h-2q-22 -18 -42.5 -32.5t-41.5 -27t-42 -24t-44 -23.5q-6 -2 -16.5 -7t-22.5 -10t-22.5 -8t-16.5 -3q-14 0 -30.5 -2t-34.5 -2q-48 0 -88 11t-72 38l-67 -51zM268 135q8 -16 25 -28.5 t38.5 -21.5t44.5 -14t43 -5q57 0 101.5 23t77 61t54 86.5t31.5 97.5q9 39 9 76v12q-2 42 -17 74t-47 52t-84 20q-27 0 -56.5 -9t-56.5 -24t-50 -35q-23 -22 -37 -46q-2 -4 -5 -9.5t-7 -16.5v-4l-1 -2l-1 -2z" />
<glyph unicode="c" horiz-adv-x="633" d="M107 160q-6 28 -6 58q0 39 9 83q10 44 28 84.5t43 81.5q14 22 28 37.5t29 28.5t32.5 24t39.5 23q17 8 40.5 21t48.5 25t49 22t40 12q21 4 43 6q23 2 41 2q27 0 47.5 -2.5t39.5 -7t37 -12.5t40 -18l1 -2l-1 -4q-12 -31 -23 -60.5t-17 -59.5l-22 -66h-49l9 52q2 12 2 22 t-3 22q0 12 -11 22.5t-28.5 18t-39.5 11.5t-46 4q-58 0 -99.5 -15.5t-71 -45t-47.5 -71.5t-30 -94q-12 -58 -13 -104q0 -20 3 -38q8 -58 35 -95t69 -53q44 -16 94 -16q36 0 72 12q36 10 78 28h4l12 -20l-40 -52q-60 -26 -113 -39t-99 -13q-64 0 -117.5 21t-89 63t-48.5 104z " />
<glyph unicode="d" horiz-adv-x="868" d="M102 184q-1 13 0 27q0 49 12 103q10 50 36 101t66 93q20 20 44 37t49 31t51 26q28 12 54 24q20 8 36 16t32.5 13.5t34.5 9t40 3.5q24 0 44 -3t38.5 -8t36.5 -13t38 -18l51 230q4 21 -2.5 34.5t-21 21.5t-33.5 11q-18 3 -38 3h-4l10 51h4q31 5 61 10t59.5 10t59.5 12 t62 15l2 2l2 -2q5 -5 5 -13l-1 -20l-56 -213l-144 -649q-2 -12 -5 -22.5t-4 -19.5t2 -17t11 -14l1 2q16 -6 30.5 -8t30.5 -3l30 -2l-11 -53h-6q-28 4 -57.5 6t-59.5 2t-60 -2t-58 -6h-8l3 6q10 23 14 40.5t8 35.5l10 47l-172 -125h-2q-24 -4 -46 -8t-45 -4q-76 0 -126 25 t-77 70t-31 105zM245 245q3 -47 21 -83.5t53 -59t89 -22.5q22 0 44 6t43 16t41 25t36 33q19 21 31 38.5t19.5 35.5t12.5 38t9 44l40 178q-16 22 -34.5 40t-40 31.5t-45.5 21t-51 7.5q-106 0 -169 -63t-92 -191q-8 -37 -7 -73q-1 -11 0 -22z" />
<glyph unicode="e" horiz-adv-x="682" d="M104 172q-2 20 -3 41q0 45 11 94q5 24 14.5 58t29.5 72.5t54.5 78.5t88.5 74q24 16 51.5 30t56.5 24.5t58 17t55 6.5q60 0 106.5 -18t75.5 -51t39 -81q4 -21 4 -44q0 -31 -7 -66q-4 -17 -9 -30t-9 -30v-4l-4 -2q-66 -10 -131 -14t-129 -4l-200 -2q-9 -43 -9 -81 q-1 -14 1 -27q4 -49 27.5 -83.5t66 -53.5t106.5 -19q24 0 47.5 5t46 14t46 20t48.5 24l2 2l14 -21l-36 -51q-62 -36 -125 -57.5t-125 -21.5q-80 0 -136 24.5t-87 69t-39 106.5zM271 389q24 -3 49.5 -5t51.5 -1l147 -2l79 4q12 43 14 83v12q0 32 -10 60q-12 32 -39.5 51 t-76.5 19q-46 0 -82 -19.5t-63 -51t-44 -71t-26 -79.5z" />
<glyph unicode="f" horiz-adv-x="477" d="M31 -8l11 53h6q43 0 67.5 7t39 25.5t23 52t19.5 85.5l71 325l-100 -8l10 36l108 48l12 58q10 46 23 80t33 64t48.5 57.5t68.5 60.5q22 17 41.5 32.5t40.5 28t43 20t50 7.5q17 0 32.5 -1t30.5 -7h4l-26 -115l-25 -12l-2 2q-13 17 -33 25t-48 8t-47.5 -8t-33.5 -22 t-23.5 -33t-16 -40t-11 -43.5t-9.5 -44.5l-24 -115h184l-29 -78h-174l-71 -325q-11 -52 -16 -85.5t1.5 -52t27.5 -25.5t61 -7h7l-14 -53h-4q-43 0 -86 4t-88 4t-90 -4t-88 -4h-4z" />
<glyph unicode="g" horiz-adv-x="790" d="M6 -182q2 12 9 28.5t16 33t20 31.5t23 23h2l124 62q-12 5 -24 10.5t-22 12.5t-17 17t-9 26v2q4 18 12 36t22 35q28 25 58 45t64 39q-10 2 -25 8.5t-30 16.5t-29 25t-24 36t-13 48t5 61q12 52 41 94t70 73t92 51q51 22 107 30q12 0 28 3t33 3q24 0 46.5 -3.5t43.5 -10 t39 -17.5t33 -27h201l4 -16l-52 -64l-124 2q2 -18 1 -36q-1 -20 -5 -40q-13 -60 -58.5 -111.5t-121.5 -88.5q-24 -12 -48.5 -21t-49.5 -15t-49.5 -7.5t-48.5 2.5q-10 -8 -23 -17.5t-25 -19t-20.5 -19t-10.5 -19.5q-4 -18 2.5 -29t19.5 -16.5t30 -7t33 -1.5l196 4 q32 0 59 -0.5t48.5 -8t36 -24.5t22.5 -51q5 -26 5 -50t-5 -48q-8 -40 -30 -78t-54 -72t-73 -62t-89 -49t-100 -33t-108 -12q-64 0 -117 13.5t-88 40t-50 66.5q-8 23 -8 50q0 22 5 46zM122 -245q9 -33 31.5 -55t56.5 -33t75 -11q58 0 109 16t90.5 43t65.5 64t36 79q6 32 6 55 t-12.5 38t-41 22t-78.5 7h-180q-24 0 -49 -11t-47 -30t-38 -46.5t-22 -60.5q-5 -24 -5 -44q0 -18 3 -33zM298 370q4 -34 19 -56.5t40 -34t59 -11.5q32 0 60 11t50.5 30.5t38.5 46t22 58.5q9 36 9 69q0 37 -14 65q-12 26 -37 42t-67 16q-44 -6 -74 -18t-49.5 -31t-30.5 -45 q-12 -28 -20 -62q-7 -33 -7 -60q0 -10 1 -20z" />
<glyph unicode="h" horiz-adv-x="827" d="M31 -8l11 53h6q42 0 67 7t39 25.5t23 52t20 85.5l142 641q4 21 -2.5 34.5t-20.5 21.5t-33 11t-37 3h-6l12 51h4q60 10 119 20t123 27l2 2l2 -4q6 -8 2 -31l-56 -213l-52 -236l118 86q16 12 31 19.5t30 12t31 6.5t33 2q43 0 77 -15.5t56 -44.5q22 -30 28 -74q2 -15 2 -32 q0 -31 -8 -68l-48 -219q-11 -52 -17 -85.5t-1 -52t24.5 -25.5t57.5 -7h4l-11 -53h-7q-28 4 -53 6t-55 2t-58 -2q-26 -2 -54 -6h-6l85 383q10 42 10 76q-1 5 -1 9q-2 36 -13 60.5t-32 37t-47 12.5q-42 0 -74 -10t-54 -25t-36 -35t-23.5 -40.5t-14.5 -40.5q-4 -20 -8 -36 l-38 -168q-11 -52 -16.5 -85.5t1 -52t27.5 -25.5q20 -7 62 -7h7l-14 -53h-4q-43 0 -86 4t-88 4t-90 -4t-88 -4h-4z" />
<glyph unicode="i" horiz-adv-x="418" d="M31 -8l11 53h6q43 0 67.5 7t39 25.5t23 52t19.5 85.5l63 285q4 21 -3 34.5t-21 21t-33 11t-37 3.5h-4l10 48l4 2q31 6 61 11t59.5 10t59.5 11q30 8 62 16l2 2l2 -2q2 -4 3.5 -12t0.5 -19l-56 -217l-46 -205q-11 -52 -16.5 -85.5t1 -52t27.5 -25.5q20 -7 62 -7h7l-14 -53 h-4q-43 0 -86 4t-88 4t-90 -4t-88 -4h-4zM320 860q-2 8 -2 15.5t2 15.5q4 16 14.5 31.5t24.5 27t30.5 18.5t32.5 7q18 0 32 -7t22 -18.5t11 -27.5q1 -7 1 -13q0 -9 -2 -18q-4 -16 -13 -31t-23 -26.5t-31 -18t-35 -6.5q-16 0 -29 6.5t-22 18t-13 26.5z" />
<glyph unicode="j" horiz-adv-x="338" d="M-96 -340h6q38 0 67 12.5t50 33t36.5 47.5t27 56t19.5 58.5t16 54.5l128 578q4 21 -3 34.5t-21 21t-32.5 11t-37.5 3.5h-4l12 48l2 2q31 6 61 11t59.5 10t59.5 11q30 8 62 16l2 2l2 -2q5 -6 4.5 -13t-0.5 -18l-56 -217l-96 -442q-13 -60 -38.5 -117t-65.5 -111 q-27 -40 -59.5 -68t-65.5 -46t-66.5 -26t-62.5 -8h-4zM315 864q-1 7 -1 15t1 16q4 18 14.5 32.5t24.5 25.5t30 17.5t32 6.5q18 0 32 -6.5t22 -17.5t10 -25q1 -6 1 -12q0 -10 -2 -21q-4 -16 -13.5 -31.5t-22.5 -27t-30 -18.5t-34 -7q-16 0 -29.5 7t-22.5 18.5t-12 27.5z" />
<glyph unicode="k" horiz-adv-x="790" d="M31 -8l11 53h6q42 0 67 7t39 25.5t23 52t20 85.5l142 641q4 21 -2.5 34.5t-20.5 21.5t-33 11t-37 3h-6l12 51h4q60 10 119 20t123 27l2 2l2 -4q6 -8 2 -31q-6 -20 -10 -39q-4 -18 -10 -36q-9 -32 -19.5 -69.5t-16.5 -68.5q-7 -30 -14.5 -62.5t-14.5 -65.5t-14 -65.5 t-14 -62.5l-29 -139q10 6 20 13q8 6 20 14q16 11 36 24.5t36 24.5q18 13 39.5 28t43 31.5t42.5 33t41 32.5q22 19 44.5 36.5t46.5 35.5h143l-12 -54h-4q-20 0 -40.5 -5.5t-41 -15t-40.5 -21.5l-40 -24q-48 -28 -93 -57t-89 -61l-26 -18q24 -36 54 -74t58 -74q16 -20 32 -41 q14 -21 32 -41q10 -10 25.5 -28t33 -34t35.5 -28t34 -12h4l-8 -44l-147 -42l-2 2q-4 6 -13.5 16t-21.5 23.5t-25 29t-25 29.5q-16 18 -33 38t-34 40.5l-34 41t-31 40.5l-71 90l-27 -117q-11 -52 -16.5 -85.5t1 -52t27.5 -25.5q20 -7 62 -7h7l-14 -53h-4q-43 0 -86 4t-88 4 t-90 -4t-88 -4h-4z" />
<glyph unicode="l" horiz-adv-x="418" d="M31 -8l11 53h6q42 0 67 7t39 25.5t23 52t20 85.5l142 641q4 21 -2.5 34.5t-20.5 21.5t-33 11t-37 3h-6l12 51h4q60 10 119 20t123 27l2 2l2 -4q4 -5 4 -15q0 -7 -2 -16q-6 -20 -10 -39q-4 -18 -10 -36q-9 -32 -19.5 -69.5t-16.5 -68.5q-12 -42 -22.5 -88t-21 -93t-20 -94 t-18.5 -89l-42 -199q-11 -52 -16.5 -85.5t1 -52t27.5 -25.5q20 -7 62 -7h7l-14 -53h-4q-43 0 -86 4t-88 4t-90 -4t-88 -4h-4z" />
<glyph unicode="m" horiz-adv-x="1249" d="M31 -8l11 53h6q43 0 67.5 7t39 25.5t23 52t19.5 85.5l63 285q4 21 -3 34.5t-21.5 21t-33.5 11t-38 3.5h-6l12 48l4 2q52 11 110 20.5t122 27.5l2 2l2 -2q6 -10 4 -31l-21 -88l105 79q30 23 60 31.5t65 8.5q36 0 66.5 -7t53.5 -23t39 -40t22 -58l115 84q18 13 32.5 21.5 t31 13.5t35 7t43.5 2q43 0 77 -15t56 -45q22 -28 28 -72q2 -14 2 -31q0 -32 -8 -71l-46 -219q-11 -52 -17 -85.5t-1.5 -52t23.5 -25.5t57 -7h4l-11 -53h-7q-28 4 -53 6t-55 2t-58 -2q-26 -2 -52 -6h-6l83 383q9 42 9 75v10q-2 36 -13 60.5t-31 37.5q-20 12 -48 12 q-42 0 -74 -10t-54 -25t-36 -35t-23.5 -40.5t-14.5 -40.5q-4 -20 -8 -36l-38 -168q-11 -52 -16 -85.5t1.5 -52t28.5 -25.5q20 -7 62 -7h4l-11 -53h-6q-44 0 -86.5 4t-85.5 4q-45 0 -90 -4t-88 -4h-7l14 53h4q43 0 67.5 7t39 25.5t23 52t19.5 85.5l21 97q8 36 14 72 q7 34 10 70q2 26 -4 47t-19 36t-33 24t-46 9q-40 0 -70 -10t-51 -25t-35 -35t-22.5 -40.5t-13.5 -40.5q-4 -20 -8 -36l-38 -168q-11 -52 -16.5 -85.5t1 -52t27.5 -25.5q20 -7 62 -7h7l-14 -53h-4q-43 0 -86 4t-88 4t-90 -4t-88 -4h-4z" />
<glyph unicode="n" horiz-adv-x="827" d="M31 -8l11 53h6q43 0 67.5 7t39 25.5t23 52t19.5 85.5l63 285q4 21 -3 34.5t-21.5 21t-33.5 11t-38 3.5h-6l12 48l4 2q52 11 110 20.5t122 27.5l2 2l2 -2q6 -10 4 -31l-22 -90l148 98h-2q10 7 24 11t28 7t27 4t22 1q43 0 77 -15.5t56 -44.5q22 -30 28 -74q2 -15 2 -32 q0 -31 -8 -68l-48 -219q-11 -52 -17 -85.5t-1 -52t24.5 -25.5t57.5 -7h4l-11 -53h-7q-28 4 -53 6t-55 2t-58 -2q-26 -2 -54 -6h-6l85 383q10 42 10 76q-1 5 -1 9q-2 36 -13 60.5t-32 37t-47 12.5q-42 0 -74 -10t-54 -25t-36 -35t-23.5 -40.5t-14.5 -40.5q-4 -20 -8 -36 l-38 -168q-11 -52 -16.5 -85.5t1 -52t27.5 -25.5q20 -7 62 -7h7l-14 -53h-4q-43 0 -86 4t-88 4t-90 -4t-88 -4h-4z" />
<glyph unicode="o" horiz-adv-x="776" d="M106 170q-4 24 -4 49q0 41 10 86q17 80 56.5 146.5t97 114.5t131 75t158.5 27q68 0 121.5 -25t87.5 -69t46 -103q6 -27 6 -56q0 -34 -8 -71q-18 -82 -60.5 -150t-103 -116.5t-135.5 -76t-157 -29.5q-68 0 -120 24t-84 68t-42 106zM254 214q2 -38 12 -71t30 -58t51 -40 t75 -15q46 0 84 21t67 56t49 80.5t30 94.5q10 45 12 88q1 14 1 28q0 26 -3 52q-4 38 -16 69t-31 52.5t-45 32.5q-22 8 -48 8h-11q-53 0 -94 -20t-71 -54t-50 -78q-20 -46 -30 -94q-8 -37 -12 -76q-2 -23 -2 -45q1 -15 2 -31z" />
<glyph unicode="p" horiz-adv-x="854" d="M-56 -398l11 52h7q28 2 48 6t34 11t23 19t16.5 30t13.5 44q5 26 13 62l150 674q4 21 -3 34.5t-21.5 21t-33.5 11t-38 3.5h-6l12 48l4 2q52 11 110 20.5t122 27.5l2 2l2 -2q6 -10 4 -31l-24 -92q22 12 42 25.5t40 27.5t40 27t44 22q32 12 62 16.5t60 4.5q64 0 111 -20.5 t75 -57.5t36 -89q3 -19 3 -39q0 -36 -9 -77q-8 -36 -24.5 -73t-39 -71t-47.5 -63t-49 -49q-4 -4 -11 -8.5t-14 -8.5l-14 -8t-11 -6l-48 -26l-104 -62q-30 -17 -58 -21.5t-58 -4.5q-18 0 -34 2t-32 7t-33 12t-36 17l-43 -196q-12 -53 -17.5 -86.5t1 -52.5t27.5 -26t62 -7h6 l-13 -52h-4q-44 0 -87 3.5t-87 3.5q-45 0 -89.5 -3.5t-87.5 -3.5h-5zM307 146q28 -38 72.5 -58t95.5 -20q31 0 61.5 9t58 26t52.5 41t45.5 54t35 63.5t22.5 70.5q8 38 8 73q0 11 -1 21q-3 44 -22.5 76t-56 51t-90.5 19q-27 0 -55.5 -8t-55 -22t-50.5 -34q-25 -20 -43 -45 q-6 -8 -8 -16t-5 -19z" />
<glyph unicode="q" horiz-adv-x="796" d="M102 224q2 40 10 81q8 36 22 73.5t37 73t55 66.5q34 32 78 54l99 52q42 23 79.5 33.5t81.5 10.5q27 0 47 -2t38 -6t35.5 -10.5t39.5 -16.5l22 -11l75 44l31 -19q-7 -10 -13 -23q-5 -12 -13 -26q-12 -25 -26 -60.5t-24 -83.5l-139 -628q-12 -53 -17.5 -86.5t1 -52.5 t27.5 -26q20 -7 62 -7h4l-10 -52h-6q-44 0 -86 3.5t-87 3.5t-89 -3q-44 -4 -88 -4h-4l10 52h4q30 2 50 6t34.5 11t24 19t16.5 30t13 44t14 62l58 268l-180 -100q-10 -6 -19 -8t-18 -3t-17 0t-16 1q-46 0 -82 12t-62 34t-42 52t-24 66q-6 32 -6 67v9zM245 224q3 -31 13 -58.5 t29.5 -47t49 -31t70.5 -11.5q20 0 44 7t48.5 19t47.5 29t39 35l79 372q-32 30 -69.5 47t-83.5 17q-49 0 -91.5 -20.5t-75.5 -54t-56 -77.5t-33 -90q-8 -35 -11 -70q-1 -17 -1 -33.5t1 -32.5z" />
<glyph unicode="r" horiz-adv-x="565" d="M31 -8l11 53h6q43 0 67.5 7t39 25.5t23 52t19.5 85.5l63 285q4 21 -3 34.5t-21.5 21t-33.5 11t-38 3.5h-6l12 48l4 2q52 11 110 20.5t122 27.5l2 2l2 -2q6 -10 4 -31l-21 -88l83 61q14 12 30 22t34 18t36 13t36 5q17 0 34 -2q16 -2 32 -10q8 -2 8 -10q0 -2 -2 -9 q0 -3 -2 -4l-46 -156h-38v5q-7 26 -26 42t-50 16q-34 0 -61 -15t-48 -41t-35 -60t-22 -70l-32 -139q-11 -52 -16.5 -85.5t1 -52t27.5 -25.5q20 -7 62 -7h7l-14 -53h-4q-43 0 -86 4t-88 4t-90 -4t-88 -4h-4z" />
<glyph unicode="s" horiz-adv-x="606" d="M50 14v4q6 18 14 41t15 47t14 50t12 51l1 4h53l-9 -41q-6 -27 -9.5 -42t-2 -24.5t10.5 -17.5t29 -20q20 -14 49.5 -23.5t68.5 -9.5q33 0 63.5 9.5t55.5 26t43 39.5q18 22 24 50q7 32 -4 54.5t-41 33.5q-26 10 -60 18t-68.5 17t-66.5 21t-54 32t-32 50q-5 15 -5 35 q0 18 4 40q12 58 44 97.5t75.5 64.5t94 36t100.5 11q21 0 44 -2t46.5 -6t46 -11t42.5 -18l4 -3l-4 -4q-4 -12 -9.5 -28t-11 -36t-11 -42.5t-10.5 -46.5l-2 -6h-49l1 6q4 18 6.5 33t1 28t-7.5 24.5t-18 21.5q-10 8 -22.5 14.5t-27 11t-29.5 6.5t-30 2q-32 0 -56.5 -8 t-43.5 -21t-31 -29t-19 -33t-7 -33.5t6 -28.5q10 -21 31 -33t49 -20t59.5 -13.5t62 -13t57.5 -18.5t45.5 -29.5t25.5 -47.5q3 -13 3 -28q0 -20 -5 -43q-12 -59 -49 -104t-88 -76t-111 -46t-118 -15q-24 0 -48 1.5t-47.5 6t-46 12.5t-44.5 20z" />
<glyph unicode="t" horiz-adv-x="467" d="M152 532l8 38l110 46q11 49 17.5 82.5t9.5 56.5t5 39q3 16 6 30v4l5 2q40 11 74.5 24.5t57.5 25.5l3 2l20 -18l-2 -2q-8 -14 -13 -26t-8 -23l-52 -195h197l-31 -78h-185l-68 -310q-6 -28 -11 -55t-2 -47t17 -32q16 -12 50 -12q18 0 36 8l36 16l4 2l24 -30l-6 -4 q-6 -6 -10 -9t-7 -6l-7 -7t-11 -9q-4 -3 -11 -10.5t-16.5 -16t-20.5 -16t-23 -10.5q-18 -5 -34 -6.5t-34 -1.5q-40 0 -67 10t-42 30t-18 48q-1 8 -1 17q0 22 6 48l90 403z" />
<glyph unicode="u" horiz-adv-x="856" d="M148 570l12 48l4 2q30 6 59 11t59 10t60 11q30 8 62 16l2 2l2 -2q6 -6 5 -13t-1 -18l-57 -217l-39 -176q-10 -42 -12 -74t9 -53.5t37.5 -32t72.5 -10.5q14 0 32.5 4.5t39 13t40.5 20t37 25t30 28.5q12 15 18 29q3 14 8 26q6 14 9 24l57 256q4 21 -3 34.5t-20 21t-31 10.5 q-20 4 -38 4h-6l12 48l5 2q31 6 60 11t58.5 10t58.5 11q30 8 62 16l2 2l2 -2q5 -6 5 -13t-1 -18l-56 -217l-64 -291q-2 -12 -5 -22.5t-4 -19.5t2 -17t11 -14l1 2q16 -6 30.5 -8t30.5 -3l31 -2l-13 -53h-5q-30 4 -58.5 6t-60.5 2q-31 0 -59.5 -2t-58.5 -6h-6l1 6 q8 20 13.5 37t7.5 33l8 42q-24 -17 -46 -34q-24 -16 -46 -35q-11 -8 -20 -15.5t-18.5 -13.5t-20.5 -11t-27 -9q-24 -5 -47.5 -6.5t-46.5 -1.5q-51 0 -83.5 10t-50.5 28t-25 42t-7 51t6 56t12 59l60 270q4 21 -3 34.5t-21 21t-32 11t-36 3.5h-6z" />
<glyph unicode="v" horiz-adv-x="803" d="M156 602l12 54h336l-12 -54h-4q-34 0 -55 -4t-32 -12t-15 -19t-2.5 -25t6 -31t8.5 -36l63 -338q33 45 64 91t59 94l92 149q12 20 24 38t20 32.5t10 25.5t-6 19t-26 12t-52 4h-6l11 54h275l-12 -54h-4q-16 0 -34 -6t-40 -24.5t-50 -52t-64 -89.5l-196 -293l-64 -102 l-30 -45h-80l-110 540q-4 20 -9 34t-14 22.5t-23 12t-36 3.5h-4z" />
<glyph unicode="w" horiz-adv-x="1181" d="M156 602l12 54h344l-12 -54h-6q-37 0 -59.5 -3t-35.5 -9.5t-17.5 -16t-4.5 -21.5t2.5 -27t4.5 -33l30 -326q18 24 34 50t32 50l260 396h42l-2 -4q6 -25 10 -51.5t10 -53.5l70 -397q26 42 48 82t48 82l78 130q22 38 37.5 66.5t16 47.5t-19 28.5t-66.5 9.5h-6l12 54h284 l-11 -54h-5q-28 0 -49 -10t-38 -27t-31 -38t-29 -43l-91 -138l-92 -148l-119 -208h-73l-85 471q-24 -36 -48 -72.5t-50 -72.5l-38 -54l-122 -188l-51 -84h-74l-40 477q-4 33 -7 58t-11.5 42t-26 26t-51.5 9h-4z" />
<glyph unicode="x" horiz-adv-x="735" d="M26 -8l14 53h4q18 0 33 4.5t30.5 13.5t32 23t36.5 33l196 188q-16 53 -40 99q-22 43 -39 78.5t-34 60.5t-37 38q-22 13 -50 9l-6 -2l4 49l174 29l2 -2q18 -23 34 -46.5t30 -51.5l69 -162q22 23 41.5 42.5t42.5 43.5l149 164h113l-11 -54h-4q-15 2 -27.5 0t-23.5 -8 t-21 -16t-22 -21l-215 -203l131 -254q8 -14 14.5 -24.5t15 -17t20 -10t30.5 -3.5h4l-12 -53h-6q-22 4 -42 6t-40 2q-24 0 -45 -2t-43 -6h-4l-1 2q-6 10 -11.5 23.5t-12.5 27.5l-99 211q-32 -32 -65.5 -63t-64.5 -66l-116 -135h-2q-16 4 -28.5 6t-29.5 2t-31.5 -2t-29.5 -6 h-7z" />
<glyph unicode="y" horiz-adv-x="790" d="M-44 -375l58 113h26q4 -6 12 -12.5t16 -12t17 -8.5t15 -2q20 2 39 11.5t36.5 24.5t34 34t30.5 39t26 40q14 20 24 36l52 82l-108 591q-4 12 -8.5 20.5t-13 12.5t-22.5 6t-36 2h-4l12 54h336l-12 -54h-6q-33 0 -53 -3t-31 -8.5t-14.5 -13t-3 -17.5t3 -21t4.5 -23l68 -376 l216 346q10 18 21 33t18 28t9 23t-6 17t-26 11t-50 4h-6l11 54h276l-11 -54h-4q-27 0 -46 -7.5t-33.5 -20t-26.5 -30t-25 -36.5l-489 -729q-26 -38 -51.5 -70.5t-55.5 -56t-66.5 -37t-84.5 -13.5q-9 0 -18.5 2t-18.5 5t-17 7t-12 9h-2z" />
<glyph unicode="z" d="M28 30h2q40 39 81 75.5t81 74.5l232 226l194 192h-210q-20 0 -41 -2t-38 -6t-29 -10t-16 -15l-20 -35v2l-22 -78h-49l1 5q2 10 5 19.5t6 20.5t6 24t7 28l25 111h4q99 0 197 -3t197 -3q36 0 73.5 3t75.5 3h4l-12 -58l-1 -2q-15 -14 -31 -29t-32 -28l-314 -307l-179 -180 h252q30 0 57 2q28 4 59 14h2q4 0 9 7q6 7 8 13v2l44 109h53l-1 -5q-2 -12 -7 -23.5t-9.5 -24t-9 -24.5t-6.5 -24l-35 -112h-6q-109 0 -215.5 4t-216.5 4q-42 0 -84.5 -4t-83.5 -4h-4z" />
<glyph unicode="{" horiz-adv-x="477" d="M180 436q0 2 1 2t3 2q32 8 55 21t39 31.5t26 43.5t16 58l54 246q14 62 38 100.5t58 60t76.5 28.5t93.5 7l-2 -10q-36 -8 -61 -22t-42 -33.5t-27 -46.5q-10 -28 -18 -64l-54 -246q-8 -36 -18 -64t-26 -50t-40 -38t-60 -28q32 -12 49 -29t22 -41t1 -54t-12 -66l-50 -230 q-8 -36 -8 -64t8 -49t26 -35t48 -20l-2 -10q-59 -2 -98.5 6.5t-60.5 33t-24.5 67t10.5 108.5l49 223q8 36 10 62t-5 44t-25 30t-49 20q-3 0 -1 6z" />
<glyph unicode="|" horiz-adv-x="860" d="M379 0l230 1036h103l-230 -1036h-103z" />
<glyph unicode="}" horiz-adv-x="477" d="M30 -164l2 10q33 6 57.5 20t42.5 35t30 49t19 64l51 230q8 36 17.5 66t26 54t40.5 41q22 17 58 29q-28 12 -44 28t-22 38t-3 50t10 64l54 246q8 36 8.5 63.5t-7.5 47t-26.5 33.5t-49.5 22l4 10q52 0 91 -7t63 -28.5t30 -60t-7 -100.5l-54 -246q-7 -33 -8 -58t6.5 -43.5 t24.5 -30.5q16 -14 45 -22q2 -2 1 -4q-2 -6 -4 -6q-33 -8 -55.5 -20t-37.5 -30t-25 -44t-17 -62l-49 -223q-14 -66 -37 -108.5t-55.5 -67t-77 -33t-102.5 -6.5z" />
<glyph unicode="~" horiz-adv-x="860" d="M138 307l2 5q24 28 49.5 56.5t55 52t63.5 39t73 15.5q24 0 50.5 -7.5t53 -18.5t52.5 -23t50.5 -23t45.5 -18.5t39 -7.5q22 0 46 10.5t46 27.5t42 39t34 42l6 4l39 -64q-23 -29 -49 -57.5t-56 -50.5t-62.5 -36t-68.5 -14q-20 0 -44.5 7t-49.5 16.5t-47 20t-38 18.5 q-14 6 -27.5 13t-27.5 12t-28.5 8.5t-30.5 3.5q-27 0 -49.5 -12t-43 -30.5t-39.5 -41.5t-38 -43l-6 -6z" />
<glyph unicode="&#xa2;" horiz-adv-x="737" d="M195 389q-5 47 7 96t39 96t68.5 84.5t95.5 63t119 31.5l32 139h71l-31 -139q40 -5 80 -13t82 -22q-7 -18 -12.5 -33.5t-10.5 -30.5t-11 -30t-12 -33h-40q2 6 4 13t3 14l2 14t-1 13q0 8 -3 14t-13 14q-15 9 -36 16q-20 6 -46 8l-101 -444h10q40 -2 80.5 9t84.5 36l11 -16 l-28 -47q-20 -10 -42.5 -18t-45.5 -14t-44.5 -10t-39.5 -6l-31 -136h-72l32 140q-64 10 -107 37.5t-66 67t-28 86.5zM295.5 417q3.5 -37 18 -65.5t39.5 -49t59 -32.5l97 430q-38 -6 -70.5 -21.5t-59.5 -41t-47 -60.5t-30 -79t-6.5 -81z" />
<glyph unicode="&#xa3;" horiz-adv-x="862" d="M59 104q6 30 21 54t36.5 40t48 25t56.5 9q19 0 34 -2.5t28 -6.5t26 -9.5t27 -13.5q10 24 14 45q6 21 8 31q4 22 5 47t0.5 51t-3 51t-4.5 46h-186l14 69h162q-2 48 -2.5 94.5t9.5 94.5q13 60 44 109.5t75 84.5t99 54t115 19q17 0 34.5 -2t33.5 -7q34 -7 63 -23t48 -41 t26 -57t-1 -72q-4 -22 -15.5 -42t-27.5 -37t-37 -27q-22 -10 -46 -10q-19 0 -34 6t-24.5 16.5t-13.5 26.5t0 37q4 18 12 29t19.5 20t25 16t28.5 15l7 4q12 2 17 12q2 18 -8.5 31t-27.5 21t-37 12t-38 4q-38 0 -72 -14q-33 -14 -63 -46q-15 -16 -24 -29t-15 -27t-10 -28 q-2 -14 -6 -32q-5 -23 -5.5 -50.5t1.5 -56.5q0 -30 1 -55.5t1 -49.5h237l-15 -69h-220q-1 -32 -4.5 -64.5t-10.5 -68.5q-4 -18 -10.5 -40.5t-15.5 -45.5t-20 -45.5t-23 -40.5q41 -18 85 -32q43 -15 91 -15q34 0 61 8.5t50.5 24.5t44 40t42.5 56l54 -25q-16 -36 -39 -73 t-53 -69t-66.5 -55.5t-78.5 -31.5q-14 -3 -29.5 -4.5t-31.5 -1.5q-30 0 -57 6t-52 17.5t-47.5 27t-42.5 33.5q-2 -2 -4.5 -5t-6.5 -5q-8 -11 -18 -17.5t-19 -14.5q-18 -10 -34.5 -18t-32 -13t-32 -8t-35.5 -3q-24 0 -46 8t-37.5 23t-21.5 37t-1 48zM129.5 84.5 q2.5 -10.5 10.5 -18t19 -11.5t23 -4q32 0 61.5 19t52.5 49q-10 10 -26.5 19.5t-34 16.5t-35.5 8t-32 -5q-32 -16 -38 -50q-3 -13 -0.5 -23.5z" />
<glyph unicode="&#xa5;" horiz-adv-x="960" d="M125 368l17 78h350l-44 124h-280l16 77h238l-23 65q-8 18 -14.5 35t-13.5 33.5t-15 32t-18 31.5q-11 15 -23.5 28.5t-27.5 22.5t-33 14q-20 5 -42 5l11 48l159 29q17 4 29.5 1.5t21.5 -9.5t16 -17t13 -22q20 -40 37 -84t34.5 -98t39 -120t49.5 -152l189 225 q56 66 107.5 132t103.5 138h123l-6 -29q-34 -32 -72.5 -68.5t-77.5 -76t-78 -81t-75 -81.5h223l-17 -77h-274q-12 -14 -24.5 -30l-25 -32t-24.5 -32t-20 -30h342l-16 -78h-356l-6 -14l-42 -188q-6 -26 -9 -45t-2 -32t7 -21t19.5 -13t35.5 -8q23 -3 55 -4q-1 -4 -2 -8.5 t0 -10.5q-2 -8 -3 -17t-3 -17q-30 2 -56 4t-51 3t-49 2t-50 1q-50 0 -98 -3t-103 -7q0 6 0.5 11t1.5 9q0 8 1.5 17t3.5 16q33 2 56.5 4.5t39.5 7.5t27 13t18 21t12 32t11 45l42 200h-375z" />
<glyph unicode="&#xa9;" horiz-adv-x="1065" d="M130 359q-2 65 14 135q14 68 46 132t76.5 120t100 102t118.5 79.5t130 52t135 18.5t127.5 -18.5t107.5 -52t83 -79.5t54.5 -102t22.5 -120t-13 -132q-15 -70 -46.5 -135t-76.5 -122t-100.5 -104t-118 -80t-129.5 -51t-135 -18t-127 18t-107 51t-83.5 80t-55 104 t-23.5 122zM219 381.5q3 -54.5 20 -102t46 -86t68 -66t88 -42.5t104 -15t110.5 15t107 42.5t98.5 66t84 86t64 102t39 112.5t9 111t-19 99t-45 84.5t-68.5 66t-88 42.5t-104.5 15t-111 -15t-107 -42.5t-99 -66t-84 -84.5t-64 -100q-27 -52 -39 -110t-9 -112.5zM364 385 q-8 51 4 104t43 103t77.5 90t108 64t134.5 24q50 0 97.5 -10t97.5 -27q-6 -16 -12 -30.5t-11 -29.5t-10.5 -30t-11.5 -33h-39q2 6 4 13t3.5 14t2 14t0.5 13q-4 6 -6 13t-14 13q-10 7 -21 12.5t-24 9t-30 5.5t-37 2q-46 0 -86.5 -14.5t-73 -41.5t-55.5 -66t-35 -89 q-12 -56 -5 -100.5t32 -76t66 -48.5t97 -17q39 0 79.5 12t84.5 36l12 -15l-29 -45q-22 -12 -47 -20.5t-50 -14.5t-48.5 -9t-40.5 -3q-80 0 -134 24.5t-84.5 63.5t-38.5 90z" />
<glyph unicode="&#xab;" d="M146 342l4 22l4 2q43 36 84.5 67t84.5 67l133 112l38 -22l-6 -4q-16 -17 -36 -39t-38 -45l-142 -148l117 -229l-49 -27l-4 2q-6 6 -11 13.5l-9 13.5l-57 82l-91 107zM427 342l5 22l2 2q43 36 84.5 67t85.5 67l132 112l38 -22l-5 -4q-16 -17 -34.5 -39t-40.5 -45 l-142 -148l118 -229l-52 -27l1 2q-6 8 -12 14.5t-11 12.5l-56 82l-92 107z" />
<glyph unicode="&#xad;" horiz-adv-x="477" d="M91 314l62 100h377l10 -12l-68 -99h-371z" />
<glyph unicode="&#xae;" horiz-adv-x="1059" d="M127 344q-3 65 13 135q15 70 47.5 134.5t77 120.5t100.5 102t118.5 78.5t130 50.5t135.5 18t127.5 -18t107 -50.5t82 -78.5t54.5 -102t23.5 -120.5t-11.5 -134.5q-16 -70 -48.5 -135t-77 -121.5t-99.5 -102.5t-117 -79t-129 -51t-135 -18q-69 0 -129 18t-108.5 51 t-83.5 79t-55 102.5t-23 121.5zM217 367.5q3 -53.5 20 -100t46 -85t68.5 -65.5t88 -42t105.5 -15q56 0 111.5 15t106.5 42t97 65.5t83 85t64 100t39 111.5t9 111t-19 99.5t-45 84.5t-68 65.5t-88 42.5t-106 15q-56 0 -111 -15t-106.5 -42.5t-98 -65.5t-84 -84.5t-64.5 -100 t-39 -110.5q-12 -58 -9 -111.5zM347 217l8 39h25h19.5t12.5 3t8 10t6 22l87 399q3 14 4 21.5t-1 10.5t-8.5 3h-19.5h-27l9 41h219q58 0 98 -6.5t62.5 -22t28.5 -41.5t-2 -65q-6 -30 -21 -54.5t-36 -42.5t-46 -31t-54 -19q16 -8 27.5 -22t19.5 -30t13 -34t9 -36 q5 -22 8.5 -40.5t9.5 -32t16 -22.5t28 -11h5l-8 -39h-101h-2q-13 4 -22.5 8.5t-18.5 18.5q-6 14 -12 32t-11.5 38.5t-9.5 41t-8.5 38.5t-7.5 32q-4 12 -7 18q-6 7 -12.5 10.5t-14 5t-16 1.5h-17.5h-17l-36 -166q-2 -12 -3.5 -18.5t0.5 -10.5t8 -6q5 -2 17 -2l30 -2l-8 -39 h-231zM582 508l21 -2q30 0 55.5 4t46.5 16.5t36 34t23 55.5q22 108 -86 109l-32 -4q-8 0 -13 -3.5t-7.5 -10.5t-4 -15t-3.5 -16z" />
<glyph unicode="&#xbb;" d="M98 125l220 229q-3 8 -4.5 14.5t-5.5 14.5l-95 207l46 22l3 -4q28 -36 51 -67.5t48 -63.5l89 -113l-5 -22l-3 -2q-21 -11 -51 -32q-29 -22 -61 -48l-195 -162zM381 125l221 229q-4 8 -6 14.5t-5 14.5l-97 207l46 22l2 -4q28 -36 52 -67t48 -64h2l84 -113l-4 -22l-3 -2 q-10 -6 -23.5 -16t-29.5 -22t-33 -25t-33 -25l-184 -154z" />
<glyph unicode="&#xbc;" horiz-adv-x="1091" d="M174 387l10 47q20 0 34 1q12 1 24 3l21 10q7 11 9 20.5t4 21.5l2 10q11 52 22.5 101t21.5 99q11 51 22 101t24 104v3l-116 -48l-20 2q0 5 0.5 9.5t1.5 8.5q0 8 1.5 17t3.5 17l15 4h-2l90 32l116 37h28q-4 -12 -9 -28t-11 -40t-14 -58.5t-20 -85t-28 -118t-36 -157.5 q-3 -14 -5 -27t0 -27q0 -2 2.5 -4t10.5 -4q10 -2 24 -3t34 -1l-9 -43l-5 -4q-66 6 -120 6q-58 0 -126 -6zM247 -4l757 991h104l-756 -991h-105zM678 150v32q62 85 129 166.5t138 157.5l13 14l48 56l72 22l18 -10q-2 -11 -5 -20.5t-7 -20.5t-8 -23t-6 -24l-65 -279 q23 0 44 -0.5t47 5.5l3 -5q-3 -8 -4.5 -14.5t-3.5 -14.5l-9 -44q-24 2 -47.5 2h-46.5q-8 -36 -10 -58t4 -34t22 -15.5t42 -3.5l-2 -15q-1 -6 -2 -14q-2 -8 -4 -18q-69 6 -127 6q-30 0 -61.5 -1.5t-67.5 -4.5l10 45q30 2 48 6.5t29 16.5t17 34q8 24 16 62q-6 -2 -19 -3.5 t-30 -2t-36 -0.5h-38h-101zM776 219h141l59 250l-143 -172z" />
<glyph unicode="&#xbd;" horiz-adv-x="1091" d="M154 387l10 47q20 0 33 1t25 3l20 10q7 11 9 20q3 10 5 22l2 10l30 143q6 30 11 58.5t12 58.5q8 36 16.5 73t20.5 72v3l-116 -48l-20 2v9.5t2 8.5q0 8 1 17t3 17l16 4h-2l89 32l116 37h29q-4 -12 -9 -28t-11 -40t-14.5 -58.5t-20 -85t-27.5 -118t-36 -157.5 q-3 -14 -5.5 -27t-0.5 -27q0 -2 3 -4t10 -4q10 -2 24.5 -3t34.5 -1l-10 -43l-4 -4q-66 6 -120 6q-58 0 -126 -6zM207 0l752 987h105l-752 -987h-105zM674 -6q-2 5 2 14l4 22l65 56l75 66q30 26 60.5 52t55.5 50q42 42 68 78t34 74q5 24 2.5 43.5t-12.5 34t-27.5 22.5 t-41.5 8q-10 0 -21 -0.5t-21.5 -2.5t-19.5 -5.5t-14 -9.5q-10 -8 -15.5 -13.5t-7.5 -8.5t-3 -5t-3 -4t-4 -7.5t-3 -7.5l-21 -44h-42q2 12 4 19.5t5 10.5q2 4 3 7t2 7l28 82q40 37 83 51.5t85 14.5q49 0 80.5 -14t47.5 -37t19.5 -53t-3.5 -62q-6 -27 -19 -52t-30.5 -48 t-38.5 -44q-20 -20 -42 -38h2q-2 -2 -8 -7t-14 -11t-17 -12.5t-16 -12t-12 -7.5q-5 -4 -4 -2l5 -2l-78 -63q-1 -1 -6.5 -6t-13.5 -12t-17 -16l-17 -17h158q29 0 60.5 2t55.5 10l6 -16l-1 -2q-15 -35 -15 -68l-12 -12q-26 0 -50.5 1t-49.5 1h-90q-44 0 -85 -1t-86 -3h-29z " />
<glyph unicode="&#xbe;" horiz-adv-x="1091" d="M130 534q4 2 7 4q3 0 8 2q7 2 15 4.5t16 2.5q2 -31 9 -53t21 -36t35 -21t51 -7q27 0 50.5 10t41.5 27.5t31 41t19 50.5q13 54 -4.5 83.5t-71.5 29.5q-20 0 -38 -4q-16 -4 -36 -16l-12 14q2 2 5 8t6 13.5t6 16t5 17.5q8 0 16 -1t12 -1h17q24 0 45.5 9.5t38.5 24.5t28 34 t15 39q5 19 1.5 35t-13.5 27.5t-26 18.5t-36 7q-24 0 -44 -8t-36.5 -22t-30 -33t-23.5 -40h-12q-6 0 -13 1t-17 1l50 113q38 32 77.5 47.5t81.5 15.5q37 0 65 -10t46 -28t24 -43.5t0 -55.5q-4 -18 -14 -35t-25 -34t-33 -33t-36 -31q24 -6 43 -15.5t30.5 -25.5t15 -39 t-2.5 -53q-6 -27 -22 -53.5t-38.5 -49.5t-50.5 -43t-58.5 -34.5t-62.5 -22.5t-62 -8q-12 0 -26 1.5t-29 5t-29 8.5q-14 4 -28 10q5 52 -2 134zM247 -4l757 991h104l-756 -991h-105zM678 150v32q62 85 129 166.5t138 157.5l13 14l48 56l72 22l18 -10q-2 -11 -5 -20.5 t-7 -20.5t-8 -23t-6 -24l-65 -279q23 0 44 -0.5t47 5.5l3 -5q-3 -8 -4.5 -14.5t-3.5 -14.5l-9 -44q-24 2 -47.5 2h-46.5q-8 -36 -10 -58t4 -34t22 -15.5t42 -3.5l-2 -15q-1 -6 -2 -14q-2 -8 -4 -18q-69 6 -127 6q-30 0 -61.5 -1.5t-67.5 -4.5l10 45q30 2 48 6.5t29 16.5 t17 34q8 24 16 62q-6 -2 -19 -3.5t-30 -2t-36 -0.5h-38h-101zM776 219h141l59 250l-143 -172z" />
<glyph unicode="&#xd7;" horiz-adv-x="860" d="M174 154l266 218l-168 216l85 72l171 -218l266 220l54 -72l-265 -218l172 -220l-87 -72l-172 221l-268 -219z" />
<glyph unicode="&#xf7;" horiz-adv-x="772" d="M87 332l18 86h749l-18 -86h-749zM335 141q-3 15 1 33t13.5 33t23 26.5t30.5 18t35 6.5t31.5 -6.5t22.5 -18t12.5 -26.5t-0.5 -33t-14 -33t-23.5 -26.5t-30 -18t-34.5 -6.5t-32 6.5t-23 18t-12 26.5zM424 544q-2 16 2 34t13 32.5t23 25.5t31 17.5t34 6.5q18 0 31.5 -6.5 t22.5 -17.5t13 -25.5t0 -32.5t-15 -33.5t-25 -27t-30 -17.5t-34 -6t-32 6t-23 17.5t-11 26.5z" />
<glyph unicode="&#x2000;" horiz-adv-x="682" />
<glyph unicode="&#x2001;" horiz-adv-x="1365" />
<glyph unicode="&#x2002;" horiz-adv-x="682" />
<glyph unicode="&#x2003;" horiz-adv-x="1365" />
<glyph unicode="&#x2004;" horiz-adv-x="455" />
<glyph unicode="&#x2005;" horiz-adv-x="341" />
<glyph unicode="&#x2006;" horiz-adv-x="227" />
<glyph unicode="&#x2007;" horiz-adv-x="227" />
<glyph unicode="&#x2008;" horiz-adv-x="170" />
<glyph unicode="&#x2009;" horiz-adv-x="273" />
<glyph unicode="&#x200a;" horiz-adv-x="75" />
<glyph unicode="&#x2010;" horiz-adv-x="477" d="M91 314l62 100h377l10 -12l-68 -99h-371z" />
<glyph unicode="&#x2011;" horiz-adv-x="477" d="M91 314l62 100h377l10 -12l-68 -99h-371z" />
<glyph unicode="&#x2012;" horiz-adv-x="477" d="M91 314l62 100h377l10 -12l-68 -99h-371z" />
<glyph unicode="&#x2013;" horiz-adv-x="1024" d="M153 459l27 121h922l-28 -121h-921z" />
<glyph unicode="&#x2014;" horiz-adv-x="2048" d="M153 459l27 121h1946l-28 -121h-1945z" />
<glyph unicode="&#x2018;" horiz-adv-x="399" d="M234 626l2 5q29 40 58.5 81.5t60.5 81.5t64 79t69 75l3 2l72 33l23 -17l-4 -4q-64 -72 -109 -150t-71 -158v-5l-4 -2q-26 -6 -52 -13.5t-53 -17.5h-3l-39 -12z" />
<glyph unicode="&#x2019;" horiz-adv-x="399" d="M169 622l3 4q30 36 58 74t51.5 77.5t41 80t25.5 80.5l1 2l5 2q52 12 106 31h2l40 12l16 -23v-2q-54 -86 -117 -166t-136 -153l-3 -2l-72 -33z" />
<glyph unicode="&#x201c;" d="M248 626v5q54 86 117 165.5t135 151.5l3 2l72 33l23 -17l-4 -4q-32 -36 -60 -73.5t-51 -76.5t-40 -78.5t-26 -79.5l-1 -5l-4 -2q-26 -6 -52 -13.5t-55 -17.5l-40 -12zM540 626l4 5q30 40 59 81.5t60 81.5t64 79t69 75l2 2l72 33l21 -17l-3 -4q-30 -36 -58 -73.5 t-51 -76.5t-41 -78.5t-26 -79.5l-1 -5l-4 -2q-26 -6 -52.5 -13.5t-54.5 -17.5h-2l-40 -12z" />
<glyph unicode="&#x201d;" d="M171 622l5 4q30 36 58 74t51.5 77.5t41 80t25.5 80.5l1 2l5 2q52 12 106 31h2l40 12l18 -23l-2 -2q-54 -86 -116 -166t-137 -153l-3 -2l-72 -33zM466 622l5 4q32 36 60 74t51 77.5t40 80.5q18 40 26 80v2l4 2q52 12 108 31l39 12l18 -23l-1 -2q-54 -86 -116.5 -166 t-135.5 -153l-2 -2l-73 -33z" />
<glyph unicode="&#x2022;" horiz-adv-x="661" d="M186 283q-10 43 2 100q14 58 43 101t68 72t83 43.5t87 14.5t80.5 -14t63 -43t35.5 -72.5t-2 -101.5q-12 -57 -41 -100t-67 -71.5t-82 -43t-87 -14.5t-81.5 14.5t-65 43t-36.5 71.5z" />
<glyph unicode="&#x202f;" horiz-adv-x="273" />
<glyph unicode="&#x205f;" horiz-adv-x="341" />
<glyph unicode="&#x20ac;" horiz-adv-x="1153" d="M108 375l16 77h150q4 30 11 60t19 62h-154l16 78h172q30 56 70 104t88 87.5t102 69t111 50t115 31t116 10.5q92 0 180 -18q86 -19 172 -48q-22 -55 -40 -106.5t-36 -108.5h-48q3 23 7 38q5 15 7 27q4 19 4.5 33.5t-3.5 25.5t-13.5 20t-27.5 17q-20 12 -42 21.5t-47.5 16 t-56.5 10.5q-30 4 -68 4q-72 0 -137 -19.5t-121 -56t-102 -89.5t-78 -119h388l-17 -78h-399q-10 -31 -16.5 -61.5t-9.5 -60.5h400l-17 -77h-383q6 -72 32.5 -129.5t73.5 -97.5t113.5 -62t152.5 -22q149 0 305 86l13 -17l-48 -67q-39 -18 -83.5 -34t-89 -27t-86.5 -17 q-41 -6 -75 -6q-102 0 -189 25t-151 74.5t-100 123t-36 170.5h-160z" />
<glyph unicode="&#x2122;" horiz-adv-x="1399" d="M216 836l12 53q4 20 9 42.5t7 51.5q66 0 127 -1t122 -1q30 0 59.5 -0.5t60.5 0t63.5 1.5t67.5 3q-11 -31 -15.5 -53.5t-9.5 -42.5q-2 -11 -5.5 -23t-9.5 -28q-4 -2 -7 -2h-5h-25q4 20 5.5 35t1.5 34q4 21 -18 21l-126 4q-6 -19 -11 -37t-11 -41l-78 -356q-4 -20 -5 -34 t5 -22t21 -11t45 -3l-8 -39q-36 4 -66.5 5t-61.5 1q-54 0 -122 -6q-1 3 0 7v8l6 24q28 0 45 3t26 11t14 21t9 35l78 356q5 23 8.5 41t6.5 37l-124 -4q-10 0 -17.5 -5t-9.5 -16q-8 -17 -14 -33t-10 -34q-4 -2 -7 -2h-8h-25zM654 387q-1 3 0 7v8l6 24h20q18 0 30 2t20 7.5 t13 15.5t9 26l92 418q4 16 3 26t-6 15.5t-17 7.5t-29 2h-21l8 39q14 -2 26 -3t22.5 -1.5t20 0t19.5 0.5q18 0 38 -1q20 0 46 5l116 -457l244 342q12 14 21 28l18 28t17 28.5t16 30.5q24 -4 45 -4h39q20 0 40 -0.5t46 4.5l-8 -39h-18q-18 0 -30 -2t-19.5 -7.5t-12 -15.5 t-8.5 -26l-90 -399q-4 -22 -5.5 -35t4 -21t21.5 -11t46 -3l-8 -39q-36 4 -66.5 5t-61.5 1q-56 0 -124 -6l8 39q28 0 45 3t26.5 11t14.5 22q4 14 8 34l78 354l-325 -469h-25l-121 469l-81 -373q-4 -16 -3 -26t6.5 -15.5t17 -7.5t29.5 -2h19l-9 -39q-60 6 -104 6 q-25 0 -49.5 -0.5t-56.5 -5.5z" />
<glyph unicode="&#x25fc;" horiz-adv-x="667" d="M0 0v668h668v-668h-668z" />
</font>
</defs>
</svg>
